$MeshFormat
2.2 0 8
$EndMeshFormat
$Nodes
693
1 0.9378222823143005 3.5 0
2 0.9378222823143005 3.5 0.7999999523162842
3 0.9378222823143005 10.5 -4.440892098500626e-16
4 0.9378222823143005 10.5 0.7999999523162842
5 1.272998332977295 7 0
6 1.272998332977295 7 0.7999999523162842
7 1.539442658424377 3.59429407119751 0
8 1.628137067639729 3.608195385417804 0.7999999523162842
9 1.451618006553989 4.136579815794363 0.7999999523162842
10 1.557268002221966 9.734624301765228 0.7999999523162842
11 1.539442658424377 10.40570640563965 0
12 1.629810467991131 4.357356082360817 0
13 2.241894572407987 6.814033652313798 0
14 2.141063213348389 4.19469165802002 0
15 2.141063213348389 4.19469165802002 0.7999999523162842
16 2.141063213348389 9.805309295654297 -4.336808689942018e-16
17 2.141063213348389 9.805309295654297 0.7999999523162842
18 2.038279588651188 9.136561237475785 0
19 2.245657676477564 8.87962514809713 0.7974277740883073
20 2.263568197212884 7.19012685005512 0.7999999523162842
21 2.613280057907104 4.268703460693359 0
22 2.613280057907104 4.268703460693359 0.7999999523162842
23 2.613280057907104 9.731296539306641 0
24 2.744773257875348 6.717512937592072 0.7999999523162842
25 2.843849474897475 5.861519068314093 0.7999999523162842
26 2.812324746815336 5.041020737298172 0
27 2.760482384655055 4.962136324032619 0.7999999523162842
28 2.881126562054229 8.888388617022397 0
29 2.814313308095069 8.971168534703862 0.7999999523162842
30 2.960962372131628 6.00661918401544 0
31 3.081039488315582 10.16408777236938 0.7999999523162842
32 3.267804622650146 6.617124080657959 0
33 3.267804622650146 7.382876396179199 0
34 3.293911218643188 6.419134616851807 -4.336808689942018e-16
35 3.293911218643188 6.419134616851807 0.7999999523162842
36 3.293911218643188 7.580865859985352 -4.336808689942018e-16
37 3.293911218643188 7.580865859985352 0.7999999523162842
38 3.561863660812378 5.95502758026123 0
39 3.561863660812378 5.95502758026123 0.7999999523162842
40 3.561863660812378 8.044973373413086 0
41 3.561863660812378 8.044973373413086 0.7999999523162842
42 3.847383975982666 6.505881786346436 0
43 3.847383975982666 6.505881786346436 0.7999999523162842
44 3.847383975982666 7.494118690490723 0
45 3.847383975982666 7.494118690490723 0.7999999523162842
46 3.931632041931152 7 0
47 3.931632041931152 7 0.7999999523162842
48 4.136499404907227 2.040271282196045 0
49 4.136499404907227 2.040271282196045 0.7999999523162842
50 4.136499404907227 11.95972919464111 0
51 4.136499404907227 11.95972919464111 0.7999999523162842
52 4.347383975982666 6.584248065948486 0
53 4.347383975982666 6.584248065948486 0.7999999523162842
54 4.347383975982666 7.415752410888672 -4.336808689942018e-16
55 4.347383975982666 7.415752410888672 0.7999999523162842
56 4.375958919525146 4.544973373413086 0
57 4.375958919525146 4.544973373413086 0.7999999523162842
58 4.375958919525146 9.45502758026123 0
59 4.375958919525146 9.45502758026123 0.7999999523162842
60 4.657218428207085 2.642147692255179 0
61 4.622636318206787 2.602175712585449 0.7999999523162842
62 4.622636318206787 3.441382884979248 0.7999999523162842
63 4.503048110711251 6.10254204511138 1.161827501827446e-05
64 4.622636318206787 6.121285438537598 0.7999999523162842
65 4.550851705326169 7.889966073232547 0
66 4.588122130324832 7.884124558779797 0.7999999523162842
67 4.632127863820745 10.55968120513977 0
68 4.646342346498773 10.4902935569153 0.7999999523162842
69 4.784788049998412 11.21040010910893 0
70 4.668027228504451 11.34535889607346 0.7999999523162842
71 4.633273839950562 4.079198598861694 0
72 4.633273839950562 4.079198598861694 0.7999999523162842
73 4.633273839950562 9.920801639556885 -2.168404344971009e-16
74 4.643911361694336 9.919134140014648 0.7999999523162842
75 4.766161918640137 3.855043172836304 1.110223024625157e-16
76 4.781897544860618 6.649784445762599 0.7999999523162842
77 4.91862154006958 7 0
78 4.91862154006958 7 0.7999999523162842
79 4.995773315429688 4.5168137550354 0
80 4.995773315429688 4.5168137550354 0.7999999523162842
81 4.995773315429688 9.483186721801758 -4.336808689942018e-16
82 4.995773315429688 9.483186721801758 0.7999999523162842
83 5.020949125289917 8.655900955200195 1.110223024625157e-16
84 5.056204449418952 8.612220477090961 0.7999999523162842
85 5.313640117645264 4.910643100738525 0
86 5.313640117645264 4.910643100738525 0.7999999523162842
87 5.313640117645264 9.089357376098633 0
88 5.313640117645264 9.089357376098633 0.7999999523162842
89 5.364325982754023 5.769534545267356 0.00589388458442977
90 5.419261932373047 5.83759880065918 0.7999999523162842
91 5.465816020965576 4.342715263366699 0
92 5.465816020965576 4.342715263366699 0.7999999523162842
93 5.465816020965576 9.657284736633301 2.168404344971009e-16
94 5.465816020965576 9.657284736633301 0.7999999523162842
95 5.468515872955322 6.759966373443604 -4.336808689942018e-16
96 5.468515872955322 6.759966373443604 0.7999999523162842
97 5.468515872955322 7.240034103393555 0
98 5.468515872955322 7.240034103393555 0.7999999523162842
99 5.650000095367432 3.5 0
100 5.650000095367432 3.5 0.7999999523162842
101 5.650000095367432 10.5 0
102 5.650000095367432 10.5 0.7999999523162842
103 5.708450317382812 7 0
104 5.708450317382812 7 0.7999999523162842
105 5.796759605407715 6.305308818817139 0
106 5.796759605407715 6.305308818817139 0.7999999523162842
107 5.796759605407715 7.69469165802002 2.168404344971009e-16
108 5.796759605407715 7.69469165802002 0.7999999523162842
109 5.851611137390137 4.022695064544678 0
110 5.851611137390137 4.022695064544678 0.7999999523162842
111 5.851611137390137 9.97730541229248 0
112 5.851611137390137 9.97730541229248 0.7999999523162842
113 5.883450508117676 6.825000286102295 -4.336808689942018e-16
114 5.883450508117676 6.825000286102295 0.7999999523162842
115 5.883450508117676 7.175000190734863 -4.336808689942018e-16
116 5.883450508117676 7.175000190734863 0.7999999523162842
117 5.959311008453369 5.197473526000977 0.008955403030876385
118 5.959311008453369 5.197473526000977 0.7999999523162842
119 5.959311008453369 8.80252742767334 -4.336808689942018e-16
120 5.959311008453369 8.80252742767334 0.7999999523162842
121 2.008885795426322 6.858756468796036 0.7999999523162842
122 5.991332054138184 11.38493537902832 0
123 5.969690568359799 11.32882778075654 0.7999999523162842
124 6.026382446289062 5.793712615966797 0
125 6.026382446289062 5.793712615966797 0.7999999523162842
126 6.026382446289062 8.206287384033203 -4.336808689942018e-16
127 6.026382446289062 8.206287384033203 0.7999999523162842
128 6.033743858337402 4.494891166687012 -4.336808689942018e-16
129 6.033743858337402 4.494891166687012 0.7999999523162842
130 6.033743858337402 9.505109786987305 2.168404344971009e-16
131 6.033743858337402 9.505109786987305 0.7999999523162842
132 6.185904979705811 3.5 0
133 6.185904979705811 3.5 0.7999999523162842
134 6.185904979705811 10.5 0
135 6.185904979705811 10.5 0.7999999523162842
136 6.190287113189697 7 0
137 6.190287113189697 7 0.7999999523162842
138 6.290170669555664 6.120539665222168 2.168404344971009e-16
139 6.290170669555664 6.120539665222168 0.7999999523162842
140 6.290170669555664 7.87946081161499 -4.336808689942018e-16
141 6.290170669555664 7.87946081161499 0.7999999523162842
142 6.300000190734863 6.890287399291992 0
143 6.300000190734863 6.890287399291992 0.7999999523162842
144 6.300000190734863 7.109713077545166 0
145 6.300000190734863 7.109713077545166 0.7999999523162842
146 6.354225158691406 5.881484985351562 0
147 6.354225158691406 5.881484985351562 0.7999999523162842
148 6.354225158691406 8.118515014648438 0
149 6.354225158691406 8.118515014648438 0.7999999523162842
150 6.361690044403076 1.654878497123718 0
151 6.361690044403076 1.654878497123718 0.7999999523162842
152 6.44213342666626 5.5536789894104 0
153 6.44213342666626 5.5536789894104 0.7999999523162842
154 6.44213342666626 8.446321487426758 0
155 6.44213342666626 8.446321487426758 0.7999999523162842
156 6.534476333066711 4.40370401408449 0
157 6.482404708862305 4.268703460693359 0.7999999523162842
158 6.482404708862305 9.731296539306641 0
159 6.43968518297715 9.842050931833473 0.7999999523162842
160 8.80034206557381 6.211723567219234 0.3713099628878047
161 6.554986000061035 6.448638916015625 0
162 6.554986000061035 6.448638916015625 0.7999999523162842
163 6.554986000061035 7.551361560821533 0
164 6.554986000061035 7.551361560821533 0.7999999523162842
165 6.593279838562012 5.945539474487305 0
166 6.593279838562012 5.945539474487305 0.7999999523162842
167 6.593279838562012 8.054460525512695 0
168 6.593279838562012 8.054460525512695 0.7999999523162842
169 6.595143795013428 6.298768043518066 -4.336808689942018e-16
170 6.595143795013428 6.298768043518066 0.7999999523162842
171 6.595143795013428 7.701232433319092 0.01365363576809298
172 6.595143795013428 7.701232433319092 0.7999999523162842
173 6.595855236053467 7 0
174 6.595855236053467 7 0.7999999523162842
175 6.745014190673828 6.338925838470459 0
176 6.745014190673828 6.338925838470459 0.7999999523162842
177 6.745014190673828 7.661074638366699 0
178 6.745014190673828 7.661074638366699 0.7999999523162842
179 6.797927856445312 6.650000095367432 0
180 6.797927856445312 6.650000095367432 0.7999999523162842
181 6.797927856445312 7.350000381469727 0
182 6.797927856445312 7.350000381469727 0.7999999523162842
183 6.998395011257334 0.004161090176607882 0.008839449268397526
184 7 0 0.7999999523162842
185 7 1.389382839202881 0
186 7 1.389382839202881 0.7999999523162842
187 7 5.610617637634277 0
188 7 5.610617637634277 0.7999999523162842
189 8.591145753860474 5.824704051017761 0.3999999761581421
190 7 8.389383316040039 0
191 7 8.389383316040039 0.7999999523162842
192 7 12.61061763763428 -4.336808689942018e-16
193 7 12.61061763763428 0.7999999523162842
194 7 14 0
195 7 14 0.7999999523162842
196 7.202072620391846 6.650000095367432 0
197 7.202072620391846 6.650000095367432 0.7999999523162842
198 7.202072620391846 7.350000381469727 0
199 7.202072620391846 7.350000381469727 0.7999999523162842
200 7.254985809326172 6.338925838470459 0
201 7.254985809326172 6.338925838470459 0.7999999523162842
202 7.254985809326172 7.661074638366699 0
203 7.254985809326172 7.661074638366699 0.7999999523162842
204 7.321688984264764 0.8340086298989398 0.7999999523162842
205 7.404145240783691 7 0
206 7.404145240783691 7 0.7999999523162842
207 7.40485668182373 6.298768043518066 -4.336808689942018e-16
208 7.40485668182373 6.298768043518066 0.7999999523162842
209 7.40485668182373 7.701232433319092 0
210 7.40485668182373 7.701232433319092 0.7999999523162842
211 7.406720638275146 5.945539474487305 4.336808689942018e-16
212 7.406720638275146 5.945539474487305 0.7999999523162842
213 7.406720638275146 8.054460525512695 0
214 7.406720638275146 8.054460525512695 0.7999999523162842
215 7.445014476776123 6.448638916015625 -4.336808689942018e-16
216 7.445014476776123 6.448638916015625 0.7999999523162842
217 7.445014476776123 7.551361560821533 0
218 7.445014476776123 7.551361560821533 0.7999999523162842
219 7.517595767974854 4.268703460693359 0
220 7.53840564237772 4.214751902236337 0.7999999523162842
221 7.555221554190762 9.828844932209932 -1.110223024625157e-16
222 7.399017078106494 9.423870702819293 0.7999999523162842
223 7.557867050170898 5.5536789894104 0
224 7.557867050170898 5.5536789894104 0.7999999523162842
225 7.557867050170898 8.446321487426758 0
226 7.557867050170898 8.446321487426758 0.7999999523162842
227 7.638310194015503 1.654878497123718 0
228 7.645775318145752 5.881484985351562 4.336808689942018e-16
229 7.645775318145752 5.881484985351562 0.7999999523162842
230 7.645775318145752 8.118515014648438 -4.336808689942018e-16
231 7.645775318145752 8.118515014648438 0.7999999523162842
232 7.700000286102295 6.890287399291992 0
233 7.700000286102295 6.890287399291992 0.7999999523162842
234 7.700000286102295 7.109713077545166 0
235 7.700000286102295 7.109713077545166 0.7999999523162842
236 7.709829807281494 6.120539665222168 0
237 7.709829807281494 6.120539665222168 0.7999999523162842
238 7.709829807281494 7.87946081161499 -4.336808689942018e-16
239 7.709829807281494 7.87946081161499 0.7999999523162842
240 7.809713363647461 7 0
241 7.809713363647461 7 0.7999999523162842
242 7.814095497131348 3.5 0
243 7.814095497131348 3.5 0.7999999523162842
244 7.814095497131348 10.5 0
245 7.814095497131348 10.5 0.7999999523162842
246 7.966256618499756 4.494891166687012 0
247 7.966256618499756 4.494891166687012 0.7999999523162842
248 7.958997354314366 9.495393266255816 -4.298537859303688e-16
249 7.966256618499756 9.505109786987305 0.7999999523162842
250 7.973618030548096 5.793712615966797 -4.336808689942018e-16
251 7.973618030548096 5.793712615966797 0.7999999523162842
252 7.973618030548096 8.206287384033203 0
253 7.973618030548096 8.206287384033203 0.7999999523162842
254 8.026568732582223 2.661474716131428 0.7999999523162842
255 5.408854365348816 8.175296306610107 0.3999999761581421
256 8.028647655615583 11.33313616459874 0
257 8.008667945861816 11.38493537902832 0.7999999523162842
258 8.039881146315084 5.198069867250193 0
259 8.038028419182346 5.1994367204583 0.7999999523162842
260 8.040689468383789 8.80252742767334 0
261 8.040689468383789 8.80252742767334 0.7999999523162842
262 8.116550445556641 6.825000286102295 0
263 8.116550445556641 6.825000286102295 0.7999999523162842
264 8.116550445556641 7.175000190734863 0
265 8.116550445556641 7.175000190734863 0.7999999523162842
266 8.148388862609863 4.022695064544678 0
267 8.148388862609863 4.022695064544678 0.7999999523162842
268 8.148388862609863 9.97730541229248 0
269 8.148388862609863 9.97730541229248 0.7999999523162842
270 8.203240394592285 6.305308818817139 0
271 8.203240394592285 6.305308818817139 0.7999999523162842
272 8.203240394592285 7.69469165802002 -4.336808689942018e-16
273 8.203240394592285 7.69469165802002 0.7999999523162842
274 8.291549682617188 7 0
275 8.291549682617188 7 0.7999999523162842
276 8.350000381469727 3.5 0
277 8.350000381469727 3.5 0.7999999523162842
278 8.350000381469727 10.5 0
279 8.350000381469727 10.5 0.7999999523162842
280 8.531484603881836 6.759966373443604 0
281 8.531484603881836 6.759966373443604 0.7999999523162842
282 8.531484603881836 7.240034103393555 0
283 8.531484603881836 7.240034103393555 0.7999999523162842
284 8.534184455871582 4.342715263366699 -4.336808689942018e-16
285 8.534184455871582 4.342715263366699 0.7999999523162842
286 8.534184455871582 9.657284736633301 -4.336808689942018e-16
287 8.534184455871582 9.657284736633301 0.7999999523162842
288 8.654468143044719 8.253750891822849 0
289 8.740511475766144 8.360356397645198 0.7999999523162842
290 8.686360359191895 4.910643100738525 0
291 8.686360359191895 4.910643100738525 0.7999999523162842
292 8.686360359191895 9.089357376098633 0
293 8.686360359191895 9.089357376098633 0.7999999523162842
294 8.979051113128662 5.344099283218384 0
295 9.067579038682011 5.23441548291608 0.7999999523162842
296 9.004227638244629 4.5168137550354 0
297 9.004227638244629 4.5168137550354 0.7999999523162842
298 9.004227638244629 9.483186721801758 0
299 9.004227638244629 9.483186721801758 0.7999999523162842
300 9.02609443664551 6.67987847328186 0.7999999523162842
301 9.034281253815138 6.678595304489065 0
302 9.081378936767578 7 -4.336808689942018e-16
303 9.081378936767578 7 0.7999999523162842
304 9.233838558197021 3.855043172836304 0
305 9.233838558197021 3.855043172836304 0.7999999523162842
306 9.233838558197021 10.14495706558228 0
307 9.233838558197021 10.14495706558228 0.7999999523162842
308 9.366726875305174 4.079198598861694 -1.110223024625157e-16
309 9.366726875305176 4.079198598861694 0.7999999523162842
310 9.366726875305176 9.920801639556885 0
311 9.366726875305176 9.920801639556885 0.7999999523162842
312 9.411919920953936 2.562234255007717 0
313 9.392212884252691 2.585012735858907 0.7999999523162842
314 9.426020171960477 6.11365944752627 -2.081668171172169e-17
315 9.377364158630371 6.121285438537598 0.7999999523162842
316 9.273576569674875 7.862448147588681 -3.83355598001275e-17
317 9.568746831319951 7.908711057859016 0.7999999523162842
318 9.222990929504181 8.958136197518371 0.7999999523162842
319 10.35488912811892 3.924321098665545 0.7959552026137544
320 9.377364158630371 11.39782428741455 0
321 9.288312402762227 11.29489325171101 0.7999999523162842
322 9.39373779296875 7.38031005859375 0.7999999523162842
323 9.624041557312012 4.544973373413086 0
324 9.624041557312012 4.544973373413086 0.7999999523162842
325 9.624041557312012 9.45502758026123 0
326 9.624041557312012 9.45502758026123 0.7999999523162842
327 9.652616500854492 6.584248065948486 0
328 9.652616500854492 6.584248065948486 0.7999999523162842
329 9.652616500854492 7.415752410888672 0
330 9.652616500854492 7.415752410888672 0.7999999523162842
331 9.86350154876709 2.040271282196045 0
332 9.86350154876709 2.040271282196045 0.7999999523162842
333 9.86350154876709 11.95972919464111 0
334 9.86350154876709 11.95972919464111 0.7999999523162842
335 10.06836795806885 7 -4.336808689942018e-16
336 10.06836795806885 7 0.7999999523162842
337 10.15261650085449 6.505881786346436 0
338 10.15261650085449 6.505881786346436 0.7999999523162842
339 10.15261650085449 7.494118690490723 0
340 10.15261650085449 7.494118690490723 0.7999999523162842
341 10.43813705444336 5.95502758026123 0
342 10.43813705444336 5.95502758026123 0.7999999523162842
343 10.42198220507413 8.042441372104664 -8.673617379884035e-18
344 10.43813705444336 8.044973373413086 0.7999999523162842
345 10.72237114339534 8.397132297891989 0.7999999523162842
346 10.70608901977539 6.419134616851807 -4.336808689942018e-16
347 10.70608901977539 6.419134616851807 0.7999999523162842
348 10.70608901977539 7.580865859985352 0
349 10.70608901977539 7.580865859985352 0.7999999523162842
350 3.922410200322545 3.967783018248978 0.7999999523162842
351 10.73219585418701 7.382876396179199 0.7999999523162842
352 5.209697961807251 7.78670334815979 0.3999999761581422
353 11.04577875137329 6.677312135696411 0.7999999523162842
354 11.21345819997601 4.994423592576808 0.7999999523162842
355 11.16605806350708 8.94684886932373 0
356 11.24661307635264 6.726504661147343 0
357 11.38672065734863 4.268703460693359 0
358 11.38672065734863 4.268703460693359 0.7999999523162842
359 11.38672065734863 9.731296539306641 0
360 11.11671737117965 9.68897827116175 0.7999999523162842
361 3.187875248598869 8.508334817568409 0.4198384606740919
362 11.9333878063442 4.89854221603309 0
363 11.91546805742167 4.920744319570716 0.7911263944320874
364 11.80859994888306 8.94684886932373 0
365 11.9482532899994 9.119875732157844 0.7999999523162842
366 11.85893726348877 4.19469165802002 0
367 11.85893726348877 4.19469165802002 0.7999999523162842
368 11.85893726348877 9.805309295654297 0
369 11.85893726348877 9.805309295654297 0.7999999523162842
370 12.72700214385986 7 -4.336808689942018e-16
371 12.72700214385986 7 0.7999999523162842
372 13.06217861175537 3.5 -4.440892098500626e-16
373 13.06217861175537 3.5 0.7999999523162842
374 13.06217861175537 10.5 0
375 13.06217861175537 10.5 0.7999999523162842
376 5.240203043089543 4.035772435732688 0.500094610586537
377 8.007893577409968 2.613057714158281 0
378 7.428472458948673 2.500236944123817 0
379 5.944653168949896 2.736084662159096 0
380 6.008681486427816 2.596207121570229 0.7999999523162842
381 6.541749766536315 2.577439248561859 0
382 6.527237048813602 11.38493537902832 -5.02650452072591e-16
383 6.526458331026684 11.38291648018379 0.7999999523162842
384 9.14278085653266 9.882516241936875 0.5005329084787262
385 12.0099689522644 10.33508435547449 0
386 5.670011281967163 8.647822380065918 0.3999999761581421
387 6.243427539571476 5.038515552645067 0.3771120614843104
388 8.329989194869995 5.352177858352661 0.3999999761581421
389 11.38834150556604 3.762345199572604 0.7999999523162842
390 12.27845924587063 3.622834541480579 0.7999999523162842
391 5.237123727798462 3.312435388565063 0
392 8.885993612956117 7.801701357939518 0.7999999523162842
393 6.74007111913468 4.936727715910148 0.7999999523162842
394 6.741202354431152 9.06033992767334 0
395 2.696997592183957 8.33475063604596 0
396 9.858031375682307 6.045949141422399 0.3994718315694982
397 4.033880808595572 6.029008144817746 0.3831565923365305
398 7.524128339520448 11.25176659168955 0.0009629322661863782
399 8.684431210599179 7.77010990883245 0.4205289692345139
400 3.131929856667668 7.356797079785717 0.7999999523162842
401 2.823779213757117 7.297651748014874 0.4060462487853281
402 2.349617019646445 10.27872559063441 0
403 4.130952436553977 7.955778245949111 0.4005670382681749
404 2.972638442542084 10.18107776094293 0
405 9.004227638244629 9.483186721801758 0.3378454360284557
406 12.04318189620972 6.868750095367432 -2.168404344971009e-16
407 4.809204816818237 10.02090215682983 0.3999999761581421
408 10.77902875710579 10.14215579430242 0.7999999523162842
409 11.62811501607729 10.27523536299197 0.7999999523162842
410 6.799209156970863 1.909951800397449 0.7999999523162842
411 3.319905090823241 9.620545473681466 0.7999999523162842
412 3.931632041931152 7 0.2966751014656797
413 8.535970898646267 10.42529456197736 0
414 8.535970898646267 10.42529456197736 0.7999999523162842
415 7.329256602162583 13.14637191052894 0.7999999523162842
416 7.611590724581724 12.41439467474938 0.7999999523162842
417 11.44758068635494 7.245567842541824 0.7999999523162842
418 11.22121441581126 7.289015821591712 -1.063150822500562e-16
419 11.55166231848648 9.424602137051954 0.7999999523160923
420 4.37764609963904 11.26471216812422 0.7999999523162842
421 6.725969883560622 0.7104498186450503 0.7999999523162842
422 9.554757405163665 11.06988815243602 0
423 6.579080387788755 12.90872710818002 0
424 12.41616611064222 4.300392569091684 0.7999999523162842
425 9.622354819058987 2.735288002486185 0
426 2.446499492649432 9.426881066351346 -2.425048074050278e-16
427 5.847189036723917 5.571696585026296 0
428 4.471582250071454 3.006024857802234 0
429 12.41616634534013 9.699607721692876 0
430 7.774920795255069 4.990947029551506 0.3949103382647689
431 2.516676804897264 7.238707610536915 0
432 5.386384354363802 10.51504094290357 0
433 7.655296116987536 12.30108441650729 0
434 7.334083425971989 13.13385792490322 0
435 5.386384354363802 10.51504094290357 0.7999999523162842
436 7.680927563466802 1.765367982115888 0.793728797778151
437 7.317293133411169 2.211994356820271 0.7999999523162842
438 6.300000190734863 6.890287399291992 0.2997353363392313
439 6.190287113189697 7 0.3818191695098457
440 12.50089681884837 4.19439875507689 -4.18674106912471e-17
441 2.737225123895775 8.27058553210802 0.7999999523162842
442 6.354090138698332 8.118011114027679 0.4055505014056162
443 7.292299464929223 0.7578135266634829 0
444 11.55166211968718 4.575397719238965 0
445 8.152811359769876 8.428303881982114 0.7999999523162842
446 4.377645978682656 2.735287901178991 0.7999999523162842
447 11.21572335131902 8.212290161997098 0
448 1.469092185784789 9.841770542289725 0
449 11.70808272165095 3.71223125907313 -3.33066907387547e-16
450 5.386384196030022 3.48495917041628 0.7999999523162842
451 8.53597107603286 3.574705559446137 0
452 8.53597107603286 3.574705559446138 0.7999999523162842
453 10.78845384641566 10.14363283568447 0
454 9.504071148022144 10.92380372358214 0.7999999523162842
455 9.622354819058987 2.735288002486185 0.7999999523162842
456 6.013113502085533 5.77727274321486 0.3963118029218511
457 2.338141378774328 3.71947627802605 0
458 3.051607132487938 3.831299691875174 0
459 3.211546560694528 3.856367437636261 0.7999999523162842
460 3.864146992691472 3.958651257922338 0
461 10.46430861374331 4.413275830543989 0
462 1.716087592876067 10.37802037356438 0.7999999523162842
463 10.50538110733032 4.406838417053223 0.7999999523162842
464 2.31134692510057 10.28472376893394 0.7999999523162842
465 10.31175679958125 9.562814853677837 0
466 10.50538110733032 9.593162059783936 0.7999999523162842
467 3.494619488716125 4.406838417053223 0
468 3.494619488716125 4.406838417053223 0.7999999523162842
469 3.494619488716125 9.593162059783936 0
470 3.745770303291869 10.05990271704689 0.009066350435462693
471 7.472763228096263 11.38493537902832 0.7999999523162842
472 6.632018680049549 13.0459745103145 0.792287305598566
473 6.300763223550899 12.18716420673803 0
474 2.468837061848176 5.396888569508026 0
475 11.88639044761658 6.838656067848206 0.7999999523162842
476 6.298978505755872 12.18253716135274 0.7999999523162842
477 6.773378383103791 0.5875378215497672 0
478 11.55166193178586 9.42460265550473 0
479 6.477214565349074 2.744752768121361 0.7999999523162842
480 11.2694486844191 5.721146364088633 0
481 8.252355735792507 8.551636804845231 0
482 12.41616634534013 9.699607721692876 0.7999999523162842
483 11.90901104063299 7.157002455492316 -2.445960101127298e-16
484 7.700000286102295 6.890287399291992 0.3851983731641905
485 2.311346950537868 3.715276718345247 0.7999999523162842
486 11.28012662107498 8.292083574177079 0.7999999523162842
487 4.897610425949097 5.191286087036133 0
488 4.897610425949097 5.191286087036133 0.7999999523162842
489 6.72389699047364 4.894794775403271 0.3906649233526147
490 6.29451069299033 7.110573462719618 0.469954705638981
491 11.11049016942608 8.878001691660266 0.7999999523162842
492 11.09263781335759 5.144116913881402 0
493 10.85228205380935 3.846363335601601 -2.498001805406602e-16
494 11.20137331050077 5.805489165904944 0.7986096245096738
495 7.571456752672769 2.870936825307218 0.3728896149871623
496 3.908835500871874 10.03434506837424 0.7999999523162842
497 2.299681183012563 5.187308579805916 0.7999999523162842
498 7.278644442949322 11.88820622768303 -2.852427992781988e-16
499 6.763618524406801 11.9977765083313 0.3999999761581418
500 3.353558425187994 7.039623788398511 0.4087191119638285
501 8.863436039506736 10.80379721784282 0.4001848180645839
502 8.956667617331615 3.088440636015793 0.3999999761581421
503 10.536971245373 6.877360658282092 0.3996483085465701
504 6.770874883268157 1.98341104388237 0
505 10.13021163158305 3.959535434905446 -8.860569519675963e-17
506 8.635205590212076 5.770114954936536 0.7999999523162842
507 9.029652426831944 8.718594698829103 0.398963538620273
508 6.767238166533355 5.007160825859383 0
509 4.363069072176507 11.30672511088394 0
510 12.33370326505448 10.38582404628082 0.7999999523162842
511 2.052820523215294 4.881454604515874 5.551115123125783e-17
512 10.07759036086042 10.03221723762068 0
513 10.07759036086042 10.03221723762068 0.7999999523162842
514 7.258797883987427 4.939660549163818 0
515 7.279023915371315 4.887222720385801 0.7999999523162842
516 7.258797883987427 9.06033992767334 0
517 6.741202354431152 9.06033992767334 0.7999999523162842
518 7.236381614048131 11.9977765083313 0.7999999523162842
519 6.763618524406801 11.9977765083313 0.7999999523162842
520 9.428096688628004 3.295165587661244 0.3999999761581421
521 9.428096632354212 10.70483456212363 0.3999999761581421
522 5.102383428525527 10.84330533807929 0.388939759597316
523 3.173277544352675 5.473578999163568 0.384790906500082
524 5.152333625816766 6.204306256244202 0
525 6.586314804704029 1.072518336827096 0.427425843939487
526 12.71799501421624 10.07356561483423 0.3941352955910231
527 12.37541610905763 3.607638228742064 -3.737180226437787e-16
528 7.779018018810913 9.019676137474962 0.408842762679629
529 6.240155108116364 8.969969241997552 0.399999976158144
530 4.945565454957976 7.321997507141304 0.4269240944013419
531 5.648800668695735 5.325898463733763 0.4014077762517947
532 7.565694315271259 2.855997178410135 0.7999999523162842
533 10.80209755897522 8.495911121368408 0
534 6.237938642501831 8.975715637207031 0.7999999523162842
535 4.907949924468994 6.672107219696045 -2.168404344971009e-16
536 8.814630283276381 6.209484133171705 -1.040834085586084e-17
537 11.15449336207426 6.984943984818545 0.4072249235072017
538 9.037885005928446 8.732491583317975 0
539 8.590471375608303 5.825539484886963 0
540 5.387786615252097 8.201398341884477 0
541 10.99310782042519 7.936474717081215 0.3999999761581421
542 3.935289204120636 4.475905895233154 0.3999999761581421
543 9.950963170074868 7.968617049410465 0.4057016800283088
544 8.790302276611328 6.213297128677368 0.7999999523162842
545 5.209697961807251 6.213297128677368 0.7999999523162842
546 5.209697961807251 7.78670334815979 1.084202172485504e-16
547 5.209697961807251 7.78670334815979 0.7999999523162842
548 8.962611198425293 7.310172080993652 0.3999999761581421
549 3.208705317735871 5.51747310685201 0
550 5.426482027413334 8.15345606755549 0.7999999523162842
551 3.197902917861938 5.50408935546875 0.7999999523162842
552 4.680990195049979 4.922898746756387 0.404947629733128
553 7.000000238418579 8.054460525512695 0
554 6.965453931528884 7.968527367308528 0.7999999523162842
555 7.839332730377108 6.477652357897975 0.4759367455021204
556 6.14010270772225 6.565541399233229 0.4584397729370689
557 6.44213342666626 8.446321487426758 0.3999999761581421
558 8.551768558491169 6.756787200301954 0.410977242534673
559 6.237938642501831 8.975715637207031 1.084202172485504e-16
560 7.762061834335327 8.975715637207031 -2.168404344971009e-16
561 7.762061834335327 8.975715637207031 0.7999999523162842
562 5.670011281967163 8.647822380065918 -2.168404344971009e-16
563 5.670011281967163 8.647822380065918 0.7999999523162842
564 6.237938642501831 5.024285078048706 -2.168404344971009e-16
565 6.237938642501831 5.024285078048706 0.7999999523162842
566 7.762061834335327 5.024285078048706 0
567 4.907949924468994 7.327893257141113 -2.168404344971009e-16
568 4.907949924468994 7.327893257141113 0.7999999523162842
569 9.092050552368164 7.327893257141113 0
570 5.670011281967163 5.352177858352661 0.7999999523162842
571 8.329989194869995 5.352177858352661 -2.168404344971009e-16
572 7.865839716676585 7.49407823090649 0
573 6.975296057237074 6.061701499016219 0.7999999523162842
574 4.250489304648547 4.01920373836237 0.3999999761581421
575 7.090010657828448 8.069092941987408 0.3999999761574707
576 6.993445409781936 6.008901489973599 0.4008022108782646
577 7.895212063645232 7.480330760255455 0.3994689271032026
578 7.199508539053247 8.906627009429666 0.7999999523162842
579 10.34608856721245 7.186013579899532 0.4239085848049609
580 8.407269379684884 6.052522094185738 0.608562847161267
581 5.190947849713607 3.929106156836346 0
582 8.839270888896328 10.11237217306183 0.3893777012946543
583 10.68691545833288 7.391567256041217 -5.315754112502808e-17
584 5.12568903008856 5.47386938238604 0.4054607202280816
585 8.738408482133579 7.77856990280435 -2.360082143971646e-16
586 5.991630790813377 5.484785688268239 0.2129489492666227
587 12.0872914151074 7.122783921270912 0.7999999523162842
588 7.129398941993713 8.724861621856689 0.3999999761581421
589 6.880777094098733 8.698479624844397 0.3999999761581445
590 7.975047959262593 6.012165904649986 0.3945593352219979
591 5.020776701736733 6.689791008937335 0.4045462621761992
592 7.439538528412433 8.858477438624439 0.4338529829931145
593 1.823615551555886 4.597475570368259 0.7999999523162842
594 10.45657574872028 6.995434461740648 0.7999999523162842
595 8.877244200732388 10.81975746839894 0
596 8.871901908189864 10.81358254574781 0.7999999523162842
597 8.985783342129229 3.05478702991382 0.7999999523162842
598 8.990625019618436 3.049190744462327 0
599 5.554716050763416 6.005423009117576 0.3666463633751982
600 5.179673405767385 7.113951620838048 0.3999999761581471
601 8.793976601571021 7.125453851251916 0.4023185414435251
602 5.193568706512451 6.879983186721802 0.3999999761581421
603 6.201765613963871 5.376346138628048 0.4691222559437982
604 8.006749588431589 5.495891241608495 0.3999999761581421
605 7.824670797406009 5.356842655084475 0.4001333979938569
606 10.53119915118588 7.421454951923696 0.406209586094814
607 9.86049222946167 7.207876205444336 0.3999999761581419
608 9.858141472404219 6.789773514335371 0.4084856805700761
609 7.478442064138696 8.935096095123026 0.7999999523162842
610 5.566467576691574 7.492890520651376 0.4005342594357366
611 6.018624903272928 7.862819811123087 0.4029320197315812
612 10.42935276031494 7.537492275238037 0.3999999761581421
613 6.504243678157204 7.272782976057838 0.5459377609334426
614 10.6399556408132 7.895601424354119 0.4746233806104013
615 5.935339612754794 7.451047314867666 0.3991700675770599
616 6.056142383076539 6.211245874934658 0.3969872170844852
617 5.113796666897398 5.042155268319855 0.3992941119661836
618 10.91030850623231 7.348690054035568 0.3955566005272964
619 5.46448134408283 7.026550846530145 0.4005777104943211
620 10.99310782042519 7.936474717081215 0.7999999523162842
621 4.719630367067333 3.720932916826752 0.42468568882553
622 4.837924718856812 4.061873316764832 0.3999999761581421
623 5.663056570092831 7.223592438696149 0.4000772183453612
624 4.766161918640137 3.855043172836304 0.7999999523162842
625 5.580414577184591 5.24116984288241 0
626 7.899655509035106 6.493483597497876 0
627 7.847474840162337 6.498453835848298 0.7999999523162842
628 6.081356887177012 7.551814882597788 0.7999999523162842
629 3.291228632457777 6.612628163786535 0.3873901343516315
630 5.468515872955322 6.759966373443604 0.4057234124662372
631 5.883450508117676 6.825000286102295 0.3631583133550227
632 5.883450508117676 7.175000190734863 0.3999999761581419
633 6.290170669555664 7.87946081161499 0.3999999761581419
634 6.595143795013428 6.298768043518066 0.3999999761581419
635 7.40485668182373 6.298768043518066 0.3999999761581419
636 7.445014476776123 6.448638916015625 0.3999999761581419
637 7.645775318145752 8.118515014648438 0.3999999761581419
638 7.709829807281494 7.87946081161499 0.3999999761581419
639 4.633273839950562 4.079198598861694 0.3999999761581421
640 4.995773315429688 4.5168137550354 0.3999999761581421
641 5.468515872955322 7.240034103393555 0.3999999761581421
642 5.708450317382812 7 0.3999999761581421
643 5.796759605407715 6.305308818817139 0.3999999761581421
644 5.959311008453369 5.197473526000977 0.434233198978808
645 6.354225158691406 5.881484985351562 0.3999999761581421
646 6.44213342666626 5.5536789894104 0.4238948703585949
647 6.554986000061035 6.448638916015625 0.3999999761581421
648 6.554986000061035 7.551361560821533 0.3999999761581421
649 6.593279838562012 5.945539474487305 0.3999999761581421
650 6.593279838562012 8.054460525512695 0.3999999761581421
651 6.595143795013428 7.701232433319092 0.4012730025191862
652 6.595855236053467 7 0.3999999761581421
653 6.739762188773117 6.325309502402864 0.4000078834195797
654 6.745014190673828 7.661074638366699 0.3999999761581421
655 6.797927856445312 6.650000095367432 0.3999999761581421
656 6.797927856445312 7.350000381469727 0.3999999761581421
657 7.202072620391846 6.650000095367432 0.3999999761581421
658 7.202072620391846 7.350000381469727 0.3999999761581421
659 7.254985809326172 6.338925838470459 0.3999999761581421
660 7.254985809326172 7.661074638366699 0.3999999761581421
661 7.404145240783691 7 0.3999999761581421
662 7.40485668182373 7.701232433319092 0.3999999761581421
663 7.406720638275146 8.054460525512695 0.3999999761581421
664 7.445014476776123 7.551361560821533 0.3999999761581421
665 7.557867050170898 5.5536789894104 0.3990581104624758
666 7.557867050170898 8.446321487426758 0.3999999761581421
667 7.700000286102295 7.109713077545166 0.4000714219750369
668 7.709829807281494 6.120539665222168 0.3999999761581421
669 7.809713363647461 7 0.4152039072358858
670 7.974085538327652 8.210443391766798 0.3464491366140243
671 8.116550445556641 6.825000286102295 0.3999999761581421
672 8.116550445556641 7.175000190734863 0.3999999761581421
673 8.203240394592285 6.305308818817139 0.3999999761581421
674 8.291352477040675 7.000197206651203 0.3999999761581376
675 8.531484603881836 7.240034103393555 0.3999999761581421
676 9.260182370072046 10.22088355570966 0.418203827174998
677 10.15261650085449 7.494118690490723 0.4047864475118425
678 10.70608901977539 7.580865859985352 0.3999999761581421
679 5.796759605407715 7.69469165802002 0.3999999761581422
680 6.290170669555664 6.120539665222168 0.3999999761581422
681 7.406720638275146 5.945539474487305 0.3999999761581423
682 7.645775318145752 5.881484985351562 0.3999999761581389
683 6.135062220205905 7.48427704006841 0
684 6.205417794356541 6.461165741304504 0.7999999523162842
685 7.95162034034729 7.402202367782593 0.7999999523162842
686 6.219482341766663 6.515580631871869 0
687 6.55680919901821 6.687406634135619 0.2159416614846918
688 5.736269024214111 5.889643852532589 0
689 6.253205667704626 7.493388554102963 0.4613287017386742
690 6.483434711085563 7.275491189199576 0.2523544944198602
691 7.510094468361868 6.706291816273108 0.5929194254039875
692 7.473980008628264 6.720816869850458 0.1967838750393202
693 7.658668130783211 6.521410718993119 0.1915476190562115
$EndNodes
$Elements
1530
1 4 2 0 0 675 283 273 265
2 4 2 0 0 489 646 387 153
3 4 2 0 0 315 396 314 328
4 4 2 0 0 608 396 328 327
5 4 2 0 0 401 400 24 500
6 4 2 0 0 186 525 185 204
7 4 2 0 0 584 487 85 617
8 4 2 0 0 484 232 626 693
9 4 2 0 0 26 27 25 474
10 4 2 0 0 686 161 687 647
11 4 2 0 0 437 254 377 495
12 4 2 0 0 687 647 655 652
13 4 2 0 0 648 163 181 690
14 4 2 0 0 116 615 623 610
15 4 2 0 0 201 197 216 636
16 4 2 0 0 659 200 196 215
17 4 2 0 0 443 421 204 525
18 4 2 0 0 430 247 220 219
19 4 2 0 0 322 392 316 548
20 4 2 0 0 161 647 169 175
21 4 2 0 0 349 344 612 340
22 4 2 0 0 647 176 162 170
23 4 2 0 0 485 14 15 22
24 4 2 0 0 396 341 337 342
25 4 2 0 0 400 401 24 20
26 4 2 0 0 315 300 301 160
27 4 2 0 0 555 484 636 691
28 4 2 0 0 314 160 301 536
29 4 2 0 0 307 521 676 501
30 4 2 0 0 305 520 452 451
31 4 2 0 0 257 256 498 433
32 4 2 0 0 386 255 127 563
33 4 2 0 0 477 525 185 150
34 4 2 0 0 398 257 256 498
35 4 2 0 0 441 361 395 29
36 4 2 0 0 361 28 395 29
37 4 2 0 0 335 503 608 337
38 4 2 0 0 41 361 441 29
39 4 2 0 0 349 614 612 344
40 4 2 0 0 174 180 143 647
41 4 2 0 0 10 16 11 17
42 4 2 0 0 221 222 249 269
43 4 2 0 0 504 150 410 381
44 4 2 0 0 232 692 484 205
45 4 2 0 0 530 352 65 66
46 4 2 0 0 352 98 547 530
47 4 2 0 0 547 98 352 108
48 4 2 0 0 174 143 145 652
49 4 2 0 0 7 9 15 12
50 4 2 0 0 93 112 130 111
51 4 2 0 0 525 151 185 150
52 4 2 0 0 264 675 282 272
53 4 2 0 0 558 302 601 303
54 4 2 0 0 112 111 101 134
55 4 2 0 0 82 83 58 81
56 4 2 0 0 408 359 409 360
57 4 2 0 0 441 40 395 361
58 4 2 0 0 40 28 395 361
59 4 2 0 0 41 40 441 361
60 4 2 0 0 365 369 478 419
61 4 2 0 0 359 369 409 360
62 4 2 0 0 349 344 620 614
63 4 2 0 0 221 245 268 244
64 4 2 0 0 601 283 281 303
65 4 2 0 0 486 355 491 365
66 4 2 0 0 243 242 266 276
67 4 2 0 0 218 658 199 203
68 4 2 0 0 94 93 88 82
69 4 2 0 0 93 81 435 432
70 4 2 0 0 435 93 82 81
71 4 2 0 0 299 405 326 318
72 4 2 0 0 346 337 341 342
73 4 2 0 0 675 273 272 577
74 4 2 0 0 386 87 83 88
75 4 2 0 0 540 562 386 126
76 4 2 0 0 664 203 658 218
77 4 2 0 0 178 164 172 648
78 4 2 0 0 489 152 564 387
79 4 2 0 0 156 387 128 129
80 4 2 0 0 658 203 182 199
81 4 2 0 0 295 506 388 291
82 4 2 0 0 691 206 233 484
83 4 2 0 0 675 275 281 283
84 4 2 0 0 543 339 316 343
85 4 2 0 0 399 392 548 316
86 4 2 0 0 444 362 363 367
87 4 2 0 0 419 365 491 355
88 4 2 0 0 396 314 337 341
89 4 2 0 0 244 278 245 268
90 4 2 0 0 20 24 121 13
91 4 2 0 0 409 359 385 369
92 4 2 0 0 268 269 279 245
93 4 2 0 0 278 279 245 268
94 4 2 0 0 268 221 269 245
95 4 2 0 0 112 134 101 102
96 4 2 0 0 193 416 192 434
97 4 2 0 0 577 273 638 239
98 4 2 0 0 269 248 249 221
99 4 2 0 0 268 221 248 269
100 4 2 0 0 481 507 445 288
101 4 2 0 0 83 255 386 84
102 4 2 0 0 418 583 356 537
103 4 2 0 0 386 88 83 84
104 4 2 0 0 577 239 685 273
105 4 2 0 0 409 385 510 369
106 4 2 0 0 295 189 388 506
107 4 2 0 0 417 618 418 537
108 4 2 0 0 408 409 359 453
109 4 2 0 0 483 475 356 406
110 4 2 0 0 486 541 620 345
111 4 2 0 0 405 287 286 293
112 4 2 0 0 429 365 368 364
113 4 2 0 0 493 357 389 366
114 4 2 0 0 522 432 407 67
115 4 2 0 0 432 407 67 81
116 4 2 0 0 675 281 275 558
117 4 2 0 0 407 68 522 67
118 4 2 0 0 637 231 666 663
119 4 2 0 0 675 275 283 265
120 4 2 0 0 638 273 577 272
121 4 2 0 0 678 614 612 349
122 4 2 0 0 660 658 203 654
123 4 2 0 0 663 214 575 203
124 4 2 0 0 582 306 384 405
125 4 2 0 0 659 201 208 636
126 4 2 0 0 664 203 218 210
127 4 2 0 0 489 153 387 565
128 4 2 0 0 317 330 322 329
129 4 2 0 0 317 322 316 329
130 4 2 0 0 558 601 281 303
131 4 2 0 0 579 351 340 594
132 4 2 0 0 579 351 606 340
133 4 2 0 0 315 301 314 160
134 4 2 0 0 583 537 418 618
135 4 2 0 0 283 392 548 399
136 4 2 0 0 282 585 272 675
137 4 2 0 0 494 363 354 492
138 4 2 0 0 350 542 460 467
139 4 2 0 0 459 350 460 467
140 4 2 0 0 285 266 284 452
141 4 2 0 0 659 201 180 176
142 4 2 0 0 263 275 281 558
143 4 2 0 0 294 291 290 296
144 4 2 0 0 232 234 484 240
145 4 2 0 0 232 484 234 205
146 4 2 0 0 463 357 493 461
147 4 2 0 0 505 324 463 323
148 4 2 0 0 693 692 484 232
149 4 2 0 0 446 61 49 48
150 4 2 0 0 116 98 623 104
151 4 2 0 0 160 300 301 558
152 4 2 0 0 636 657 196 659
153 4 2 0 0 358 357 493 463
154 4 2 0 0 319 358 493 463
155 4 2 0 0 389 358 357 493
156 4 2 0 0 285 290 296 284
157 4 2 0 0 277 266 276 243
158 4 2 0 0 40 41 44 403
159 4 2 0 0 40 403 44 65
160 4 2 0 0 425 312 313 502
161 4 2 0 0 525 477 185 443
162 4 2 0 0 324 319 309 505
163 4 2 0 0 362 366 367 444
164 4 2 0 0 396 337 338 342
165 4 2 0 0 455 502 313 597
166 4 2 0 0 204 184 421 183
167 4 2 0 0 285 284 266 246
168 4 2 0 0 464 17 16 23
169 4 2 0 0 525 443 185 204
170 4 2 0 0 425 332 312 331
171 4 2 0 0 480 341 342 346
172 4 2 0 0 416 257 498 433
173 4 2 0 0 416 433 498 192
174 4 2 0 0 295 294 296 291
175 4 2 0 0 444 363 362 492
176 4 2 0 0 347 337 342 338
177 4 2 0 0 425 313 455 502
178 4 2 0 0 469 404 23 31
179 4 2 0 0 363 354 444 367
180 4 2 0 0 267 266 247 285
181 4 2 0 0 455 313 425 332
182 4 2 0 0 388 290 571 294
183 4 2 0 0 388 189 294 539
184 4 2 0 0 389 367 357 358
185 4 2 0 0 389 390 366 367
186 4 2 0 0 335 337 608 327
187 4 2 0 0 347 342 337 346
188 4 2 0 0 309 308 296 324
189 4 2 0 0 300 544 558 160
190 4 2 0 0 285 291 296 290
191 4 2 0 0 424 390 367 366
192 4 2 0 0 437 377 227 378
193 4 2 0 0 390 449 366 527
194 4 2 0 0 590 673 555 271
195 4 2 0 0 604 259 605 258
196 4 2 0 0 233 241 484 235
197 4 2 0 0 295 291 296 297
198 4 2 0 0 201 216 208 636
199 4 2 0 0 229 665 251 224
200 4 2 0 0 653 176 655 647
201 4 2 0 0 285 246 266 247
202 4 2 0 0 693 626 236 215
203 4 2 0 0 233 235 484 206
204 4 2 0 0 691 661 206 484
205 4 2 0 0 88 83 84 82
206 4 2 0 0 206 667 235 484
207 4 2 0 0 555 484 691 233
208 4 2 0 0 451 304 305 520
209 4 2 0 0 659 197 201 636
210 4 2 0 0 201 197 659 180
211 4 2 0 0 219 266 246 247
212 4 2 0 0 285 296 291 297
213 4 2 0 0 128 129 109 156
214 4 2 0 0 296 309 324 297
215 4 2 0 0 505 324 319 463
216 4 2 0 0 220 266 219 247
217 4 2 0 0 243 267 277 266
218 4 2 0 0 451 452 305 284
219 4 2 0 0 451 304 520 598
220 4 2 0 0 430 219 514 246
221 4 2 0 0 266 220 243 267
222 4 2 0 0 219 266 220 243
223 4 2 0 0 219 242 266 243
224 4 2 0 0 266 247 220 267
225 4 2 0 0 395 29 18 19
226 4 2 0 0 98 78 602 96
227 4 2 0 0 581 640 91 79
228 4 2 0 0 456 152 124 146
229 4 2 0 0 103 113 642 95
230 4 2 0 0 185 227 437 186
231 4 2 0 0 446 60 428 62
232 4 2 0 0 86 80 552 640
233 4 2 0 0 446 61 60 62
234 4 2 0 0 132 110 100 133
235 4 2 0 0 99 109 110 132
236 4 2 0 0 427 599 456 688
237 4 2 0 0 642 96 631 114
238 4 2 0 0 554 214 203 575
239 4 2 0 0 356 503 337 353
240 4 2 0 0 116 623 615 632
241 4 2 0 0 116 632 104 623
242 4 2 0 0 423 192 476 473
243 4 2 0 0 476 192 193 499
244 4 2 0 0 7 12 15 14
245 4 2 0 0 485 21 14 22
246 4 2 0 0 7 8 15 9
247 4 2 0 0 21 459 22 485
248 4 2 0 0 428 60 446 48
249 4 2 0 0 446 60 61 48
250 4 2 0 0 457 21 14 485
251 4 2 0 0 524 105 95 643
252 4 2 0 0 376 80 92 640
253 4 2 0 0 132 157 110 133
254 4 2 0 0 576 212 201 573
255 4 2 0 0 99 110 100 132
256 4 2 0 0 485 15 14 7
257 4 2 0 0 52 53 64 76
258 4 2 0 0 412 32 33 46
259 4 2 0 0 153 147 166 646
260 4 2 0 0 187 665 514 223
261 4 2 0 0 52 53 43 64
262 4 2 0 0 480 492 342 341
263 4 2 0 0 138 616 686 105
264 4 2 0 0 494 492 342 480
265 4 2 0 0 382 192 473 499
266 4 2 0 0 200 681 576 211
267 4 2 0 0 174 655 180 647
268 4 2 0 0 98 641 619 600
269 4 2 0 0 125 153 603 646
270 4 2 0 0 456 125 646 147
271 4 2 0 0 640 376 581 91
272 4 2 0 0 157 393 489 129
273 4 2 0 0 159 158 517 131
274 4 2 0 0 105 631 113 95
275 4 2 0 0 182 613 652 174
276 4 2 0 0 439 145 137 143
277 4 2 0 0 646 166 188 576
278 4 2 0 0 646 576 188 187
279 4 2 0 0 646 456 603 125
280 4 2 0 0 125 153 118 603
281 4 2 0 0 639 71 56 79
282 4 2 0 0 38 25 523 39
283 4 2 0 0 412 52 42 46
284 4 2 0 0 82 58 83 59
285 4 2 0 0 82 83 84 59
286 4 2 0 0 602 619 95 97
287 4 2 0 0 412 53 43 52
288 4 2 0 0 47 500 412 43
289 4 2 0 0 104 623 619 98
290 4 2 0 0 108 610 615 116
291 4 2 0 0 45 33 44 412
292 4 2 0 0 554 191 650 168
293 4 2 0 0 154 557 126 442
294 4 2 0 0 195 434 472 194
295 4 2 0 0 472 434 423 194
296 4 2 0 0 135 134 159 112
297 4 2 0 0 97 619 95 103
298 4 2 0 0 126 154 442 148
299 4 2 0 0 148 442 167 154
300 4 2 0 0 18 28 426 29
301 4 2 0 0 395 40 441 36
302 4 2 0 0 448 11 3 4
303 4 2 0 0 426 16 18 17
304 4 2 0 0 131 130 112 158
305 4 2 0 0 135 134 112 102
306 4 2 0 0 410 381 150 380
307 4 2 0 0 380 151 150 410
308 4 2 0 0 379 380 150 381
309 4 2 0 0 164 174 613 182
310 4 2 0 0 416 415 434 193
311 4 2 0 0 416 434 433 192
312 4 2 0 0 123 122 134 101
313 4 2 0 0 131 130 93 112
314 4 2 0 0 407 522 435 432
315 4 2 0 0 500 47 412 45
316 4 2 0 0 464 16 17 11
317 4 2 0 0 395 29 28 18
318 4 2 0 0 23 31 404 464
319 4 2 0 0 613 652 174 145
320 4 2 0 0 390 389 366 449
321 4 2 0 0 496 58 74 59
322 4 2 0 0 412 46 33 44
323 4 2 0 0 448 10 11 4
324 4 2 0 0 11 10 17 462
325 4 2 0 0 412 42 32 46
326 4 2 0 0 37 36 41 44
327 4 2 0 0 45 44 37 41
328 4 2 0 0 44 41 40 36
329 4 2 0 0 490 615 116 689
330 4 2 0 0 164 648 178 182
331 4 2 0 0 652 173 142 144
332 4 2 0 0 104 642 619 623
333 4 2 0 0 438 686 113 142
334 4 2 0 0 652 647 655 174
335 4 2 0 0 173 687 142 179
336 4 2 0 0 652 687 142 173
337 4 2 0 0 185 150 410 504
338 4 2 0 0 652 647 174 143
339 4 2 0 0 652 173 144 690
340 4 2 0 0 182 613 656 652
341 4 2 0 0 178 648 172 654
342 4 2 0 0 178 654 203 182
343 4 2 0 0 112 158 130 111
344 4 2 0 0 159 131 112 158
345 4 2 0 0 112 134 158 111
346 4 2 0 0 82 58 73 81
347 4 2 0 0 82 81 93 87
348 4 2 0 0 88 93 87 82
349 4 2 0 0 74 73 58 496
350 4 2 0 0 82 83 81 87
351 4 2 0 0 88 83 82 87
352 4 2 0 0 379 133 381 132
353 4 2 0 0 379 133 380 381
354 4 2 0 0 479 381 380 133
355 4 2 0 0 435 93 112 94
356 4 2 0 0 94 112 131 93
357 4 2 0 0 112 159 158 134
358 4 2 0 0 104 114 96 642
359 4 2 0 0 155 442 127 557
360 4 2 0 0 613 689 690 490
361 4 2 0 0 127 442 155 149
362 4 2 0 0 628 141 611 108
363 4 2 0 0 464 404 23 402
364 4 2 0 0 66 55 403 54
365 4 2 0 0 411 17 31 23
366 4 2 0 0 17 19 18 29
367 4 2 0 0 426 17 18 29
368 4 2 0 0 464 402 16 11
369 4 2 0 0 462 464 17 11
370 4 2 0 0 68 420 69 67
371 4 2 0 0 420 509 69 67
372 4 2 0 0 420 69 509 50
373 4 2 0 0 69 522 68 67
374 4 2 0 0 471 257 398 498
375 4 2 0 0 24 629 500 43
376 4 2 0 0 47 24 500 43
377 4 2 0 0 400 500 47 24
378 4 2 0 0 518 416 498 193
379 4 2 0 0 410 381 380 479
380 4 2 0 0 519 499 476 193
381 4 2 0 0 405 326 310 311
382 4 2 0 0 422 321 320 501
383 4 2 0 0 513 326 311 512
384 4 2 0 0 369 385 368 359
385 4 2 0 0 453 513 466 408
386 4 2 0 0 412 44 54 46
387 4 2 0 0 412 55 54 44
388 4 2 0 0 412 55 45 47
389 4 2 0 0 412 55 44 45
390 4 2 0 0 357 366 367 389
391 4 2 0 0 389 366 449 493
392 4 2 0 0 319 358 389 493
393 4 2 0 0 505 324 323 308
394 4 2 0 0 505 324 308 309
395 4 2 0 0 438 631 556 114
396 4 2 0 0 454 321 501 596
397 4 2 0 0 413 268 286 414
398 4 2 0 0 436 186 227 204
399 4 2 0 0 186 227 204 185
400 4 2 0 0 443 204 227 185
401 4 2 0 0 437 436 227 377
402 4 2 0 0 443 183 421 477
403 4 2 0 0 443 183 204 421
404 4 2 0 0 424 373 390 440
405 4 2 0 0 440 390 527 372
406 4 2 0 0 448 16 11 10
407 4 2 0 0 526 385 482 510
408 4 2 0 0 526 374 385 510
409 4 2 0 0 308 296 324 323
410 4 2 0 0 537 583 356 503
411 4 2 0 0 583 503 537 618
412 4 2 0 0 594 503 579 351
413 4 2 0 0 338 337 608 503
414 4 2 0 0 324 323 296 294
415 4 2 0 0 441 395 19 29
416 4 2 0 0 423 192 472 476
417 4 2 0 0 472 192 193 476
418 4 2 0 0 195 415 472 434
419 4 2 0 0 56 640 639 79
420 4 2 0 0 494 363 492 480
421 4 2 0 0 480 363 492 362
422 4 2 0 0 403 45 55 66
423 4 2 0 0 41 66 45 403
424 4 2 0 0 66 54 403 65
425 4 2 0 0 608 338 396 337
426 4 2 0 0 396 338 328 315
427 4 2 0 0 396 327 337 314
428 4 2 0 0 396 342 338 315
429 4 2 0 0 396 327 314 328
430 4 2 0 0 397 38 42 63
431 4 2 0 0 63 52 397 64
432 4 2 0 0 397 39 43 35
433 4 2 0 0 440 373 390 372
434 4 2 0 0 508 156 489 564
435 4 2 0 0 417 587 475 483
436 4 2 0 0 486 345 447 541
437 4 2 0 0 393 153 489 565
438 4 2 0 0 559 394 529 154
439 4 2 0 0 82 58 59 74
440 4 2 0 0 82 58 74 73
441 4 2 0 0 438 652 143 647
442 4 2 0 0 420 51 70 50
443 4 2 0 0 442 633 141 611
444 4 2 0 0 226 666 261 253
445 4 2 0 0 670 260 666 261
446 4 2 0 0 252 670 225 230
447 4 2 0 0 670 288 481 445
448 4 2 0 0 670 253 273 445
449 4 2 0 0 500 45 412 33
450 4 2 0 0 451 452 284 266
451 4 2 0 0 470 31 469 496
452 4 2 0 0 73 469 58 496
453 4 2 0 0 464 17 23 31
454 4 2 0 0 16 23 402 464
455 4 2 0 0 526 510 482 375
456 4 2 0 0 526 374 510 375
457 4 2 0 0 405 287 299 384
458 4 2 0 0 431 5 13 6
459 4 2 0 0 27 14 15 511
460 4 2 0 0 26 27 511 14
461 4 2 0 0 249 561 222 528
462 4 2 0 0 221 249 528 248
463 4 2 0 0 126 140 442 611
464 4 2 0 0 543 339 329 316
465 4 2 0 0 466 465 512 453
466 4 2 0 0 410 150 185 151
467 4 2 0 0 410 151 185 186
468 4 2 0 0 335 339 329 607
469 4 2 0 0 484 671 555 262
470 4 2 0 0 577 273 265 675
471 4 2 0 0 484 555 671 233
472 4 2 0 0 671 555 263 233
473 4 2 0 0 646 146 165 152
474 4 2 0 0 646 166 153 188
475 4 2 0 0 676 521 306 501
476 4 2 0 0 268 286 414 269
477 4 2 0 0 254 277 276 243
478 4 2 0 0 254 276 242 243
479 4 2 0 0 242 276 254 377
480 4 2 0 0 225 213 666 190
481 4 2 0 0 365 355 419 478
482 4 2 0 0 478 364 368 365
483 4 2 0 0 478 365 355 364
484 4 2 0 0 478 369 365 368
485 4 2 0 0 204 421 186 525
486 4 2 0 0 477 421 443 525
487 4 2 0 0 490 632 116 615
488 4 2 0 0 613 689 145 164
489 4 2 0 0 425 313 312 332
490 4 2 0 0 422 501 454 321
491 4 2 0 0 422 334 333 320
492 4 2 0 0 422 320 321 334
493 4 2 0 0 422 454 334 321
494 4 2 0 0 424 367 363 362
495 4 2 0 0 424 366 367 362
496 4 2 0 0 440 366 424 362
497 4 2 0 0 26 25 30 474
498 4 2 0 0 497 27 15 511
499 4 2 0 0 581 622 376 640
500 4 2 0 0 640 376 91 92
501 4 2 0 0 86 80 488 552
502 4 2 0 0 531 599 456 427
503 4 2 0 0 463 461 493 505
504 4 2 0 0 453 513 512 466
505 4 2 0 0 369 385 482 368
506 4 2 0 0 482 365 369 368
507 4 2 0 0 411 23 31 469
508 4 2 0 0 383 382 122 476
509 4 2 0 0 476 192 499 473
510 4 2 0 0 383 122 123 476
511 4 2 0 0 471 416 257 498
512 4 2 0 0 507 292 405 325
513 4 2 0 0 496 469 58 59
514 4 2 0 0 230 670 238 252
515 4 2 0 0 430 514 665 223
516 4 2 0 0 498 416 192 193
517 4 2 0 0 505 319 493 463
518 4 2 0 0 73 470 469 496
519 4 2 0 0 401 400 500 33
520 4 2 0 0 81 407 435 432
521 4 2 0 0 432 112 93 111
522 4 2 0 0 432 93 112 435
523 4 2 0 0 435 522 68 70
524 4 2 0 0 68 522 69 70
525 4 2 0 0 435 81 82 407
526 4 2 0 0 435 522 407 68
527 4 2 0 0 435 82 93 94
528 4 2 0 0 474 497 27 25
529 4 2 0 0 38 25 30 523
530 4 2 0 0 38 523 30 549
531 4 2 0 0 458 459 21 485
532 4 2 0 0 234 484 240 669
533 4 2 0 0 672 265 577 235
534 4 2 0 0 490 683 690 144
535 4 2 0 0 652 145 490 439
536 4 2 0 0 439 144 142 136
537 4 2 0 0 439 438 652 143
538 4 2 0 0 411 469 31 496
539 4 2 0 0 496 469 59 411
540 4 2 0 0 66 65 530 54
541 4 2 0 0 490 652 439 144
542 4 2 0 0 437 532 254 495
543 4 2 0 0 185 437 227 378
544 4 2 0 0 437 254 436 377
545 4 2 0 0 453 359 385 409
546 4 2 0 0 688 456 427 124
547 4 2 0 0 295 291 388 294
548 4 2 0 0 494 492 354 342
549 4 2 0 0 294 388 290 291
550 4 2 0 0 584 487 617 488
551 4 2 0 0 439 652 145 143
552 4 2 0 0 652 439 142 438
553 4 2 0 0 583 335 337 503
554 4 2 0 0 438 142 652 687
555 4 2 0 0 438 142 687 686
556 4 2 0 0 438 687 652 647
557 4 2 0 0 556 680 647 684
558 4 2 0 0 439 652 142 144
559 4 2 0 0 288 292 507 538
560 4 2 0 0 412 43 53 47
561 4 2 0 0 359 408 466 360
562 4 2 0 0 453 465 359 466
563 4 2 0 0 453 466 359 408
564 4 2 0 0 468 459 22 21
565 4 2 0 0 459 468 467 21
566 4 2 0 0 251 224 604 259
567 4 2 0 0 250 223 258 604
568 4 2 0 0 531 89 599 427
569 4 2 0 0 89 90 584 531
570 4 2 0 0 295 324 296 294
571 4 2 0 0 693 232 626 215
572 4 2 0 0 20 121 6 13
573 4 2 0 0 20 431 13 6
574 4 2 0 0 417 475 537 483
575 4 2 0 0 353 537 417 475
576 4 2 0 0 231 273 670 253
577 4 2 0 0 670 666 253 261
578 4 2 0 0 507 445 289 293
579 4 2 0 0 273 638 239 231
580 4 2 0 0 405 326 311 299
581 4 2 0 0 472 193 192 434
582 4 2 0 0 405 310 325 298
583 4 2 0 0 495 243 254 242
584 4 2 0 0 242 377 495 378
585 4 2 0 0 325 318 326 405
586 4 2 0 0 293 318 507 405
587 4 2 0 0 436 437 227 186
588 4 2 0 0 476 473 499 382
589 4 2 0 0 382 473 122 476
590 4 2 0 0 383 499 382 476
591 4 2 0 0 444 363 492 354
592 4 2 0 0 587 371 475 370
593 4 2 0 0 483 587 475 370
594 4 2 0 0 483 475 406 370
595 4 2 0 0 486 355 365 364
596 4 2 0 0 355 364 486 447
597 4 2 0 0 223 665 211 187
598 4 2 0 0 345 533 447 343
599 4 2 0 0 158 131 130 517
600 4 2 0 0 284 304 296 305
601 4 2 0 0 130 158 517 394
602 4 2 0 0 305 285 297 296
603 4 2 0 0 305 285 296 284
604 4 2 0 0 355 345 447 486
605 4 2 0 0 99 100 379 132
606 4 2 0 0 132 100 379 133
607 4 2 0 0 379 100 380 133
608 4 2 0 0 611 442 127 141
609 4 2 0 0 517 131 529 534
610 4 2 0 0 247 430 515 224
611 4 2 0 0 524 535 52 591
612 4 2 0 0 327 608 396 337
613 4 2 0 0 335 336 608 503
614 4 2 0 0 109 581 376 91
615 4 2 0 0 305 285 284 452
616 4 2 0 0 451 284 305 304
617 4 2 0 0 452 285 266 267
618 4 2 0 0 9 12 7 1
619 4 2 0 0 220 219 514 430
620 4 2 0 0 9 1 8 2
621 4 2 0 0 9 8 1 7
622 4 2 0 0 430 247 219 246
623 4 2 0 0 430 515 514 220
624 4 2 0 0 397 52 43 64
625 4 2 0 0 397 42 43 52
626 4 2 0 0 139 125 456 147
627 4 2 0 0 89 599 427 688
628 4 2 0 0 616 139 456 680
629 4 2 0 0 138 146 456 124
630 4 2 0 0 460 467 458 459
631 4 2 0 0 350 542 467 468
632 4 2 0 0 350 57 542 468
633 4 2 0 0 485 14 457 7
634 4 2 0 0 460 71 56 574
635 4 2 0 0 485 8 15 7
636 4 2 0 0 109 450 581 391
637 4 2 0 0 376 581 109 450
638 4 2 0 0 132 157 109 110
639 4 2 0 0 109 129 110 157
640 4 2 0 0 129 156 157 109
641 4 2 0 0 132 109 157 156
642 4 2 0 0 537 503 356 353
643 4 2 0 0 417 351 537 353
644 4 2 0 0 503 353 537 351
645 4 2 0 0 256 257 245 279
646 4 2 0 0 278 245 279 256
647 4 2 0 0 471 398 257 245
648 4 2 0 0 398 256 257 245
649 4 2 0 0 383 122 382 134
650 4 2 0 0 383 123 134 135
651 4 2 0 0 383 122 134 123
652 4 2 0 0 265 685 273 577
653 4 2 0 0 400 47 500 45
654 4 2 0 0 400 45 500 33
655 4 2 0 0 442 168 155 149
656 4 2 0 0 442 168 650 155
657 4 2 0 0 501 454 521 422
658 4 2 0 0 338 337 503 353
659 4 2 0 0 501 307 521 454
660 4 2 0 0 305 597 452 520
661 4 2 0 0 502 520 597 455
662 4 2 0 0 502 520 455 425
663 4 2 0 0 430 246 514 566
664 4 2 0 0 467 21 458 459
665 4 2 0 0 128 129 91 109
666 4 2 0 0 271 590 251 237
667 4 2 0 0 523 25 30 26
668 4 2 0 0 549 523 30 26
669 4 2 0 0 153 125 147 646
670 4 2 0 0 147 680 645 456
671 4 2 0 0 147 139 680 456
672 4 2 0 0 517 191 155 557
673 4 2 0 0 482 429 365 368
674 4 2 0 0 481 292 293 507
675 4 2 0 0 537 475 356 483
676 4 2 0 0 353 356 537 475
677 4 2 0 0 418 537 356 483
678 4 2 0 0 392 317 322 316
679 4 2 0 0 502 451 452 520
680 4 2 0 0 502 598 520 425
681 4 2 0 0 293 507 445 481
682 4 2 0 0 289 507 288 445
683 4 2 0 0 376 91 92 109
684 4 2 0 0 92 450 109 110
685 4 2 0 0 376 109 92 450
686 4 2 0 0 109 129 91 92
687 4 2 0 0 110 129 109 92
688 4 2 0 0 160 558 301 280
689 4 2 0 0 490 683 144 115
690 4 2 0 0 70 50 69 420
691 4 2 0 0 86 584 488 570
692 4 2 0 0 584 570 86 531
693 4 2 0 0 652 144 490 690
694 4 2 0 0 652 613 490 145
695 4 2 0 0 322 316 329 548
696 4 2 0 0 530 352 97 567
697 4 2 0 0 530 610 352 98
698 4 2 0 0 295 189 294 388
699 4 2 0 0 536 160 280 270
700 4 2 0 0 187 489 188 646
701 4 2 0 0 646 188 153 489
702 4 2 0 0 187 508 489 152
703 4 2 0 0 225 592 516 588
704 4 2 0 0 225 516 190 588
705 4 2 0 0 517 191 557 589
706 4 2 0 0 481 292 507 288
707 4 2 0 0 500 412 43 629
708 4 2 0 0 43 412 42 629
709 4 2 0 0 317 340 543 344
710 4 2 0 0 384 287 307 582
711 4 2 0 0 322 283 392 548
712 4 2 0 0 625 531 584 85
713 4 2 0 0 625 584 487 85
714 4 2 0 0 593 15 9 12
715 4 2 0 0 511 15 593 12
716 4 2 0 0 288 289 445 273
717 4 2 0 0 413 286 306 582
718 4 2 0 0 298 286 405 306
719 4 2 0 0 405 286 582 306
720 4 2 0 0 414 582 307 287
721 4 2 0 0 307 287 384 299
722 4 2 0 0 459 350 467 468
723 4 2 0 0 578 516 222 592
724 4 2 0 0 352 610 679 108
725 4 2 0 0 165 211 576 187
726 4 2 0 0 165 175 576 211
727 4 2 0 0 425 312 502 598
728 4 2 0 0 422 595 501 320
729 4 2 0 0 576 188 573 166
730 4 2 0 0 553 650 190 167
731 4 2 0 0 177 654 553 167
732 4 2 0 0 650 191 554 575
733 4 2 0 0 67 69 522 432
734 4 2 0 0 68 69 420 70
735 4 2 0 0 127 611 255 126
736 4 2 0 0 442 611 127 126
737 4 2 0 0 386 127 255 126
738 4 2 0 0 251 189 388 250
739 4 2 0 0 463 461 505 323
740 4 2 0 0 590 665 250 251
741 4 2 0 0 250 665 604 251
742 4 2 0 0 251 590 189 250
743 4 2 0 0 557 154 529 394
744 4 2 0 0 442 650 154 557
745 4 2 0 0 523 39 25 551
746 4 2 0 0 523 27 25 26
747 4 2 0 0 673 558 160 280
748 4 2 0 0 470 404 469 31
749 4 2 0 0 650 191 155 168
750 4 2 0 0 650 557 155 191
751 4 2 0 0 154 650 167 190
752 4 2 0 0 154 190 557 650
753 4 2 0 0 525 186 185 151
754 4 2 0 0 525 421 186 151
755 4 2 0 0 594 353 503 351
756 4 2 0 0 82 68 435 407
757 4 2 0 0 417 351 618 537
758 4 2 0 0 503 537 618 351
759 4 2 0 0 264 577 572 234
760 4 2 0 0 211 576 200 175
761 4 2 0 0 572 577 217 234
762 4 2 0 0 177 553 654 202
763 4 2 0 0 576 166 573 176
764 4 2 0 0 440 366 390 424
765 4 2 0 0 440 390 366 527
766 4 2 0 0 178 168 554 654
767 4 2 0 0 429 385 368 482
768 4 2 0 0 510 385 482 369
769 4 2 0 0 11 10 462 4
770 4 2 0 0 472 192 423 434
771 4 2 0 0 415 193 472 434
772 4 2 0 0 528 592 222 516
773 4 2 0 0 221 528 516 248
774 4 2 0 0 130 131 529 517
775 4 2 0 0 245 398 256 244
776 4 2 0 0 54 66 55 530
777 4 2 0 0 546 97 352 567
778 4 2 0 0 431 500 32 33
779 4 2 0 0 532 243 254 495
780 4 2 0 0 531 90 570 456
781 4 2 0 0 531 599 90 456
782 4 2 0 0 90 125 456 106
783 4 2 0 0 599 90 456 106
784 4 2 0 0 539 189 270 250
785 4 2 0 0 189 590 270 250
786 4 2 0 0 189 673 270 590
787 4 2 0 0 189 580 673 590
788 4 2 0 0 251 580 189 590
789 4 2 0 0 506 580 189 251
790 4 2 0 0 255 108 611 127
791 4 2 0 0 255 108 127 550
792 4 2 0 0 255 108 679 611
793 4 2 0 0 540 255 107 126
794 4 2 0 0 255 611 107 126
795 4 2 0 0 83 255 540 386
796 4 2 0 0 255 679 107 611
797 4 2 0 0 450 61 62 60
798 4 2 0 0 125 603 118 456
799 4 2 0 0 456 603 118 644
800 4 2 0 0 273 392 283 399
801 4 2 0 0 570 90 125 456
802 4 2 0 0 630 545 524 643
803 4 2 0 0 106 545 96 643
804 4 2 0 0 586 603 644 117
805 4 2 0 0 117 586 152 124
806 4 2 0 0 586 603 117 152
807 4 2 0 0 447 541 343 348
808 4 2 0 0 349 678 614 541
809 4 2 0 0 92 624 80 376
810 4 2 0 0 624 622 80 376
811 4 2 0 0 457 458 21 485
812 4 2 0 0 315 300 160 544
813 4 2 0 0 673 160 270 280
814 4 2 0 0 599 106 456 616
815 4 2 0 0 106 139 456 616
816 4 2 0 0 256 245 244 278
817 4 2 0 0 106 125 456 139
818 4 2 0 0 494 346 342 347
819 4 2 0 0 542 56 460 467
820 4 2 0 0 574 56 460 542
821 4 2 0 0 271 281 673 263
822 4 2 0 0 544 281 558 673
823 4 2 0 0 673 544 160 558
824 4 2 0 0 673 281 558 263
825 4 2 0 0 271 281 544 673
826 4 2 0 0 524 643 95 630
827 4 2 0 0 579 351 618 606
828 4 2 0 0 583 337 356 503
829 4 2 0 0 579 503 618 351
830 4 2 0 0 198 658 205 217
831 4 2 0 0 205 217 658 234
832 4 2 0 0 205 658 667 234
833 4 2 0 0 234 217 658 664
834 4 2 0 0 234 667 664 658
835 4 2 0 0 664 235 218 206
836 4 2 0 0 206 667 664 235
837 4 2 0 0 567 546 65 352
838 4 2 0 0 206 664 658 218
839 4 2 0 0 568 98 530 547
840 4 2 0 0 664 667 206 658
841 4 2 0 0 658 218 199 206
842 4 2 0 0 541 614 349 620
843 4 2 0 0 541 345 447 343
844 4 2 0 0 574 542 460 350
845 4 2 0 0 72 57 574 350
846 4 2 0 0 548 399 316 585
847 4 2 0 0 548 675 585 282
848 4 2 0 0 548 316 329 569
849 4 2 0 0 255 550 127 563
850 4 2 0 0 63 42 397 52
851 4 2 0 0 403 55 44 54
852 4 2 0 0 44 45 55 403
853 4 2 0 0 41 403 45 44
854 4 2 0 0 403 54 44 65
855 4 2 0 0 673 262 280 270
856 4 2 0 0 626 262 555 673
857 4 2 0 0 270 262 626 673
858 4 2 0 0 86 617 488 584
859 4 2 0 0 673 558 280 262
860 4 2 0 0 86 531 617 584
861 4 2 0 0 673 262 555 671
862 4 2 0 0 673 558 262 671
863 4 2 0 0 271 673 555 263
864 4 2 0 0 673 671 555 263
865 4 2 0 0 673 558 671 263
866 4 2 0 0 466 326 512 465
867 4 2 0 0 513 326 512 466
868 4 2 0 0 523 551 25 27
869 4 2 0 0 345 355 447 533
870 4 2 0 0 506 189 388 251
871 4 2 0 0 234 577 217 664
872 4 2 0 0 234 577 664 667
873 4 2 0 0 508 564 489 152
874 4 2 0 0 664 577 235 667
875 4 2 0 0 664 577 218 235
876 4 2 0 0 221 245 222 269
877 4 2 0 0 552 640 56 79
878 4 2 0 0 292 298 286 405
879 4 2 0 0 405 287 293 299
880 4 2 0 0 293 318 405 299
881 4 2 0 0 271 555 627 263
882 4 2 0 0 590 555 237 271
883 4 2 0 0 556 106 114 631
884 4 2 0 0 647 143 684 162
885 4 2 0 0 438 143 556 647
886 4 2 0 0 631 106 643 556
887 4 2 0 0 130 394 529 559
888 4 2 0 0 516 528 225 560
889 4 2 0 0 561 226 609 528
890 4 2 0 0 83 87 386 562
891 4 2 0 0 563 88 386 84
892 4 2 0 0 156 564 128 387
893 4 2 0 0 489 565 387 129
894 4 2 0 0 393 565 489 129
895 4 2 0 0 430 566 514 223
896 4 2 0 0 530 65 567 54
897 4 2 0 0 530 66 55 568
898 4 2 0 0 548 316 569 585
899 4 2 0 0 388 571 539 294
900 4 2 0 0 506 251 388 291
901 4 2 0 0 418 417 537 483
902 4 2 0 0 14 15 511 12
903 4 2 0 0 474 497 511 27
904 4 2 0 0 511 15 497 593
905 4 2 0 0 26 27 474 511
906 4 2 0 0 554 575 203 654
907 4 2 0 0 213 575 190 553
908 4 2 0 0 654 575 203 660
909 4 2 0 0 575 213 190 666
910 4 2 0 0 575 666 214 663
911 4 2 0 0 659 576 201 176
912 4 2 0 0 649 176 576 653
913 4 2 0 0 187 211 576 665
914 4 2 0 0 576 681 665 211
915 4 2 0 0 264 577 272 572
916 4 2 0 0 638 239 218 577
917 4 2 0 0 238 577 572 272
918 4 2 0 0 588 516 578 592
919 4 2 0 0 607 579 340 336
920 4 2 0 0 338 503 608 336
921 4 2 0 0 503 336 579 335
922 4 2 0 0 335 579 583 339
923 4 2 0 0 335 503 583 579
924 4 2 0 0 83 562 386 540
925 4 2 0 0 388 189 539 250
926 4 2 0 0 388 571 250 539
927 4 2 0 0 581 450 621 391
928 4 2 0 0 376 621 581 450
929 4 2 0 0 307 676 384 582
930 4 2 0 0 307 501 676 582
931 4 2 0 0 384 287 582 405
932 4 2 0 0 286 405 582 287
933 4 2 0 0 401 500 24 431
934 4 2 0 0 500 412 32 33
935 4 2 0 0 401 500 431 33
936 4 2 0 0 512 326 325 465
937 4 2 0 0 675 585 272 399
938 4 2 0 0 581 621 75 391
939 4 2 0 0 622 75 581 621
940 4 2 0 0 512 326 311 310
941 4 2 0 0 665 515 224 188
942 4 2 0 0 188 515 514 665
943 4 2 0 0 225 588 190 666
944 4 2 0 0 191 588 578 226
945 4 2 0 0 575 190 650 191
946 4 2 0 0 394 190 589 557
947 4 2 0 0 397 64 43 39
948 4 2 0 0 317 329 543 330
949 4 2 0 0 317 543 329 316
950 4 2 0 0 543 330 340 317
951 4 2 0 0 524 95 591 630
952 4 2 0 0 670 273 288 445
953 4 2 0 0 273 670 288 272
954 4 2 0 0 590 665 251 229
955 4 2 0 0 228 236 682 590
956 4 2 0 0 236 590 250 270
957 4 2 0 0 524 95 535 591
958 4 2 0 0 530 65 352 567
959 4 2 0 0 352 547 66 530
960 4 2 0 0 66 568 530 547
961 4 2 0 0 430 515 224 665
962 4 2 0 0 666 226 592 588
963 4 2 0 0 578 592 609 226
964 4 2 0 0 528 226 609 592
965 4 2 0 0 588 592 578 226
966 4 2 0 0 528 226 592 666
967 4 2 0 0 517 394 589 557
968 4 2 0 0 589 191 557 190
969 4 2 0 0 386 255 563 84
970 4 2 0 0 255 550 563 84
971 4 2 0 0 338 353 503 594
972 4 2 0 0 338 503 336 594
973 4 2 0 0 503 336 594 579
974 4 2 0 0 86 617 85 640
975 4 2 0 0 552 487 85 79
976 4 2 0 0 352 97 107 610
977 4 2 0 0 546 97 107 352
978 4 2 0 0 328 300 301 315
979 4 2 0 0 328 301 314 315
980 4 2 0 0 328 327 314 301
981 4 2 0 0 96 545 630 643
982 4 2 0 0 545 76 96 591
983 4 2 0 0 96 591 630 545
984 4 2 0 0 428 621 391 75
985 4 2 0 0 450 62 621 391
986 4 2 0 0 450 60 62 391
987 4 2 0 0 428 62 60 391
988 4 2 0 0 413 582 306 501
989 4 2 0 0 501 414 413 582
990 4 2 0 0 501 306 413 595
991 4 2 0 0 307 501 582 414
992 4 2 0 0 307 596 501 414
993 4 2 0 0 344 543 612 340
994 4 2 0 0 72 639 57 80
995 4 2 0 0 574 57 72 639
996 4 2 0 0 552 57 56 640
997 4 2 0 0 80 57 552 640
998 4 2 0 0 552 56 487 79
999 4 2 0 0 86 552 488 617
1000 4 2 0 0 252 260 225 670
1001 4 2 0 0 557 442 127 126
1002 4 2 0 0 670 260 225 666
1003 4 2 0 0 600 78 602 98
1004 4 2 0 0 600 97 619 602
1005 4 2 0 0 280 302 282 601
1006 4 2 0 0 558 675 281 601
1007 4 2 0 0 77 602 95 97
1008 4 2 0 0 600 78 77 602
1009 4 2 0 0 600 97 602 77
1010 4 2 0 0 280 302 601 558
1011 4 2 0 0 675 283 281 601
1012 4 2 0 0 224 259 605 604
1013 4 2 0 0 604 605 223 258
1014 4 2 0 0 251 224 665 604
1015 4 2 0 0 224 605 665 604
1016 4 2 0 0 286 414 269 287
1017 4 2 0 0 500 32 412 629
1018 4 2 0 0 412 32 42 629
1019 4 2 0 0 579 606 677 340
1020 4 2 0 0 579 606 583 339
1021 4 2 0 0 607 330 336 340
1022 4 2 0 0 607 677 543 340
1023 4 2 0 0 607 339 329 543
1024 4 2 0 0 269 249 248 287
1025 4 2 0 0 608 338 328 396
1026 4 2 0 0 608 336 328 338
1027 4 2 0 0 561 609 222 528
1028 4 2 0 0 578 592 222 609
1029 4 2 0 0 528 609 222 592
1030 4 2 0 0 488 487 617 552
1031 4 2 0 0 64 76 545 591
1032 4 2 0 0 591 64 524 545
1033 4 2 0 0 630 591 524 545
1034 4 2 0 0 64 76 591 52
1035 4 2 0 0 13 629 431 24
1036 4 2 0 0 13 629 32 431
1037 4 2 0 0 401 431 24 20
1038 4 2 0 0 57 639 640 80
1039 4 2 0 0 471 416 498 518
1040 4 2 0 0 675 399 272 273
1041 4 2 0 0 283 273 399 675
1042 4 2 0 0 383 499 476 519
1043 4 2 0 0 187 188 514 665
1044 4 2 0 0 666 226 588 191
1045 4 2 0 0 666 588 190 191
1046 4 2 0 0 631 114 96 106
1047 4 2 0 0 630 631 643 95
1048 4 2 0 0 630 96 643 631
1049 4 2 0 0 116 610 623 98
1050 4 2 0 0 108 98 610 116
1051 4 2 0 0 352 98 610 108
1052 4 2 0 0 530 641 610 98
1053 4 2 0 0 646 152 165 187
1054 4 2 0 0 187 489 646 152
1055 4 2 0 0 650 575 553 190
1056 4 2 0 0 650 190 557 191
1057 4 2 0 0 252 670 238 272
1058 4 2 0 0 670 252 288 272
1059 4 2 0 0 397 43 42 35
1060 4 2 0 0 348 343 339 612
1061 4 2 0 0 612 543 677 340
1062 4 2 0 0 612 343 339 543
1063 4 2 0 0 182 648 656 613
1064 4 2 0 0 164 613 648 182
1065 4 2 0 0 659 200 179 196
1066 4 2 0 0 659 197 657 180
1067 4 2 0 0 175 179 659 200
1068 4 2 0 0 658 654 182 203
1069 4 2 0 0 202 198 658 181
1070 4 2 0 0 177 654 181 202
1071 4 2 0 0 182 654 656 648
1072 4 2 0 0 52 524 64 63
1073 4 2 0 0 591 52 524 64
1074 4 2 0 0 480 346 342 494
1075 4 2 0 0 10 18 17 19
1076 4 2 0 0 10 18 16 17
1077 4 2 0 0 448 18 16 10
1078 4 2 0 0 548 399 585 675
1079 4 2 0 0 548 585 569 282
1080 4 2 0 0 242 377 254 495
1081 4 2 0 0 437 377 378 495
1082 4 2 0 0 295 297 296 324
1083 4 2 0 0 614 343 612 344
1084 4 2 0 0 614 344 345 343
1085 4 2 0 0 348 343 612 614
1086 4 2 0 0 614 348 343 541
1087 4 2 0 0 541 343 614 345
1088 4 2 0 0 344 343 612 543
1089 4 2 0 0 38 39 35 25
1090 4 2 0 0 38 39 397 35
1091 4 2 0 0 42 397 35 38
1092 4 2 0 0 431 500 24 629
1093 4 2 0 0 24 431 13 20
1094 4 2 0 0 574 57 56 542
1095 4 2 0 0 56 57 574 639
1096 4 2 0 0 574 71 56 639
1097 4 2 0 0 56 640 57 639
1098 4 2 0 0 405 325 310 326
1099 4 2 0 0 512 325 326 310
1100 4 2 0 0 38 25 35 30
1101 4 2 0 0 38 30 35 34
1102 4 2 0 0 226 666 214 191
1103 4 2 0 0 575 666 190 191
1104 4 2 0 0 575 191 214 666
1105 4 2 0 0 554 575 654 650
1106 4 2 0 0 631 105 556 643
1107 4 2 0 0 631 106 96 643
1108 4 2 0 0 438 113 686 631
1109 4 2 0 0 115 107 97 610
1110 4 2 0 0 615 610 107 115
1111 4 2 0 0 108 610 679 615
1112 4 2 0 0 490 115 615 683
1113 4 2 0 0 264 675 272 577
1114 4 2 0 0 577 675 265 672
1115 4 2 0 0 187 665 576 188
1116 4 2 0 0 616 106 556 643
1117 4 2 0 0 680 162 684 139
1118 4 2 0 0 689 683 690 490
1119 4 2 0 0 490 683 615 689
1120 4 2 0 0 615 611 679 108
1121 4 2 0 0 649 176 166 576
1122 4 2 0 0 165 576 646 187
1123 4 2 0 0 272 670 638 273
1124 4 2 0 0 238 638 577 272
1125 4 2 0 0 236 626 555 590
1126 4 2 0 0 270 626 236 590
1127 4 2 0 0 682 668 237 590
1128 4 2 0 0 668 555 237 590
1129 4 2 0 0 486 355 345 491
1130 4 2 0 0 488 57 552 80
1131 4 2 0 0 156 157 489 129
1132 4 2 0 0 153 393 489 188
1133 4 2 0 0 247 430 220 515
1134 4 2 0 0 249 222 221 528
1135 4 2 0 0 516 221 222 528
1136 4 2 0 0 655 659 180 176
1137 4 2 0 0 653 576 659 176
1138 4 2 0 0 200 576 659 175
1139 4 2 0 0 178 648 654 182
1140 4 2 0 0 553 575 654 202
1141 4 2 0 0 412 52 43 42
1142 4 2 0 0 607 543 330 340
1143 4 2 0 0 607 543 329 330
1144 4 2 0 0 91 640 92 86
1145 4 2 0 0 640 552 617 85
1146 4 2 0 0 640 552 85 79
1147 4 2 0 0 531 89 90 599
1148 4 2 0 0 86 85 617 531
1149 4 2 0 0 89 531 584 625
1150 4 2 0 0 617 487 85 552
1151 4 2 0 0 286 268 248 269
1152 4 2 0 0 287 286 248 269
1153 4 2 0 0 335 607 336 579
1154 4 2 0 0 335 339 607 579
1155 4 2 0 0 607 579 677 340
1156 4 2 0 0 607 579 339 677
1157 4 2 0 0 429 385 482 526
1158 4 2 0 0 429 374 385 526
1159 4 2 0 0 670 666 225 230
1160 4 2 0 0 637 670 666 231
1161 4 2 0 0 670 666 231 253
1162 4 2 0 0 98 619 96 602
1163 4 2 0 0 602 96 630 619
1164 4 2 0 0 104 619 96 98
1165 4 2 0 0 619 642 95 103
1166 4 2 0 0 104 642 96 619
1167 4 2 0 0 600 619 98 602
1168 4 2 0 0 280 675 282 274
1169 4 2 0 0 280 282 675 601
1170 4 2 0 0 250 223 665 228
1171 4 2 0 0 250 223 604 665
1172 4 2 0 0 665 605 223 604
1173 4 2 0 0 570 584 488 90
1174 4 2 0 0 584 90 570 531
1175 4 2 0 0 431 500 629 32
1176 4 2 0 0 450 624 92 376
1177 4 2 0 0 376 621 450 624
1178 4 2 0 0 376 622 621 624
1179 4 2 0 0 428 62 391 621
1180 4 2 0 0 79 581 640 622
1181 4 2 0 0 621 581 622 376
1182 4 2 0 0 234 577 672 264
1183 4 2 0 0 667 672 577 235
1184 4 2 0 0 659 201 576 681
1185 4 2 0 0 576 201 212 681
1186 4 2 0 0 668 555 236 693
1187 4 2 0 0 141 689 611 633
1188 4 2 0 0 490 689 145 613
1189 4 2 0 0 217 577 238 638
1190 4 2 0 0 664 638 218 577
1191 4 2 0 0 138 686 616 680
1192 4 2 0 0 438 556 686 647
1193 4 2 0 0 686 142 687 161
1194 4 2 0 0 165 649 576 175
1195 4 2 0 0 649 646 576 166
1196 4 2 0 0 660 663 575 203
1197 4 2 0 0 202 575 663 213
1198 4 2 0 0 654 167 650 553
1199 4 2 0 0 654 554 650 168
1200 4 2 0 0 544 300 558 281
1201 4 2 0 0 442 154 650 167
1202 4 2 0 0 666 213 225 230
1203 4 2 0 0 230 666 213 663
1204 4 2 0 0 623 115 97 610
1205 4 2 0 0 623 610 615 115
1206 4 2 0 0 623 97 115 103
1207 4 2 0 0 623 610 641 98
1208 4 2 0 0 665 229 212 224
1209 4 2 0 0 665 212 188 224
1210 4 2 0 0 229 665 212 682
1211 4 2 0 0 638 273 670 231
1212 4 2 0 0 280 274 262 558
1213 4 2 0 0 671 275 558 674
1214 4 2 0 0 263 275 558 671
1215 4 2 0 0 674 275 675 265
1216 4 2 0 0 264 675 274 282
1217 4 2 0 0 683 115 615 107
1218 4 2 0 0 683 107 615 611
1219 4 2 0 0 574 57 542 350
1220 4 2 0 0 652 690 181 173
1221 4 2 0 0 652 181 690 656
1222 4 2 0 0 652 655 687 173
1223 4 2 0 0 661 692 205 484
1224 4 2 0 0 691 636 661 484
1225 4 2 0 0 659 657 196 179
1226 4 2 0 0 659 657 655 180
1227 4 2 0 0 202 181 658 654
1228 4 2 0 0 656 654 182 658
1229 4 2 0 0 548 283 399 675
1230 4 2 0 0 154 119 126 557
1231 4 2 0 0 557 119 126 127
1232 4 2 0 0 557 127 120 119
1233 4 2 0 0 155 127 120 557
1234 4 2 0 0 540 386 255 126
1235 4 2 0 0 624 621 450 62
1236 4 2 0 0 555 668 237 216
1237 4 2 0 0 675 558 275 674
1238 4 2 0 0 675 558 274 280
1239 4 2 0 0 666 231 226 214
1240 4 2 0 0 666 253 226 231
1241 4 2 0 0 623 641 619 98
1242 4 2 0 0 623 103 619 97
1243 4 2 0 0 590 228 250 665
1244 4 2 0 0 590 682 665 229
1245 4 2 0 0 642 631 96 630
1246 4 2 0 0 642 630 96 619
1247 4 2 0 0 646 147 166 649
1248 4 2 0 0 456 146 646 152
1249 4 2 0 0 646 456 147 645
1250 4 2 0 0 223 228 211 665
1251 4 2 0 0 625 89 531 427
1252 4 2 0 0 89 584 487 625
1253 4 2 0 0 584 85 531 617
1254 4 2 0 0 661 667 658 206
1255 4 2 0 0 206 661 667 484
1256 4 2 0 0 234 484 667 205
1257 4 2 0 0 648 163 177 181
1258 4 2 0 0 690 163 181 173
1259 4 2 0 0 648 690 656 613
1260 4 2 0 0 636 692 484 693
1261 4 2 0 0 202 217 658 198
1262 4 2 0 0 173 687 179 655
1263 4 2 0 0 175 179 655 659
1264 4 2 0 0 653 659 655 176
1265 4 2 0 0 648 654 181 177
1266 4 2 0 0 636 207 659 215
1267 4 2 0 0 658 660 203 662
1268 4 2 0 0 202 217 664 658
1269 4 2 0 0 413 286 582 414
1270 4 2 0 0 286 582 414 287
1271 4 2 0 0 75 622 581 79
1272 4 2 0 0 85 640 79 91
1273 4 2 0 0 91 640 86 85
1274 4 2 0 0 252 288 481 670
1275 4 2 0 0 640 80 92 86
1276 4 2 0 0 640 622 376 80
1277 4 2 0 0 579 618 583 606
1278 4 2 0 0 579 503 583 618
1279 4 2 0 0 632 623 115 103
1280 4 2 0 0 632 642 104 623
1281 4 2 0 0 663 231 666 214
1282 4 2 0 0 146 646 165 649
1283 4 2 0 0 646 147 649 645
1284 4 2 0 0 229 682 237 590
1285 4 2 0 0 680 138 146 456
1286 4 2 0 0 665 228 211 682
1287 4 2 0 0 682 665 212 681
1288 4 2 0 0 95 631 113 642
1289 4 2 0 0 230 638 238 670
1290 4 2 0 0 637 638 670 231
1291 4 2 0 0 264 675 674 274
1292 4 2 0 0 672 674 675 265
1293 4 2 0 0 262 671 558 274
1294 4 2 0 0 318 507 405 325
1295 4 2 0 0 689 611 628 141
1296 4 2 0 0 689 141 628 164
1297 4 2 0 0 141 633 648 689
1298 4 2 0 0 689 141 164 648
1299 4 2 0 0 617 86 552 640
1300 4 2 0 0 217 202 664 209
1301 4 2 0 0 662 203 664 210
1302 4 2 0 0 647 634 169 653
1303 4 2 0 0 648 171 177 163
1304 4 2 0 0 686 556 105 616
1305 4 2 0 0 556 686 105 631
1306 4 2 0 0 686 113 105 631
1307 4 2 0 0 686 556 616 680
1308 4 2 0 0 686 138 161 680
1309 4 2 0 0 555 627 263 233
1310 4 2 0 0 620 344 345 614
1311 4 2 0 0 541 614 620 345
1312 4 2 0 0 208 635 659 636
1313 4 2 0 0 161 687 647 175
1314 4 2 0 0 659 207 200 215
1315 4 2 0 0 209 664 662 202
1316 4 2 0 0 658 203 664 662
1317 4 2 0 0 667 484 669 235
1318 4 2 0 0 484 235 241 669
1319 4 2 0 0 647 170 634 653
1320 4 2 0 0 654 171 177 648
1321 4 2 0 0 654 648 172 651
1322 4 2 0 0 555 626 236 693
1323 4 2 0 0 271 555 237 627
1324 4 2 0 0 555 237 627 216
1325 4 2 0 0 116 628 615 108
1326 4 2 0 0 689 615 116 628
1327 4 2 0 0 689 628 145 164
1328 4 2 0 0 538 292 507 325
1329 4 2 0 0 507 293 289 318
1330 4 2 0 0 441 40 41 36
1331 4 2 0 0 441 41 37 36
1332 4 2 0 0 156 387 489 564
1333 4 2 0 0 156 489 387 129
1334 4 2 0 0 140 442 148 126
1335 4 2 0 0 528 592 516 225
1336 4 2 0 0 516 528 560 248
1337 4 2 0 0 517 534 529 155
1338 4 2 0 0 557 394 529 517
1339 4 2 0 0 529 130 517 394
1340 4 2 0 0 141 442 127 149
1341 4 2 0 0 42 34 38 35
1342 4 2 0 0 602 630 95 619
1343 4 2 0 0 642 630 95 631
1344 4 2 0 0 438 686 556 631
1345 4 2 0 0 632 623 615 115
1346 4 2 0 0 490 115 632 615
1347 4 2 0 0 442 140 633 611
1348 4 2 0 0 633 689 611 140
1349 4 2 0 0 502 451 520 598
1350 4 2 0 0 425 598 520 304
1351 4 2 0 0 455 520 597 305
1352 4 2 0 0 502 520 452 597
1353 4 2 0 0 635 207 659 636
1354 4 2 0 0 501 422 306 595
1355 4 2 0 0 422 306 521 501
1356 4 2 0 0 484 693 555 636
1357 4 2 0 0 454 596 501 307
1358 4 2 0 0 230 637 666 663
1359 4 2 0 0 230 670 666 637
1360 4 2 0 0 230 638 670 637
1361 4 2 0 0 272 670 238 638
1362 4 2 0 0 641 97 619 600
1363 4 2 0 0 530 97 352 610
1364 4 2 0 0 530 97 610 641
1365 4 2 0 0 623 610 97 641
1366 4 2 0 0 623 97 619 641
1367 4 2 0 0 642 103 619 623
1368 4 2 0 0 642 95 630 619
1369 4 2 0 0 632 103 642 623
1370 4 2 0 0 631 643 95 105
1371 4 2 0 0 616 643 556 105
1372 4 2 0 0 456 603 644 586
1373 4 2 0 0 645 680 146 456
1374 4 2 0 0 646 456 645 146
1375 4 2 0 0 646 645 649 146
1376 4 2 0 0 489 152 387 646
1377 4 2 0 0 456 646 603 152
1378 4 2 0 0 155 557 529 517
1379 4 2 0 0 394 190 557 154
1380 4 2 0 0 442 650 557 155
1381 4 2 0 0 556 686 647 680
1382 4 2 0 0 647 175 655 653
1383 4 2 0 0 652 690 490 613
1384 4 2 0 0 165 646 576 649
1385 4 2 0 0 654 575 553 650
1386 4 2 0 0 654 648 651 171
1387 4 2 0 0 649 653 576 175
1388 4 2 0 0 175 576 659 653
1389 4 2 0 0 175 659 655 653
1390 4 2 0 0 659 657 179 655
1391 4 2 0 0 656 613 690 652
1392 4 2 0 0 656 654 181 648
1393 4 2 0 0 181 654 656 658
1394 4 2 0 0 636 692 661 484
1395 4 2 0 0 636 197 657 659
1396 4 2 0 0 202 660 658 662
1397 4 2 0 0 659 215 196 636
1398 4 2 0 0 200 659 576 681
1399 4 2 0 0 202 658 660 654
1400 4 2 0 0 654 575 660 202
1401 4 2 0 0 202 663 575 660
1402 4 2 0 0 202 658 664 662
1403 4 2 0 0 205 667 658 661
1404 4 2 0 0 661 205 667 484
1405 4 2 0 0 575 666 663 213
1406 4 2 0 0 217 638 664 577
1407 4 2 0 0 430 515 665 514
1408 4 2 0 0 225 666 592 588
1409 4 2 0 0 528 666 592 225
1410 4 2 0 0 234 672 577 667
1411 4 2 0 0 234 484 669 667
1412 4 2 0 0 682 236 668 590
1413 4 2 0 0 236 555 668 590
1414 4 2 0 0 577 675 672 264
1415 4 2 0 0 264 674 675 672
1416 4 2 0 0 671 674 558 274
1417 4 2 0 0 675 558 674 274
1418 4 2 0 0 558 280 675 601
1419 4 2 0 0 507 292 293 405
1420 4 2 0 0 676 306 384 582
1421 4 2 0 0 676 501 306 582
1422 4 2 0 0 579 606 339 677
1423 4 2 0 0 607 339 543 677
1424 4 2 0 0 612 543 339 677
1425 4 2 0 0 348 614 612 678
1426 4 2 0 0 678 348 614 541
1427 4 2 0 0 352 610 107 679
1428 4 2 0 0 679 610 107 615
1429 4 2 0 0 615 611 107 679
1430 4 2 0 0 616 680 456 138
1431 4 2 0 0 682 665 681 211
1432 4 2 0 0 590 228 665 682
1433 4 2 0 0 123 102 134 135
1434 4 2 0 0 102 134 101 123
1435 4 2 0 0 553 213 575 202
1436 4 2 0 0 178 554 203 654
1437 4 2 0 0 554 191 214 575
1438 4 2 0 0 556 114 106 684
1439 4 2 0 0 616 684 106 139
1440 4 2 0 0 616 556 106 684
1441 4 2 0 0 611 107 140 683
1442 4 2 0 0 576 573 201 176
1443 4 2 0 0 576 188 212 573
1444 4 2 0 0 576 212 188 665
1445 4 2 0 0 577 685 218 235
1446 4 2 0 0 265 235 685 577
1447 4 2 0 0 238 577 217 572
1448 4 2 0 0 577 239 218 685
1449 4 2 0 0 555 262 626 484
1450 4 2 0 0 484 262 626 232
1451 4 2 0 0 555 216 627 233
1452 4 2 0 0 556 114 684 143
1453 4 2 0 0 438 114 556 143
1454 4 2 0 0 490 689 116 145
1455 4 2 0 0 689 628 116 145
1456 4 2 0 0 579 594 340 336
1457 4 2 0 0 292 405 286 293
1458 4 2 0 0 647 180 162 176
1459 4 2 0 0 647 176 655 180
1460 4 2 0 0 405 325 292 298
1461 4 2 0 0 687 161 179 175
1462 4 2 0 0 687 175 179 655
1463 4 2 0 0 164 613 174 145
1464 4 2 0 0 613 648 689 164
1465 4 2 0 0 626 673 555 590
1466 4 2 0 0 270 673 626 590
1467 4 2 0 0 628 611 615 108
1468 4 2 0 0 689 615 628 611
1469 4 2 0 0 690 173 144 163
1470 4 2 0 0 648 690 181 656
1471 4 2 0 0 536 160 301 280
1472 4 2 0 0 580 271 673 590
1473 4 2 0 0 251 271 580 590
1474 4 2 0 0 506 271 580 251
1475 4 2 0 0 89 599 688 105
1476 4 2 0 0 648 140 163 689
1477 4 2 0 0 140 683 163 689
1478 4 2 0 0 689 683 615 611
1479 4 2 0 0 684 680 647 162
1480 4 2 0 0 647 143 556 684
1481 4 2 0 0 586 456 152 124
1482 4 2 0 0 456 603 586 152
1483 4 2 0 0 107 611 140 126
1484 4 2 0 0 108 611 127 141
1485 4 2 0 0 228 590 250 236
1486 4 2 0 0 237 590 251 229
1487 4 2 0 0 106 616 599 643
1488 4 2 0 0 648 689 163 690
1489 4 2 0 0 690 683 163 144
1490 4 2 0 0 689 683 163 690
1491 4 2 0 0 216 691 636 197
1492 4 2 0 0 197 206 233 691
1493 4 2 0 0 197 661 206 691
1494 4 2 0 0 216 691 197 233
1495 4 2 0 0 197 657 661 636
1496 4 2 0 0 636 691 661 197
1497 4 2 0 0 648 633 140 689
1498 4 2 0 0 611 683 140 689
1499 4 2 0 0 616 680 684 139
1500 4 2 0 0 616 556 684 680
1501 4 2 0 0 576 212 665 681
1502 4 2 0 0 616 138 456 105
1503 4 2 0 0 599 643 616 105
1504 4 2 0 0 599 616 456 105
1505 4 2 0 0 688 599 456 105
1506 4 2 0 0 105 456 688 124
1507 4 2 0 0 105 138 456 124
1508 4 2 0 0 232 196 692 205
1509 4 2 0 0 215 196 692 232
1510 4 2 0 0 661 196 205 692
1511 4 2 0 0 636 196 692 215
1512 4 2 0 0 657 196 661 636
1513 4 2 0 0 636 692 196 661
1514 4 2 0 0 216 555 636 691
1515 4 2 0 0 216 555 691 233
1516 4 2 0 0 636 668 555 216
1517 4 2 0 0 647 175 687 655
1518 4 2 0 0 215 692 693 232
1519 4 2 0 0 693 236 668 215
1520 4 2 0 0 636 692 693 215
1521 4 2 0 0 693 215 668 636
1522 4 2 0 0 484 626 555 693
1523 4 2 0 0 647 162 180 143
1524 4 2 0 0 647 653 176 170
1525 4 2 0 0 613 690 689 648
1526 4 2 0 0 687 161 142 179
1527 4 2 0 0 647 686 161 680
1528 4 2 0 0 438 686 687 647
1529 4 2 0 0 175 647 169 653
1530 4 2 0 0 555 693 668 636
$EndElements
