$MeshFormat
2.2 0 8
$EndMeshFormat
$Nodes
804
1 0 3.803109169006348 0
2 0 3.803109169006348 0.7999999523162842
3 0 10.19689178466797 0
4 0 10.19689178466797 0.7999999523162842
5 0.09145405064164432 4.50985058321691 0.00562610103832506
6 0.08968822658061981 4.510673999786377 0.7999999523162842
7 0.08968822658061981 9.489326477050781 0
8 0.08968822658061981 9.489326477050781 0.7999999523162842
9 0.349999874830246 3.196891307830811 0
10 0.349999874830246 3.196891307830811 0.7999999523162842
11 0.349999874830246 10.80310916900635 0
12 0.349999874830246 10.80310916900635 0.7999999523162842
13 0.3742068111896515 4.841419696807861 2.168404344971009e-16
14 0.3742068111896515 4.841419696807861 0.7999999523162842
15 0.3742068111896515 9.158580780029297 0
16 0.3742068111896515 9.158580780029297 0.7999999523162842
17 0.6516410652675464 5.163930223487291 2.11476009012131e-16
18 0.644602358341217 5.155747890472412 0.7999999523162842
19 0.644602358341217 8.844252586364746 0
20 0.644602358341217 8.844252586364746 0.7999999523162842
21 0.7180389761924744 4.217669486999512 0
22 0.7180389761924744 4.217669486999512 0.7999999523162842
23 0.7180389761924744 9.782331466674805 0
24 0.7180389761924744 9.782331466674805 0.7999999523162842
25 0.9291204810142517 5.486493587493896 0
26 0.9291204810142517 5.486493587493896 0.7999999523162842
27 0.9291204810142517 8.513506889343262 0
28 0.9291204810142517 8.513506889343262 0.7999999523162842
29 1.007613301277161 2.920781373977661 2.220446049250313e-16
30 1.007613301277161 2.920781373977661 0.7999999523162842
31 1.007613301277161 11.07921886444092 0
32 1.007613301277161 11.07921886444092 0.7999999523162842
33 1.068039298057556 3.611451387405396 0
34 1.068039298057556 3.611451387405396 0.7999999523162842
35 1.068039298057556 10.38854885101318 0
36 1.068039298057556 10.38854885101318 0.7999999523162842
37 1.16207218170166 4.474031925201416 2.168404344971009e-16
38 1.16207218170166 4.474031925201416 0.7999999523162842
39 1.16207218170166 9.525968551635742 0
40 1.16207218170166 9.525968551635742 0.7999999523162842
41 1.19951605796814 5.800821304321289 0
42 1.19951605796814 5.800821304321289 0.7999999523162842
43 1.19951605796814 8.199178695678711 0
44 1.19951605796814 8.199178695678711 0.7999999523162842
45 1.43691117226159 3.008718955571449 2.168404344971009e-16
46 1.436306595802307 3.001808643341064 0.7999999523162842
47 1.436306595802307 10.99819183349609 0
48 1.436306595802307 10.99819183349609 0.7999999523162842
49 1.484034538269043 6.131567001342773 0
50 1.484034538269043 6.131567001342773 0.7999999523162842
51 1.484034538269043 7.868433475494385 0
52 1.484034538269043 7.868433475494385 0.7999999523162842
53 1.512072563171387 3.867814064025879 2.168404344971009e-16
54 1.512072563171387 3.867814064025879 0.7999999523162842
55 1.512072563171387 10.13218593597412 4.336808689942018e-16
56 1.512072563171387 10.13218593597412 0.7999999523162842
57 1.584064722061157 4.717669010162354 2.168404344971009e-16
58 1.584064722061157 4.717669010162354 0.7999999523162842
59 1.584064722061157 9.282331466674805 0
60 1.584064722061157 9.282331466674805 0.7999999523162842
61 1.754430174827576 6.445895195007324 0
62 1.754430174827576 6.445895195007324 0.7999999523162842
63 1.754430174827576 7.554105281829834 0
64 1.754430174827576 7.554105281829834 0.7999999523162842
65 1.843720674514771 3.078814029693604 0
66 1.843720674514771 3.078814029693604 0.7999999523162842
67 1.843720674514771 10.92118644714355 0
68 1.843720674514771 10.92118644714355 0.7999999523162842
69 1.934064507484436 4.111451625823975 0
70 1.934064507484436 4.111451625823975 0.7999999523162842
71 1.934064507484436 9.888548851013184 0
72 1.934064507484436 9.888548851013184 0.7999999523162842
73 2.028097867965698 4.974031925201416 0
74 2.028097867965698 4.974031925201416 0.7999999523162842
75 2.028097867965698 9.025968551635742 0
76 2.028097867965698 9.025968551635742 0.7999999523162842
77 2.03894829750061 6.776640892028809 2.168404344971009e-16
78 2.03894829750061 6.776640892028809 0.7999999523162842
79 2.03894829750061 7.22335958480835 0
80 2.03894829750061 7.22335958480835 0.7999999523162842
81 2.272744123117854 3.166019411921258 2.167324854825934e-16
82 2.272413492202759 3.159841299057007 0.7999999523162842
83 2.272413492202759 10.84015941619873 4.336808689942018e-16
84 2.272413492202759 10.84015941619873 0.7999999523162842
85 2.378097772598267 4.367814064025879 2.168404344971009e-16
86 2.378097772598267 4.367814064025879 0.7999999523162842
87 2.378097772598267 9.632185935974121 0
88 2.378097772598267 9.632185935974121 0.7999999523162842
89 2.450089931488037 5.217669486999512 0
90 2.450089931488037 5.217669486999512 0.7999999523162842
91 2.450089931488037 8.782331466674805 0
92 2.450089931488037 8.782331466674805 0.7999999523162842
93 2.506433248519897 7 -4.336808689942018e-16
94 2.506433248519897 7 0.7999999523162842
95 2.679827690124512 3.236846685409546 0
96 2.679827690124512 3.236846685409546 0.7999999523162842
97 2.679827690124512 10.76315402984619 0
98 2.679827690124512 10.76315402984619 0.7999999523162842
99 2.773388147354126 6.434165954589844 0
100 2.773388147354126 6.434165954589844 0.7999999523162842
101 2.987216323972176 7.67671972746964 0
102 2.776811122774179 7.56743068227545 0.7999999523162842
103 2.800090074539185 4.611451625823975 2.168404344971009e-16
104 2.800090074539185 4.611451625823975 0.7999999523162842
105 2.800090074539185 9.388548851013184 0
106 2.800090074539185 9.388548851013184 0.7999999523162842
107 2.894123077392578 5.474031925201416 2.168404344971009e-16
108 2.894123077392578 5.474031925201416 0.7999999523162842
109 2.894123077392578 8.525968551635742 0
110 2.894123077392578 8.525968551635742 0.7999999523162842
111 3.108520984649658 3.317873954772949 2.168404344971009e-16
112 3.108520984649658 3.317873954772949 0.7999999523162842
113 3.108520984649658 10.68212604522705 0
114 3.108520984649658 10.68212604522705 0.7999999523162842
115 3.244123220443726 4.867814064025879 0
116 3.244123220443726 4.867814064025879 0.7999999523162842
117 3.244123220443726 9.132185935974121 0
118 3.244123220443726 9.132185935974121 0.7999999523162842
119 3.316115379333496 5.717669486999512 2.168404344971009e-16
120 3.316115379333496 5.717669486999512 0.7999999523162842
121 3.316115379333496 8.282331466674805 0
122 3.316115379333496 8.282331466674805 0.7999999523162842
123 3.500237941741943 7 0
124 3.500237941741943 7 0.7999999523162842
125 3.515934705734253 3.394879341125488 0
126 3.515934705734253 3.394879341125488 0.7999999523162842
127 3.515934705734253 10.60512065887451 0
128 3.516195424716184 10.60214063210319 0.7999999523162842
129 3.666115522384644 5.111451625823975 2.168404344971009e-16
130 3.666115522384644 5.111451625823975 0.7999999523162842
131 3.666115522384644 8.888548851013184 0
132 3.666115522384644 8.888548851013184 0.7999999523162842
133 3.719868659973145 6.434165954589844 0
134 3.719868659973145 6.434165954589844 0.7999999523162842
135 3.719868659973145 7.565834522247314 0
136 3.719868659973145 7.565834522247314 0.7999999523162842
137 3.760148525238037 5.974031925201416 2.168404344971009e-16
138 3.760148525238037 5.974031925201416 0.7999999523162842
139 3.760148525238037 8.025968551635742 0
140 3.760148525238037 8.025968551635742 0.7999999523162842
141 3.944628238677979 3.475906610488892 2.168404344971009e-16
142 3.944628238677979 3.475906610488892 0.7999999523162842
143 3.944628238677979 10.52409362792969 4.336808689942018e-16
144 3.944628238677979 10.52409362792969 0.7999999523162842
145 4.110148429870605 5.367814064025879 0
146 4.110148429870605 5.367814064025879 0.7999999523162842
147 4.110148429870605 8.632185935974121 0
148 4.110148429870605 8.632185935974121 0.7999999523162842
149 4.183037281036377 6.218186855316162 0
150 4.183037281036377 6.218186855316162 0.7999999523162842
151 4.183037281036377 7.781813621520996 -4.336808689942018e-16
152 4.183037281036377 7.781813621520996 0.7999999523162842
153 4.184473037719727 6.680936336517334 0
154 4.184473037719727 6.680936336517334 0.7999999523162842
155 4.184473037719727 7.319064140319824 0
156 4.184473037719727 7.319064140319824 0.7999999523162842
157 4.331498146057129 3.252547264099121 0
158 4.331498146057129 3.252547264099121 0.7999999523162842
159 4.331498146057129 10.74745273590088 0
160 4.331498146057129 10.74745273590088 0.7999999523162842
161 4.371805667877197 3.769080877304077 0
162 4.371805667877197 3.769080877304077 0.7999999523162842
163 4.371805667877197 10.23091983795166 0
164 4.371805667877197 10.23091983795166 0.7999999523162842
165 4.475672721862793 2.840774059295654 0
166 4.475672721862793 2.840774059295654 0.7999999523162842
167 4.475672721862793 11.1592264175415 0
168 4.475672721862793 11.1592264175415 0.7999999523162842
169 4.533037185668945 5.611968994140625 0
170 4.533037185668945 5.611968994140625 0.7999999523162842
171 4.533037185668945 8.388031005859375 0
172 4.533037185668945 8.388031005859375 0.7999999523162842
173 4.612690925598145 2.449440717697144 0
174 4.612690925598145 2.449440717697144 0.7999999523162842
175 4.612690925598145 11.55055999755859 0
176 4.612690925598145 11.55055999755859 0.7999999523162842
177 4.627070426940918 6.474549770355225 0
178 4.627070426940918 6.474549770355225 0.7999999523162842
179 4.627070426940918 7.525450706481934 0
180 4.627070426940918 7.525450706481934 0.7999999523162842
181 4.756865978240967 2.037668228149414 0
182 4.756865978240967 2.037668228149414 0.7999999523162842
183 4.756865978240967 11.9623327255249 0
184 4.756865978240967 11.9623327255249 0.7999999523162842
185 4.868707656860352 4.629740715026855 0
186 4.868707656860352 4.629740715026855 0.7999999523162842
187 4.868707656860352 9.370259284973145 0
188 4.868707656860352 9.370259284973145 0.7999999523162842
189 4.893884181976318 1.646334767341614 0
190 4.893884181976318 1.646334767341614 0.7999999523162842
191 4.893884181976318 12.35366535186768 0
192 4.893884181976318 12.35366535186768 0.7999999523162842
193 4.977070331573486 5.868331909179688 0
194 4.977070331573486 5.868331909179688 0.7999999523162842
195 4.977070331573486 8.131669044494629 0
196 4.977070331573486 8.131669044494629 0.7999999523162842
197 5.038059234619141 1.234561681747437 0
198 5.038059234619141 1.234561681747437 0.7925353622235025
199 5.038059234619141 12.7654390335083 0
200 5.038059234619141 12.7654390335083 0.7999999523162842
201 5.15275239944458 2.314870595932007 0.7999999523162842
202 5.17507791519165 0.843228280544281 0
203 5.17507791519165 0.843228280544281 0.7999999523162842
204 5.177666669076907 13.16416534013234 0
205 5.17507791519165 13.15677165985107 0.7999999523162842
206 5.319252490997314 0.4314551949501038 0
207 5.319252490997314 0.4314551949501038 0.7952592513466265
208 5.319252490997314 13.5685453414917 0
209 5.319252490997314 13.5685453414917 0.7999999523162842
210 5.537177562713623 7 0
211 5.537177562713623 7 0.7999999523162842
212 5.887177467346191 0 0
213 5.887177467346191 0 0.7999999523162842
214 5.887177467346191 0.8291206359863281 0
215 5.887177467346191 0.8291206359863281 0.7999999523162842
216 5.887177467346191 1.341845870018005 0
217 5.887177467346191 1.341845870018005 0.7999999523162842
218 5.887177467346191 1.829120755195618 0
219 5.887177467346191 1.829120755195618 0.7999999523162842
220 5.887177467346191 2.341845989227295 0
221 5.887177467346191 2.341845989227295 0.7999999523162842
222 5.887177467346191 2.829120397567749 0
223 5.887177467346191 2.829120397567749 0.7999999523162842
224 5.887177467346191 3.341845989227295 0
225 5.887177467346191 3.341845989227295 0.7999999523162842
226 5.887177467346191 3.829120635986328 0
227 5.887177467346191 3.829120635986328 0.7999999523162842
228 5.887177467346191 4.341845989227295 0
229 5.887177467346191 4.341845989227295 0.7999999523162842
230 5.887177467346191 4.830155849456787 0
231 5.887177467346191 4.830155849456787 0.7999999523162842
232 5.887177467346191 5.342881202697754 0
233 5.887177467346191 5.342881202697754 0.7999999523162842
234 5.887177467346191 6.393782615661621 0
235 5.887177467346191 6.393782615661621 0.7999999523162842
236 5.887177467346191 7.606217861175537 0
237 5.887177467346191 7.606217861175537 0.7999999523162842
238 5.887177467346191 8.657119750976562 0
239 5.887177467346191 8.657119750976562 0.7999999523162842
240 5.887177467346191 9.169844627380371 0
241 5.887177467346191 9.169844627380371 0.7999999523162842
242 5.887177467346191 9.658154487609863 0
243 5.887177467346191 9.658154487609863 0.7999999523162842
244 5.887177467346191 10.17087936401367 0
245 5.887177467346191 10.17087936401367 0.7999999523162842
246 5.887177467346191 10.65815448760986 0
247 5.887177467346191 10.65815448760986 0.7999999523162842
248 5.887177467346191 11.17088031768799 0
249 5.887177467346191 11.17088031768799 0.7999999523162842
250 5.887177467346191 11.65815448760986 0
251 5.887177467346191 11.65815448760986 0.7999999523162842
252 5.887177467346191 12.17087936401367 0
253 5.887177467346191 12.17087936401367 0.7999999523162842
254 5.887177467346191 12.65815448760986 0
255 5.887177467346191 12.65815448760986 0.7999999523162842
256 5.887177467346191 13.17087936401367 0
257 5.887177467346191 13.17087936401367 0.7999999523162842
258 5.887177467346191 14 0
259 5.887177467346191 14 0.7999999523162842
260 5.10933780670166 3.797196626663208 0.7999999523162842
261 6.587177753448486 0.0006441932375264026 0
262 6.587177753448486 0 0.7999999523162842
263 6.587177753448486 0.8291206359863281 0
264 6.587177753448486 0.8291206359863281 0.7999999523162842
265 6.587177753448486 1.341845870018005 0
266 6.587177753448486 1.341845870018005 0.7999999523162842
267 6.587177753448486 1.829120755195618 0
268 6.587177753448486 1.829120755195618 0.7999999523162842
269 6.587177753448486 2.341845989227295 0
270 6.587177753448486 2.341845989227295 0.7999999523162842
271 6.587177753448486 2.829120397567749 0
272 6.587177753448486 2.829120397567749 0.7999999523162842
273 6.587177753448486 3.341845989227295 0
274 6.587177753448486 3.341845989227295 0.7999999523162842
275 6.587177753448486 3.829120635986328 0
276 6.587177753448486 3.829120635986328 0.7999999523162842
277 6.587177753448486 4.341845989227295 0
278 6.587177753448486 4.341845989227295 0.7999999523162842
279 6.587177753448486 4.830155849456787 0
280 6.587177753448486 4.830155849456787 0.7999999523162842
281 6.587177753448486 5.342881202697754 0
282 6.587177753448486 5.342881202697754 0.7999999523162842
283 6.587177753448486 6.393782615661621 0
284 6.586029492566466 6.387864859290544 0.7999999523162842
285 6.587177753448486 7.606217861175537 0
286 6.587177753448486 7.606217861175537 0.7999999523162842
287 6.587177753448486 8.657119750976562 -4.336808689942018e-16
288 6.587177753448486 8.657119750976562 0.7999999523162842
289 6.587177753448486 9.169844627380371 0
290 6.587177753448486 9.169844627380371 0.7999999523162842
291 6.587177753448486 9.658154487609863 0
292 6.587177753448486 9.658154487609863 0.7999999523162842
293 6.587177753448486 10.17087936401367 0
294 6.587177753448486 10.17087936401367 0.7999999523162842
295 6.587177753448486 10.65100995328694 0
296 6.587177753448486 10.65815448760986 0.7999999523162842
297 6.587177753448486 11.17088031768799 0
298 6.587177753448486 11.17088031768799 0.7999999523162842
299 6.587177753448486 11.65815448760986 0
300 6.587177753448486 11.65815448760986 0.7999999523162842
301 6.587177753448486 12.17087936401367 0
302 6.587177753448486 12.17087936401367 0.7999999523162842
303 6.587177753448486 12.65815448760986 0
304 6.587177753448486 12.65815448760986 0.7999999523162842
305 6.587177753448486 13.17087936401367 0
306 6.587177753448486 13.17087936401367 0.7999999523162842
307 6.587177753448486 14 0
308 6.587177753448486 14 0.7999999523162842
309 9.939082622528076 6.081782341003418 0
310 6.900128797034066 9.877285606511508 0.7999999523162842
311 7.071840034315855 11.99751878587723 0
312 6.762177467346191 12.29341602325439 0.7999999523162842
313 6.937177658081055 7 -6.505213034913027e-16
314 6.937177658081055 7 0.7999999523162842
315 7.155102729797363 0.4314551949501038 0
316 7.155102729797363 0.4314551949501038 0.7999999523162842
317 7.155102729797363 13.5685453414917 0
318 7.155102729797363 13.5685453414917 0.7999999523162842
319 7.299277782440186 0.843228280544281 0
320 7.299277782440186 0.843228280544281 0.7999999523162842
321 7.299277782440186 13.15677165985107 0
322 7.299277782440186 13.15677165985107 0.7999999523162842
323 7.185027170476483 2.410501898092283 0.7999999523162842
324 7.436295986175537 1.234561681747437 0.01155952031010354
325 7.436295986175537 1.234561681747437 0.7999999523162842
326 7.436295986175537 12.7654390335083 0
327 7.436295986175537 12.7654390335083 0.7999999523162842
328 7.497284889221191 5.868331909179688 0
329 7.497284889221191 5.868331909179688 0.7999999523162842
330 7.497284889221191 8.131669044494629 0
331 7.497284889221191 8.131669044494629 0.7999999523162842
332 7.580471038818359 1.646334767341614 0
333 7.580471038818359 1.646334767341614 0.7999999523162842
334 7.580471038818359 12.35366535186768 0
335 7.580471038818359 12.35366535186768 0.7999999523162842
336 7.605647563934326 4.629740715026855 -4.336808689942018e-16
337 7.605647563934326 4.629740715026855 0.7999999523162842
338 7.605647563934326 9.370259284973145 -4.336808689942018e-16
339 7.605647563934326 9.370259284973145 0.7999999523162842
340 7.717489242553711 2.037668228149414 0
341 7.717489242553711 2.037668228149414 0.7999999523162842
342 7.717489242553711 11.9623327255249 0
343 7.717489242553711 11.9623327255249 0.7999999523162842
344 7.84728479385376 6.474549770355225 -6.505213034913027e-16
345 7.84728479385376 6.474549770355225 0.7999999523162842
346 7.84728479385376 7.525450706481934 0
347 7.84728479385376 7.525450706481934 0.7999999523162842
348 7.861664295196533 2.449440717697144 0
349 7.85833640716939 2.439936132352176 0.7999999523162842
350 7.861664295196533 11.55055999755859 0
351 7.859008765979989 11.55814435067411 0.7999999523162842
352 7.941318035125732 5.611968994140625 0
353 7.941318035125732 5.611968994140625 0.7999999523162842
354 7.941318035125732 8.388031005859375 0
355 7.941318035125732 8.388031005859375 0.7999999523162842
356 7.998682498931885 2.840774059295654 0
357 7.998682498931885 2.840774059295654 0.7999999523162842
358 7.998682498931885 11.1592264175415 0
359 7.998682498931885 11.1592264175415 0.7999999523162842
360 8.10254955291748 3.769080877304077 -4.336808689942018e-16
361 8.10254955291748 3.769080877304077 0.7999999523162842
362 8.10254955291748 10.23091983795166 0
363 8.10254955291748 10.23091983795166 0.7999999523162842
364 8.142857551574707 3.252547264099121 0
365 8.142857551574707 3.252547264099121 0.7999999523162842
366 8.142857551574707 10.74745273590088 0
367 8.142857551574707 10.74745273590088 0.7999999523162842
368 8.289882659912109 6.680936336517334 0
369 8.289882659912109 7.319064140319824 0
370 8.289882659912109 7.319064140319824 0.7999999523162842
371 8.291317939758301 6.218186855316162 -4.336808689942018e-16
372 8.291317939758301 6.218186855316162 0.7999999523162842
373 8.296609330174194 7.787117880852319 2.71526128005419e-18
374 8.291317939758301 7.781813621520996 0.7999999523162842
375 8.364206314086914 5.367814064025879 -4.336808689942018e-16
376 8.364206314086914 5.367814064025879 0.7999999523162842
377 8.364206314086914 8.632185935974121 0
378 8.364206314086914 8.632185935974121 0.7999999523162842
379 8.529726982116699 3.475906610488892 0
380 8.529726982116699 3.475906610488892 0.7999999523162842
381 8.529726982116699 10.52409362792969 0
382 8.529726982116699 10.52409362792969 0.7999999523162842
383 8.714206695556641 5.974031925201416 0
384 8.714206695556641 5.974031925201416 0.7999999523162842
385 8.714206695556641 8.025968551635742 2.168404344971009e-16
386 8.714206695556641 8.025968551635742 0.7999999523162842
387 8.754487037658691 6.434165954589844 0
388 8.754487037658691 7.565834522247314 0
389 8.754487037658691 7.565834522247314 0.7999999523162842
390 8.808239936828613 5.111451625823975 -6.505213034913027e-16
391 8.808239936828613 5.111451625823975 0.7999999523162842
392 8.808239936828613 8.888548851013184 0
393 8.808239936828613 8.888548851013184 0.7999999523162842
394 8.958420753479004 3.394879341125488 0
395 8.958420753479004 3.394879341125488 0.7999999523162842
396 8.957429017152347 10.59378507915706 2.154085037034384e-16
397 8.958420753479004 10.60512065887451 0.7999999523162842
398 8.974117279052734 7 0
399 8.974117279052734 7 0.7999999523162842
400 9.15824031829834 5.717669486999512 0
401 9.15824031829834 5.717669486999512 0.7999999523162842
402 9.15824031829834 8.282331466674805 -4.336808689942018e-16
403 9.15824031829834 8.282331466674805 0.7999999523162842
404 9.230232238769531 4.867814064025879 -4.336808689942018e-16
405 9.230232238769531 4.867814064025879 0.7999999523162842
406 9.230232238769531 9.132185935974121 0
407 9.230232238769531 9.132185935974121 0.7999999523162842
408 9.36583423614502 3.317873954772949 0
409 9.36583423614502 3.317873954772949 0.7999999523162842
410 9.36583423614502 10.68212604522705 2.168404344971009e-16
411 9.36583423614502 10.68212604522705 0.7999999523162842
412 9.580232620239258 5.474031925201416 0
413 9.580232620239258 5.474031925201416 0.7999999523162842
414 9.580232620239258 8.525968551635742 0
415 9.580232620239258 8.525968551635742 0.7999999523162842
416 9.674264907836914 4.611451625823975 -6.505213034913027e-16
417 9.674264907836914 4.611451625823975 0.7999999523162842
418 9.674264907836914 9.388548851013184 0
419 9.674264907836914 9.388548851013184 0.7999999523162842
420 9.710042284030035 6.438397906099401 0
421 9.732927554943613 6.44615507227833 0.7999999523162842
422 9.636898197292743 7.602837890801762 5.574461570848091e-18
423 9.672511456321297 7.589043073850227 0.7999999523162842
424 9.794528007507324 3.236846685409546 -4.336808689942018e-16
425 9.794528007507324 3.236846685409546 0.7999999523162842
426 9.794528007507324 10.76315402984619 0
427 9.794528007507324 10.76315402984619 0.7999999523162842
428 9.967922210693359 7 -4.336808689942018e-16
429 9.967922210693359 7 0.7999999523162842
430 10.02426528930664 5.217669486999512 -6.505213034913027e-16
431 10.02426528930664 5.217669486999512 0.7999999523162842
432 10.02426528930664 8.782331466674805 -4.336808689942018e-16
433 10.02426528930664 8.782331466674805 0.7999999523162842
434 10.09625720977783 4.367814064025879 -4.336808689942018e-16
435 10.09625720977783 4.367814064025879 0.7999999523162842
436 10.09625720977783 9.632185935974121 0
437 10.09625720977783 9.632185935974121 0.7999999523162842
438 10.20194149017334 3.159841299057007 -4.336808689942018e-16
439 10.20194149017334 3.159841299057007 0.7999999523162842
440 10.20194149017334 10.84015941619873 2.220446049250313e-16
441 10.20194149017334 10.84015941619873 0.7999999523162842
442 10.42540067056665 6.771975010779149 -6.416585961201825e-16
443 10.43540668487549 6.776640892028809 0.7999999523162842
444 10.43540668487549 7.22335958480835 2.168404344971009e-16
445 10.43540668487549 7.22335958480835 0.7999999523162842
446 10.44625759124756 4.974031925201416 0
447 10.44625759124756 4.974031925201416 0.7999999523162842
448 10.44625759124756 9.025968551635742 2.168404344971009e-16
449 10.44625759124756 9.025968551635742 0.7999999523162842
450 10.54029083251953 4.111451625823975 0
451 10.54029083251953 4.111451625823975 0.7999999523162842
452 10.54029083251953 9.888548851013184 0
453 10.54029083251953 9.888548851013184 0.7999999523162842
454 10.63063430786133 3.078814029693604 0
455 10.63063430786133 3.078814029693604 0.7999999523162842
456 10.63063430786133 10.92118644714355 2.168404344971009e-16
457 10.63063430786133 10.92118644714355 0.7999999523162842
458 10.6947717666626 7.565834522247314 0
459 10.71992492675781 6.445895195007324 0
460 10.71992492675781 6.445895195007324 0.7999999523162842
461 10.70019969084558 7.531175163685061 -3.885811731279295e-16
462 10.71992492675781 7.554105281829834 0.7999999523162842
463 10.89029026031494 4.717669010162354 -6.505213034913027e-16
464 10.89029026031494 4.717669010162354 0.7999999523162842
465 10.89029026031494 9.282331466674805 0
466 10.89029026031494 9.282331466674805 0.7999999523162842
467 10.96228313446045 3.867814064025879 0
468 10.96228313446045 3.867814064025879 0.7999999523162842
469 10.96228313446045 10.13218593597412 0
470 10.96228313446045 10.13218593597412 0.7999999523162842
471 10.99032115936279 6.131567001342773 -6.661338147750939e-16
472 10.99032115936279 6.131567001342773 0.7999999523162842
473 10.99032115936279 7.868433475494385 0
474 10.99032115936279 7.868433475494385 0.7999999523162842
475 11.03804874420166 3.001808643341064 0
476 11.03804874420166 3.001808643341064 0.7999999523162842
477 11.03804874420166 10.99819183349609 0
478 11.03804874420166 10.99819183349609 0.7999999523162842
479 11.26758957601403 5.797440658009793 -3.771200534531617e-18
480 11.27483940124512 5.800821304321289 0.7999999523162842
481 11.27483940124512 8.199178695678711 -4.336808689942018e-16
482 11.27483940124512 8.199178695678711 0.7999999523162842
483 11.31228351593018 4.474031925201416 0
484 11.31228351593018 4.474031925201416 0.7999999523162842
485 11.31228351593018 9.525968551635742 0
486 11.31228351593018 9.525968551635742 0.7999999523162842
487 11.40631580352783 3.611451387405396 -6.505213034913027e-16
488 11.40631580352783 3.611451387405396 0.7999999523162842
489 11.40631580352783 10.38854885101318 0
490 11.40631580352783 10.38854885101318 0.7999999523162842
491 11.46674156188965 2.920781373977661 -6.661338147750939e-16
492 11.46674156188965 2.920781373977661 0.7999999523162842
493 11.46674156188965 11.07921886444092 0
494 11.46674156188965 11.07921886444092 0.7879330996106305
495 11.54523468017578 5.486493587493896 -6.505213034913027e-16
496 11.54523468017578 5.486493587493896 0.7999999523162842
497 11.54523468017578 8.513506889343262 2.168404344971009e-16
498 11.54523468017578 8.513506889343262 0.7999999523162842
499 11.75631618499756 4.217669486999512 0
500 11.75631618499756 4.217669486999512 0.7999999523162842
501 11.75631618499756 9.782331466674805 -4.336808689942018e-16
502 11.75631618499756 9.782331466674805 0.7999999523162842
503 11.82975292205811 5.155747890472412 -6.661338147750939e-16
504 11.82975292205811 5.155747890472412 0.7999999523162842
505 11.82975292205811 8.844252586364746 0
506 11.82510522778645 8.838849752187048 0.790878787772015
507 12.10014820098877 4.841419696807861 -6.505213034913027e-16
508 12.10014820098877 4.841419696807861 0.7999999523162842
509 12.10014820098877 9.158580780029297 2.168404344971009e-16
510 12.10014820098877 9.158580780029297 0.7999999523162842
511 12.12435531616211 3.196891307830811 0
512 12.12435531616211 3.196891307830811 0.7999999523162842
513 12.12911376296735 10.79486731177272 0
514 12.12435531616211 10.80310916900635 0.7999999523162842
515 12.38466739654541 4.510673999786377 0
516 12.38466739654541 4.510673999786377 0.7999999523162842
517 12.38466739654541 9.489326477050781 -4.336808689942018e-16
518 12.38466739654541 9.489326477050781 0.7999999523162842
519 12.47435569763184 3.803109169006348 0
520 12.47435569763184 3.803109169006348 0.7999999523162842
521 12.47435569763184 10.19689178466797 0
522 12.47034840439973 10.19457817277424 0.7999999523162842
523 7.22442102432251 11.10435724258423 0
524 7.220361404305734 11.10899702461842 0.7999999523162842
525 1.760299749912512 4.422923357296835 0.3997602484376515
526 1.760029624639446 9.576548130071185 0.3912304361722643
527 8.221780875330893 8.137884797210246 0.3998282822597041
528 4.922888994216919 8.750964164733887 0.3999999761581421
529 7.432363510131836 9.761650562286377 0.7999999523162842
530 6.23866337309711 7.000654363400439 0.400501950908352
531 8.012977069960563 9.20709936683699 0
532 7.988973142118187 8.932732598149739 0.7999999523162842
533 8.050773661060385 9.639117353041096 0.3447608122032647
534 9.650275369910217 8.052891573722118 0.3980961621818792
535 9.866549785444125 7.952041078242281 0.7999999523162842
536 9.334011576201361 7.295597596794752 0.3927189165209204
537 7.22442102432251 2.895643353462219 0
538 1.762989591381332 5.538069441372348 0
539 7.319956157799217 4.317058760331174 -1.804707437480056e-16
540 6.236238907272332 8.127324335721719 0.399992873469138
541 7.162420330303552 7.533254951897715 0.400000318056169
542 4.474434139477282 9.057868397657051 0.4026435183414745
543 4.422877940435184 9.647159776545703 0.3940767115769112
544 7.117547272187371 4.971512050050723 0.3963217530978492
545 3.585461484565618 4.189572992739564 1.003871018099026e-16
546 5.390530824661255 1.994090378284454 0.3999999761581421
547 7.448709815038124 10.26140576783387 4.130284355450037e-16
548 5.390530824661255 12.00590991973877 0.3999999761581421
549 7.448709815038124 10.26140576783387 0.7999999523162842
550 3.62813413079038 9.322677440058147 9.951501921647233e-17
551 3.585461492360055 9.810427138923334 0.7999999523162842
552 2.320986780118614 3.715034641792192 0.4030859941873495
553 5.072998788683769 3.768978689806396 0
554 8.431677923610124 4.596611032534192 0.7989443071735761
555 5.26615267883574 11.60572643659464 0.7999999523162842
556 5.319959319719299 10.56805010446525 0.7999999523162842
557 4.899644679627816 10.86235781927691 0.3901873549653128
558 10.26886871617286 8.214365363606737 -8.902631847014888e-18
559 10.36805081865341 8.158602897134516 0.7999999523162842
560 2.643909796213414 7.968876730677186 0
561 2.559669053026217 5.62999039608879 0.7999999523162842
562 6.916136488738511 4.111506546172079 0.3999999761581403
563 7.448709810773301 3.738594714619629 0
564 6.450033465929655 7.381749915943777 0.4000118381284408
565 6.029520230184895 6.619682519609589 0.3991430073992268
566 7.448709810773301 3.738594714619629 0.7999999523162842
567 5.158671353194236 11.16826020391571 0
568 2.301113202216634 8.24944350898221 0.00952654294996276
569 2.55966912756193 8.370010115504941 0.7999999523162842
570 9.740340776031795 10.14379489793441 0.7999999523162842
571 1.762989563006441 8.461930975095125 0
572 1.762989563006441 8.461930975095125 0.7999999523162842
573 5.40605712125553 8.994003511177267 0.3862496116257167
574 5.213571364653934 2.870181819158492 5.551115123125783e-17
575 10.71136607514548 8.461930841561573 -4.336808689942009e-16
576 10.66248033184483 8.484726657016115 0.7996739545623712
577 1.386896761843132 5.273028964275037 1.056607837670126e-16
578 1.386896761843132 5.273028964275037 0.7999999523162842
579 5.272205427620706 11.60148825743247 0
580 7.152333498001099 11.56660652160645 0
581 7.140719526629962 11.55847410433141 0.7999999523162842
582 5.322021722793579 2.433394312858582 0
583 4.441741755107044 4.568455502434136 0
584 5.095897120128676 10.21221488060714 0.7999999523162842
585 9.862863663648056 7.953759946415453 -2.348032833449274e-16
586 5.269874230572018 10.60312008948853 0
587 8.016882349784755 4.748263315193421 0.3970423940310758
588 7.988973116435878 5.067267906808667 0.7999999523162842
589 7.615360678379053 9.889786547087297 0.4206060446865049
590 8.449217416966659 4.513343038287907 -2.445143924103032e-16
591 9.299996034470706 4.070409105221614 0.3980639907331752
592 2.756103804431582 4.108686405471857 0.3999945251380391
593 4.046647281351363 9.358008631476899 1.663799024972469e-16
594 3.614828989040156 4.525244654248134 0.7999999523162842
595 9.828067228720622 6.038438752546745 0.7999999523162842
596 2.739958882331848 10.07585144042969 0
597 1.753510547772466 5.542489589293258 0.7999999523162842
598 5.505972061872562 5.075958211006361 0.3999093600309335
599 10.43631976233788 5.873231910553641 -3.949418126086562e-16
600 10.28807694816099 5.79298903783547 0.7999999523162842
601 9.206976071345744 6.203814168497054 0.399797287336959
602 4.012307539304461 4.249485787644383 0.3979626464752074
603 8.038367160390877 9.497310082091037 0.7999999523162842
604 5.29621939243308 3.415327205835261 0
605 5.391042745941332 3.481723253833041 0.7999999523162842
606 7.049009034093825 2.018468127600116 0.7999999523162842
607 9.361204624176025 7.282917261123657 0.7999999523162842
608 7.461281638749337 10.78293417548876 0
609 7.200678899216872 10.60045812007186 0.7999999523162842
610 4.01973173831546 9.563542473693083 0.7999999523162842
611 8.018683931059345 4.72767110860795 -2.080989464004231e-16
612 9.346406285137869 6.710182399308238 0
613 9.740340823269765 3.856205169967401 0.7999999523162842
614 4.040766915102746 4.681987183020391 0.7999999523162842
615 4.451809096823323 4.683525959322271 0.7999999523162842
616 8.419592351357533 9.265250502390485 0
617 8.479825133971531 9.953713557136032 0.3841662785322897
618 2.672548270564548 6.017769678054832 1.260181363217167e-16
619 2.853043984289442 5.933603167001896 0.401281326215965
620 2.65003919831679 6.028265828013383 0.7999999523162842
621 4.455453208954989 9.274821914942883 0
622 7.319956157799217 4.317058760331174 0.7999999523162842
623 11.0874583493994 8.726971593740881 0.7999999523162842
624 9.310377352382043 10.04825006889904 0.4153996139821545
625 5.129491567611694 9.700382232666016 0
626 4.056898481078291 4.759163395519829 1.057758596164645e-16
627 4.000073022803702 4.109644401578869 1.442047578839176e-16
628 5.222498684358453 11.12356780415278 0.7999999523162842
629 3.113150954246521 7.282917261123657 0.7999999523162842
630 5.289396950082999 4.41158534027169 0.7999999523162842
631 9.350818020521439 7.287760617445666 -2.131282697280889e-16
632 8.916352257378724 3.875723806319691 0.3796324929825633
633 8.876376935657163 4.332643211005587 -3.553799513363354e-16
634 7.434947489254363 3.235505567966929 0
635 3.178264560103628 9.884953606839089 0
636 5.03100130332799 10.25765541490943 0
637 5.39036318998993 9.517717878120116 0.7999999523162842
638 2.793060265249129 8.038426764282248 0.7999999523162842
639 9.143501198377104 6.615566214919077 0.7999999523162842
640 7.292930126190186 3.334947347640991 0.7999999523162842
641 8.877318927828499 4.321876205673058 0.7999999523162842
642 8.888893949648143 9.81042694226892 0
643 8.861027526190728 9.491912780741361 0.7999999523162842
644 3.113150954246521 6.717082977294922 0.7999999523162842
645 7.173626001664716 9.580480625232585 6.902532920683853e-31
646 8.424576598399589 9.322220640499008 0.7999999523162842
647 3.127948994346206 7.289817704172351 0
648 5.213673191360561 4.35856298285032 0
649 10.57451857344726 5.474256601326136 0.3972484549537064
650 5.432123899459839 7.868943452835083 0.3999999761581421
651 5.226195248685251 2.867957744355082 0.7999999523162842
652 7.22442102432251 2.895643353462219 0.7999999523162842
653 3.176322102546692 4.092844009399414 1.084202172485504e-16
654 3.176322102546692 4.092844009399414 0.7999999523162842
655 3.169706254082475 9.982775458313508 0.7999999523162842
656 9.298033237457275 4.092844009399414 -2.168404344971009e-16
657 9.298033237457275 4.092844009399414 0.7999999523162842
658 9.30139345527836 9.945563510235454 1.110223024625157e-16
659 9.307877757134264 9.980614966569613 0.7999999523162842
660 2.189078807830811 5.802799463272095 1.084202172485504e-16
661 6.23737390751379 5.933915879156591 0.3871106386213565
662 5.251770607485723 7.569158792954319 0.3999999761581344
663 7.216763819950187 6.434318208846049 0.4005700233658822
664 7.042231321334839 7.868943452835083 0.3999999761581421
665 7.392231225967407 7.262725353240967 0.3999999761581418
666 5.042141594788208 7.28580920735176 0.3999999761581387
667 5.462618350982666 12.46815919876099 0.3999999761581421
668 4.863125241400222 9.886894021900169 0.4058969173072832
669 4.925622150924713 5.280276440122221 0.3999440957542441
670 7.537739963766612 5.405928233528436 0.4007463294291356
671 7.538644562013616 8.604411962715268 0.3996978478919432
672 1.478609174489975 8.769737720489502 0.3999999761581421
673 11.05477870143186 5.257790106156067 0.3978862342922307
674 5.887177467346191 8.13166880607605 0.3999999761581421
675 6.587177753448486 8.13166880607605 0.3999999761581421
676 6.587177753448486 5.929063322425573 0.3988663328641988
677 5.082123994827271 6.737274885177612 0.3999999761581421
678 2.096909311580652 8.154221672159714 0.3950724351547454
679 7.121223784286371 11.54482303458096 0.3951518185315234
680 10.20742029507421 7.793090424251177 0.3543244026960968
681 9.734396457672119 3.92414915561676 -5.421010862427522e-16
682 4.891559115521989 3.131980939598793 0.3876748557599954
683 3.113150954246521 6.717082977294922 -2.168404344971009e-16
684 3.572034403326876 4.036100957942509 0.7999999523162842
685 3.572034418262317 9.963899049466329 4.975750960823617e-17
686 10.03615244108412 7.413098737805056 1.112074480339745e-16
687 10.40655780641143 7.480341303933473 0.5926328005996673
688 10.62913423454314 8.036857702429931 0.001449838500677036
689 10.49037699290395 7.661145445437934 0.5310710106830243
690 10.71947579878014 7.554314715952958 0.5336005726885371
691 10.52454654889788 7.645211907280834 0.2165258067305424
692 8.474659666737116 9.894672065160087 0
693 10.35711220001541 7.491578409569867 4.971939641231859e-17
694 10.57694159472129 7.387890555125483 0.6089751499802337
695 7.543042659759521 11.32745862007141 0.3999999761581421
696 10.56780318786053 7.377267374246705 -8.587036931541429e-17
697 10.61693913630065 7.434386747008608 0.1408660144754055
698 4.942111904747896 9.831586941173626 0.7999999523162842
699 5.601857809054366 10.85793755852961 0.3999999761581421
700 5.386389268084785 9.007775076618374 0
701 7.094858101304019 9.012600829301112 -1.710519756609972e-16
702 7.07944660630106 9.001809589650296 0.7999999523162842
703 4.696866013959428 10.49161943334209 0.3987912287567499
704 7.011736869812012 12.46815919876099 0
705 5.475776395905762 9.946220582165759 0.4130189906309382
706 4.486680018500919 5.082103160994364 0.3971395134606058
707 4.002666574008307 4.139288874677693 0.7999999523162842
708 4.41180738235026 4.226303418313174 0.3999999761581421
709 6.237177610397339 5.868331909179688 0.7999999523162842
710 5.440972536443313 2.029409937878552 0
711 5.390530824661255 12.00590991973877 0.7999999523162842
712 7.083824396133423 12.00590991973877 0.7999999523162842
713 4.708132701484817 3.516269700627134 0.4409350155007796
714 3.984035617691623 10.07366445105085 0.4009981306619145
715 7.130993236751024 10.03893845799063 0.4137048258164049
716 5.539750315594389 12.90142545083708 0.4060228469461724
717 7.789576768875122 11.75644636154175 0.3999999761581421
718 6.239431886078881 10.91588363857993 0.4009683537581496
719 6.187751290102135 8.900016807476467 0.3996592484268093
720 6.220439202557386 9.91348802082303 0.4128765256851288
721 6.27934732807019 11.91996471407278 0.3943148427413437
722 6.19336028336111 12.91966429052983 0.4002325228126695
723 6.943227767944336 12.90746307373047 0
724 6.237177610397339 9.914516925811768 0.7999999523162842
725 8.479291272328723 9.947611497734686 0.7999999523162842
726 6.243116258863946 9.412552758768035 0.4006732725560047
727 7.327211382857397 10.68905714454201 0.4044101112111162
728 6.243684797263989 10.40116263644244 0.4008234065539224
729 6.245739457838504 12.41150959634193 0.3996953592130617
730 6.237916505684593 11.41583427085936 0.3997997944803984
731 7.759683105261556 10.47915138149396 0.3701635665497347
732 6.587177753448486 13.58543968200684 0.3999999761581421
733 7.099236726760864 12.52942752838135 0.3999999761581421
734 10.09234666633114 7.383331103799617 0.4020474639015971
735 7.638087777291098 9.905700231592123 3.451266460341927e-31
736 4.612690925598145 2.449440717697144 0.3999999761581421
737 6.587177753448486 9.169844627380371 0.3999999761581421
738 7.86135643890656 11.55143925386556 0.4084672907122761
739 3.944628238677979 3.475906610488892 0.3999999761581422
740 8.918844467563487 10.15276237385743 0.430745421347993
741 3.549236779979099 3.775523280522564 0.3778046630576116
742 3.548169190393585 10.23667941024315 0.3909241095285003
743 10.43540668487549 7.22335958480835 0.3999999761581422
744 5.564245732756457 3.115726706792984 0.3999999761581421
745 3.944628238677979 10.52409362792969 0.3999999761581423
746 4.933357733902063 3.161248656564348 0.7999999523162842
747 4.796046718286397 10.92939180715866 0.7999999523162842
748 8.908842927601823 10.07009552139933 0.7999999523162842
749 3.142421543598175 3.705358982086182 0.3999999761581422
750 7.542852113058922 11.32732533750007 0.7999999523162842
751 4.927002461882434 2.669524071027908 0.3999999761581421
752 6.894097582658549 10.38578725663227 0.7999999523162842
753 6.959708466253539 10.43172875767859 0.3899648136906014
754 5.887177467346191 5.918394597999477 0.3999999761581429
755 5.368763928519798 6.094476358717649 0.4112812672979562
756 7.042231321334839 6.131057262420654 0.3999999761581421
757 7.392231225967407 6.737274885177612 0.3999999761581418
758 7.046727815284294 10.49266037944345 0
759 7.759345513315208 5.083879154052807 0.4137185012502241
760 7.76951198670745 8.894797043348765 0.388079447643435
761 11.36002159118652 9.063292026519775 0.3999999761581421
762 1.114333540201187 4.936708450317383 0.3999999761581422
763 5.423790903425924 1.504653943067543 0.3968395950904685
764 7.011736869812012 1.531841218471527 0.3999999761581421
765 10.6918338375255 8.007620397766308 0.384385225701961
766 7.017943784243306 9.959780127721867 2.065142177725018e-16
767 4.869015572534984 11.37107946185332 0.3997140238752258
768 7.651486687690323 10.91611722303997 0.4571303263927001
769 6.962865719692689 12.9212135370765 0.3829767685255993
770 8.04920153144629 9.662339989703916 0
771 5.038156507945135 11.76537103029139 0.4069190989965535
772 5.56826070844579 10.39418746126836 0.3727123492903983
773 7.599849955400249 10.87996078339618 0.7999999523162842
774 4.872773476217406 10.88117325351502 0
775 6.583167490161648 9.92288627813633 0.4368616861050882
776 6.824663902701679 11.82444453422934 0.3453479409530339
777 7.028375303468591 9.478775000852441 0.4292953952049623
778 4.857702111820165 3.108274002861403 0
779 10.31977075446652 7.74070050346868 -1.058427831178008e-16
780 10.5607788768437 7.36910177956291 0.3222362733850855
781 4.690972864853663 11.77413798200778 0.4341558035283622
782 6.83073984294165 10.08818211947377 0.3916315057710257
783 3.973318077245027 3.803833487776057 0.5343668863974111
784 3.979606058632408 3.875705558299721 0.1959684273683711
785 6.829312847554102 9.827699796857702 0.3294609282366863
786 10.32052994507499 7.740346426785273 0.7999999523162842
787 6.902059457362698 10.87863755617621 0.4352386279039077
788 4.441618332621506 9.43295563121346 0.7999999523162842
789 7.037997664108807 9.485512649683585 0.7999999523162842
790 10.71992492675781 7.554105281829834 0.2490212864290448
791 4.472662140969617 2.849372500010848 0.3848145231356603
792 4.617021149927044 11.54752794039373 0.4214947762283017
793 6.587177753448486 9.650482607130256 0.3999999761581419
794 6.587177753448486 10.17087936401367 0.3999999761581421
795 6.587177753448486 12.17087936401367 0.3999999761581421
796 6.587177753448486 12.65815448760986 0.3999999761581421
797 7.998682498931885 11.1592264175415 0.3999999761581421
798 8.142857551574707 10.74745273590088 0.3999999761581421
799 8.529726982116699 10.52409362792969 0.3999999761581421
800 10.99032115936279 7.868433475494385 0.4166019953225045
801 3.765044861621798 3.832739801614228 1.586137681535018e-16
802 2.336727260958492 6.174365544701817 0.3978379846576491
803 7.227088541235263 12.10622474781239 0.3927293369548009
804 5.257123947143555 6.434165954589844 0
$EndNodes
$Elements
1493
1 4 2 0 0 570 426 624 427
2 4 2 0 0 214 266 264 263
3 4 2 0 0 221 218 219 546
4 4 2 0 0 336 279 539 622
5 4 2 0 0 466 449 437 436
6 4 2 0 0 220 221 546 218
7 4 2 0 0 326 327 733 803
8 4 2 0 0 119 146 138 130
9 4 2 0 0 421 309 595 601
10 4 2 0 0 605 260 553 713
11 4 2 0 0 156 124 136 123
12 4 2 0 0 737 287 719 289
13 4 2 0 0 523 787 679 297
14 4 2 0 0 305 321 769 723
15 4 2 0 0 293 291 775 720
16 4 2 0 0 466 448 436 465
17 4 2 0 0 172 147 139 148
18 4 2 0 0 418 432 433 406
19 4 2 0 0 385 374 386 527
20 4 2 0 0 432 558 433 414
21 4 2 0 0 524 298 679 787
22 4 2 0 0 524 787 679 523
23 4 2 0 0 400 401 405 413
24 4 2 0 0 149 193 177 194
25 4 2 0 0 564 313 314 530
26 4 2 0 0 413 417 412 431
27 4 2 0 0 492 475 488 487
28 4 2 0 0 211 210 236 530
29 4 2 0 0 237 530 564 314
30 4 2 0 0 237 236 530 211
31 4 2 0 0 570 624 411 427
32 4 2 0 0 559 433 558 414
33 4 2 0 0 431 447 435 434
34 4 2 0 0 536 388 399 389
35 4 2 0 0 536 398 399 388
36 4 2 0 0 616 392 393 377
37 4 2 0 0 423 680 534 535
38 4 2 0 0 440 452 437 436
39 4 2 0 0 440 453 437 452
40 4 2 0 0 451 450 454 439
41 4 2 0 0 71 88 87 83
42 4 2 0 0 72 88 71 83
43 4 2 0 0 468 464 467 450
44 4 2 0 0 463 467 464 450
45 4 2 0 0 211 565 677 210
46 4 2 0 0 492 487 491 475
47 4 2 0 0 528 542 188 187
48 4 2 0 0 441 453 437 440
49 4 2 0 0 385 534 402 403
50 4 2 0 0 36 55 39 35
51 4 2 0 0 528 171 542 187
52 4 2 0 0 456 453 440 452
53 4 2 0 0 72 84 88 83
54 4 2 0 0 728 295 296 794
55 4 2 0 0 384 401 391 383
56 4 2 0 0 451 450 439 435
57 4 2 0 0 540 237 236 564
58 4 2 0 0 674 237 540 239
59 4 2 0 0 239 540 674 238
60 4 2 0 0 564 236 540 285
61 4 2 0 0 285 564 541 286
62 4 2 0 0 664 330 331 541
63 4 2 0 0 196 171 151 172
64 4 2 0 0 432 436 433 448
65 4 2 0 0 777 589 339 338
66 4 2 0 0 439 450 434 435
67 4 2 0 0 36 40 39 56
68 4 2 0 0 438 450 434 439
69 4 2 0 0 304 729 302 255
70 4 2 0 0 622 544 280 337
71 4 2 0 0 282 279 281 544
72 4 2 0 0 622 544 279 280
73 4 2 0 0 287 701 289 737
74 4 2 0 0 373 370 369 389
75 4 2 0 0 195 171 196 528
76 4 2 0 0 31 47 36 35
77 4 2 0 0 304 729 722 796
78 4 2 0 0 196 171 172 528
79 4 2 0 0 526 72 88 71
80 4 2 0 0 48 36 55 56
81 4 2 0 0 418 419 433 437
82 4 2 0 0 623 466 465 448
83 4 2 0 0 570 419 659 624
84 4 2 0 0 484 467 468 464
85 4 2 0 0 793 726 720 291
86 4 2 0 0 530 210 236 313
87 4 2 0 0 530 210 313 283
88 4 2 0 0 298 718 247 249
89 4 2 0 0 527 355 374 378
90 4 2 0 0 546 763 190 189
91 4 2 0 0 711 548 253 251
92 4 2 0 0 252 548 253 667
93 4 2 0 0 237 530 314 211
94 4 2 0 0 609 549 752 753
95 4 2 0 0 373 389 374 370
96 4 2 0 0 527 374 386 378
97 4 2 0 0 314 530 284 211
98 4 2 0 0 224 276 275 226
99 4 2 0 0 69 85 552 81
100 4 2 0 0 65 82 81 552
101 4 2 0 0 65 552 81 69
102 4 2 0 0 196 180 151 179
103 4 2 0 0 354 373 377 527
104 4 2 0 0 646 616 393 377
105 4 2 0 0 509 518 502 510
106 4 2 0 0 497 761 506 505
107 4 2 0 0 769 304 322 306
108 4 2 0 0 36 47 31 48
109 4 2 0 0 466 436 437 452
110 4 2 0 0 624 426 418 658
111 4 2 0 0 712 335 803 327
112 4 2 0 0 236 313 564 530
113 4 2 0 0 237 530 236 564
114 4 2 0 0 237 564 540 286
115 4 2 0 0 285 313 564 236
116 4 2 0 0 624 570 418 426
117 4 2 0 0 285 286 540 564
118 4 2 0 0 565 210 530 283
119 4 2 0 0 211 210 530 565
120 4 2 0 0 210 234 283 565
121 4 2 0 0 677 565 235 234
122 4 2 0 0 228 231 229 280
123 4 2 0 0 211 565 235 677
124 4 2 0 0 98 106 596 655
125 4 2 0 0 95 592 653 103
126 4 2 0 0 385 527 373 374
127 4 2 0 0 654 104 592 96
128 4 2 0 0 649 431 480 600
129 4 2 0 0 537 340 652 271
130 4 2 0 0 346 347 373 527
131 4 2 0 0 323 652 340 271
132 4 2 0 0 228 280 230 231
133 4 2 0 0 136 156 135 152
134 4 2 0 0 377 403 393 386
135 4 2 0 0 373 389 369 388
136 4 2 0 0 392 377 403 393
137 4 2 0 0 418 433 419 406
138 4 2 0 0 378 377 393 386
139 4 2 0 0 551 714 593 685
140 4 2 0 0 431 435 417 434
141 4 2 0 0 346 331 347 355
142 4 2 0 0 527 347 374 355
143 4 2 0 0 624 411 427 410
144 4 2 0 0 678 572 92 571
145 4 2 0 0 532 760 354 355
146 4 2 0 0 600 430 431 412
147 4 2 0 0 372 371 345 368
148 4 2 0 0 417 412 416 404
149 4 2 0 0 502 486 470 469
150 4 2 0 0 490 470 469 502
151 4 2 0 0 623 761 498 497
152 4 2 0 0 466 449 436 448
153 4 2 0 0 477 490 470 469
154 4 2 0 0 466 452 470 486
155 4 2 0 0 489 494 493 477
156 4 2 0 0 486 465 452 469
157 4 2 0 0 294 720 292 724
158 4 2 0 0 326 335 803 334
159 4 2 0 0 210 565 677 234
160 4 2 0 0 529 363 603 589
161 4 2 0 0 533 589 363 362
162 4 2 0 0 704 326 803 334
163 4 2 0 0 326 327 803 335
164 4 2 0 0 301 299 311 776
165 4 2 0 0 533 603 363 589
166 4 2 0 0 310 775 782 785
167 4 2 0 0 354 527 346 373
168 4 2 0 0 584 556 636 557
169 4 2 0 0 121 147 148 139
170 4 2 0 0 403 393 407 392
171 4 2 0 0 385 403 392 377
172 4 2 0 0 390 400 383 391
173 4 2 0 0 211 236 210 662
174 4 2 0 0 531 760 338 354
175 4 2 0 0 489 494 477 490
176 4 2 0 0 477 494 478 490
177 4 2 0 0 489 490 502 514
178 4 2 0 0 377 378 527 386
179 4 2 0 0 489 501 502 469
180 4 2 0 0 489 469 502 490
181 4 2 0 0 531 533 339 532
182 4 2 0 0 509 510 502 486
183 4 2 0 0 497 498 506 761
184 4 2 0 0 466 453 470 452
185 4 2 0 0 237 314 564 286
186 4 2 0 0 284 565 530 283
187 4 2 0 0 509 518 501 502
188 4 2 0 0 486 470 469 452
189 4 2 0 0 780 691 689 790
190 4 2 0 0 406 407 433 419
191 4 2 0 0 534 423 422 680
192 4 2 0 0 406 432 433 414
193 4 2 0 0 352 588 759 587
194 4 2 0 0 406 433 415 414
195 4 2 0 0 403 402 406 414
196 4 2 0 0 284 283 530 314
197 4 2 0 0 406 415 433 407
198 4 2 0 0 448 449 436 433
199 4 2 0 0 209 256 204 208
200 4 2 0 0 402 403 392 385
201 4 2 0 0 373 527 347 374
202 4 2 0 0 619 99 138 119
203 4 2 0 0 500 499 488 483
204 4 2 0 0 619 138 99 100
205 4 2 0 0 119 137 99 138
206 4 2 0 0 369 388 399 398
207 4 2 0 0 436 433 437 418
208 4 2 0 0 432 433 436 418
209 4 2 0 0 624 406 418 419
210 4 2 0 0 436 433 449 437
211 4 2 0 0 466 436 452 465
212 4 2 0 0 466 437 453 452
213 4 2 0 0 479 649 599 430
214 4 2 0 0 214 215 212 264
215 4 2 0 0 354 355 527 378
216 4 2 0 0 354 378 527 377
217 4 2 0 0 385 386 403 377
218 4 2 0 0 262 263 212 264
219 4 2 0 0 355 346 354 527
220 4 2 0 0 346 347 527 355
221 4 2 0 0 385 527 377 373
222 4 2 0 0 701 777 702 339
223 4 2 0 0 385 377 527 386
224 4 2 0 0 555 767 579 567
225 4 2 0 0 330 355 331 346
226 4 2 0 0 330 346 354 355
227 4 2 0 0 671 760 354 338
228 4 2 0 0 214 263 264 212
229 4 2 0 0 212 264 215 213
230 4 2 0 0 262 264 212 213
231 4 2 0 0 369 370 373 347
232 4 2 0 0 624 410 427 426
233 4 2 0 0 520 512 500 499
234 4 2 0 0 512 511 488 499
235 4 2 0 0 520 511 512 499
236 4 2 0 0 780 734 743 687
237 4 2 0 0 500 488 499 512
238 4 2 0 0 563 562 275 276
239 4 2 0 0 34 2 22 1
240 4 2 0 0 447 450 435 434
241 4 2 0 0 34 1 10 2
242 4 2 0 0 33 1 34 21
243 4 2 0 0 9 10 34 1
244 4 2 0 0 21 22 1 34
245 4 2 0 0 612 399 398 387
246 4 2 0 0 509 518 517 501
247 4 2 0 0 9 1 34 33
248 4 2 0 0 3 23 11 24
249 4 2 0 0 3 11 12 24
250 4 2 0 0 624 407 406 419
251 4 2 0 0 485 469 465 486
252 4 2 0 0 485 486 502 469
253 4 2 0 0 485 501 469 502
254 4 2 0 0 485 502 509 501
255 4 2 0 0 485 502 486 509
256 4 2 0 0 452 465 486 466
257 4 2 0 0 353 352 371 376
258 4 2 0 0 463 483 464 467
259 4 2 0 0 86 70 525 69
260 4 2 0 0 214 216 266 265
261 4 2 0 0 371 329 328 352
262 4 2 0 0 451 464 468 450
263 4 2 0 0 431 416 434 417
264 4 2 0 0 600 431 413 412
265 4 2 0 0 372 387 371 368
266 4 2 0 0 263 266 320 265
267 4 2 0 0 554 641 632 633
268 4 2 0 0 226 276 278 227
269 4 2 0 0 344 329 328 371
270 4 2 0 0 368 399 387 398
271 4 2 0 0 521 502 522 513
272 4 2 0 0 513 502 522 514
273 4 2 0 0 489 514 502 513
274 4 2 0 0 489 501 513 502
275 4 2 0 0 521 502 513 501
276 4 2 0 0 226 278 229 227
277 4 2 0 0 345 371 344 368
278 4 2 0 0 222 272 271 274
279 4 2 0 0 670 352 759 336
280 4 2 0 0 450 434 447 463
281 4 2 0 0 417 404 405 412
282 4 2 0 0 413 405 412 417
283 4 2 0 0 488 511 487 499
284 4 2 0 0 463 447 446 434
285 4 2 0 0 475 488 468 476
286 4 2 0 0 681 591 408 424
287 4 2 0 0 450 464 463 447
288 4 2 0 0 613 409 591 425
289 4 2 0 0 409 408 591 425
290 4 2 0 0 218 221 270 220
291 4 2 0 0 223 651 225 744
292 4 2 0 0 214 264 266 215
293 4 2 0 0 345 329 344 371
294 4 2 0 0 37 57 525 53
295 4 2 0 0 263 320 266 264
296 4 2 0 0 324 764 333 332
297 4 2 0 0 223 221 220 272
298 4 2 0 0 475 488 467 468
299 4 2 0 0 681 591 416 656
300 4 2 0 0 391 383 390 375
301 4 2 0 0 488 467 483 487
302 4 2 0 0 224 276 225 274
303 4 2 0 0 488 499 487 483
304 4 2 0 0 508 499 507 515
305 4 2 0 0 475 467 488 487
306 4 2 0 0 425 424 408 591
307 4 2 0 0 391 376 384 383
308 4 2 0 0 508 499 483 507
309 4 2 0 0 429 536 399 607
310 4 2 0 0 607 536 399 389
311 4 2 0 0 508 515 516 499
312 4 2 0 0 431 412 416 417
313 4 2 0 0 492 488 475 476
314 4 2 0 0 484 508 500 483
315 4 2 0 0 431 416 412 430
316 4 2 0 0 500 483 508 499
317 4 2 0 0 500 516 499 508
318 4 2 0 0 520 499 519 511
319 4 2 0 0 591 416 417 613
320 4 2 0 0 417 404 416 591
321 4 2 0 0 417 591 405 404
322 4 2 0 0 484 464 483 467
323 4 2 0 0 384 401 383 601
324 4 2 0 0 484 488 483 500
325 4 2 0 0 484 488 468 467
326 4 2 0 0 484 467 483 488
327 4 2 0 0 435 450 447 464
328 4 2 0 0 435 464 451 450
329 4 2 0 0 431 430 434 416
330 4 2 0 0 329 344 663 345
331 4 2 0 0 400 405 404 412
332 4 2 0 0 496 464 447 673
333 4 2 0 0 431 430 446 434
334 4 2 0 0 431 434 446 447
335 4 2 0 0 472 480 600 479
336 4 2 0 0 353 371 372 376
337 4 2 0 0 633 590 379 554
338 4 2 0 0 588 352 759 353
339 4 2 0 0 383 372 371 376
340 4 2 0 0 329 371 353 352
341 4 2 0 0 329 663 344 328
342 4 2 0 0 345 314 757 663
343 4 2 0 0 345 663 757 344
344 4 2 0 0 372 376 383 384
345 4 2 0 0 391 400 383 401
346 4 2 0 0 329 371 372 353
347 4 2 0 0 329 372 371 345
348 4 2 0 0 376 352 371 375
349 4 2 0 0 383 371 375 376
350 4 2 0 0 391 383 375 376
351 4 2 0 0 257 306 722 732
352 4 2 0 0 630 186 648 162
353 4 2 0 0 216 217 268 219
354 4 2 0 0 258 732 308 259
355 4 2 0 0 323 349 341 340
356 4 2 0 0 606 268 764 333
357 4 2 0 0 226 278 276 275
358 4 2 0 0 222 225 223 274
359 4 2 0 0 263 320 319 265
360 4 2 0 0 222 272 220 271
361 4 2 0 0 222 272 223 220
362 4 2 0 0 315 320 263 264
363 4 2 0 0 272 271 652 323
364 4 2 0 0 606 267 268 270
365 4 2 0 0 315 316 320 264
366 4 2 0 0 269 271 220 272
367 4 2 0 0 262 212 263 261
368 4 2 0 0 325 764 333 324
369 4 2 0 0 325 333 764 268
370 4 2 0 0 764 606 333 332
371 4 2 0 0 214 265 266 263
372 4 2 0 0 265 266 268 216
373 4 2 0 0 270 221 272 220
374 4 2 0 0 45 46 34 29
375 4 2 0 0 119 146 129 137
376 4 2 0 0 119 146 130 129
377 4 2 0 0 228 278 280 229
378 4 2 0 0 57 577 25 578
379 4 2 0 0 152 151 180 156
380 4 2 0 0 273 274 222 271
381 4 2 0 0 267 220 218 270
382 4 2 0 0 269 267 270 220
383 4 2 0 0 222 223 272 274
384 4 2 0 0 582 751 574 173
385 4 2 0 0 90 89 660 107
386 4 2 0 0 152 151 139 172
387 4 2 0 0 104 90 108 103
388 4 2 0 0 148 121 122 132
389 4 2 0 0 13 5 22 6
390 4 2 0 0 153 154 149 178
391 4 2 0 0 145 170 150 146
392 4 2 0 0 578 57 58 762
393 4 2 0 0 237 662 236 211
394 4 2 0 0 218 219 268 221
395 4 2 0 0 149 145 150 137
396 4 2 0 0 214 217 215 266
397 4 2 0 0 133 150 149 154
398 4 2 0 0 104 116 592 103
399 4 2 0 0 77 100 62 802
400 4 2 0 0 74 525 58 57
401 4 2 0 0 762 58 26 18
402 4 2 0 0 45 33 34 53
403 4 2 0 0 578 58 57 74
404 4 2 0 0 85 74 90 73
405 4 2 0 0 104 116 103 108
406 4 2 0 0 602 130 626 129
407 4 2 0 0 49 41 538 597
408 4 2 0 0 85 104 74 86
409 4 2 0 0 33 29 45 34
410 4 2 0 0 647 123 135 136
411 4 2 0 0 597 42 50 41
412 4 2 0 0 70 525 54 58
413 4 2 0 0 70 86 525 58
414 4 2 0 0 74 86 58 525
415 4 2 0 0 85 103 90 104
416 4 2 0 0 38 54 37 58
417 4 2 0 0 196 650 662 195
418 4 2 0 0 650 236 662 195
419 4 2 0 0 277 226 278 228
420 4 2 0 0 96 112 749 654
421 4 2 0 0 654 592 104 116
422 4 2 0 0 273 274 276 224
423 4 2 0 0 216 217 266 268
424 4 2 0 0 29 34 30 46
425 4 2 0 0 53 57 525 69
426 4 2 0 0 631 388 398 536
427 4 2 0 0 207 206 202 214
428 4 2 0 0 53 525 70 69
429 4 2 0 0 269 270 272 220
430 4 2 0 0 216 219 268 218
431 4 2 0 0 267 268 270 218
432 4 2 0 0 763 198 219 190
433 4 2 0 0 202 203 214 217
434 4 2 0 0 53 54 70 525
435 4 2 0 0 270 268 221 218
436 4 2 0 0 267 218 216 268
437 4 2 0 0 267 268 216 265
438 4 2 0 0 214 266 216 217
439 4 2 0 0 214 202 217 216
440 4 2 0 0 214 215 217 203
441 4 2 0 0 277 275 278 226
442 4 2 0 0 107 116 130 108
443 4 2 0 0 620 62 100 802
444 4 2 0 0 619 100 99 802
445 4 2 0 0 107 120 130 119
446 4 2 0 0 597 660 561 90
447 4 2 0 0 615 170 186 706
448 4 2 0 0 115 116 103 592
449 4 2 0 0 69 85 86 552
450 4 2 0 0 85 86 525 69
451 4 2 0 0 17 762 57 25
452 4 2 0 0 73 85 74 57
453 4 2 0 0 73 90 85 103
454 4 2 0 0 107 108 130 120
455 4 2 0 0 683 133 123 134
456 4 2 0 0 56 55 39 36
457 4 2 0 0 85 525 74 57
458 4 2 0 0 37 38 22 34
459 4 2 0 0 194 169 193 669
460 4 2 0 0 154 134 124 123
461 4 2 0 0 277 278 280 228
462 4 2 0 0 273 222 274 224
463 4 2 0 0 133 154 134 150
464 4 2 0 0 154 150 149 178
465 4 2 0 0 273 275 224 276
466 4 2 0 0 230 233 231 282
467 4 2 0 0 230 282 232 233
468 4 2 0 0 119 130 138 120
469 4 2 0 0 224 227 276 226
470 4 2 0 0 230 232 282 281
471 4 2 0 0 230 280 282 231
472 4 2 0 0 228 229 226 278
473 4 2 0 0 224 276 227 225
474 4 2 0 0 137 146 150 138
475 4 2 0 0 119 138 146 137
476 4 2 0 0 149 177 178 194
477 4 2 0 0 89 90 73 103
478 4 2 0 0 89 103 107 90
479 4 2 0 0 224 274 225 222
480 4 2 0 0 279 230 228 280
481 4 2 0 0 279 280 228 277
482 4 2 0 0 279 281 230 282
483 4 2 0 0 279 280 282 230
484 4 2 0 0 149 194 169 193
485 4 2 0 0 150 194 169 149
486 4 2 0 0 149 178 150 194
487 4 2 0 0 170 194 169 150
488 4 2 0 0 145 150 170 169
489 4 2 0 0 145 149 150 169
490 4 2 0 0 137 129 145 146
491 4 2 0 0 137 150 146 145
492 4 2 0 0 602 594 130 129
493 4 2 0 0 230 598 185 186
494 4 2 0 0 186 648 185 230
495 4 2 0 0 230 598 186 231
496 4 2 0 0 630 648 186 230
497 4 2 0 0 630 230 186 231
498 4 2 0 0 749 654 592 96
499 4 2 0 0 504 503 463 495
500 4 2 0 0 85 86 74 525
501 4 2 0 0 37 21 33 34
502 4 2 0 0 673 463 495 504
503 4 2 0 0 673 464 463 504
504 4 2 0 0 37 34 22 21
505 4 2 0 0 20 28 19 60
506 4 2 0 0 672 28 60 19
507 4 2 0 0 107 103 108 90
508 4 2 0 0 19 59 60 672
509 4 2 0 0 107 103 116 108
510 4 2 0 0 107 116 103 115
511 4 2 0 0 85 525 57 69
512 4 2 0 0 85 104 90 74
513 4 2 0 0 749 592 654 653
514 4 2 0 0 65 66 82 70
515 4 2 0 0 70 82 65 552
516 4 2 0 0 70 552 65 69
517 4 2 0 0 67 68 72 84
518 4 2 0 0 67 72 71 83
519 4 2 0 0 67 84 72 83
520 4 2 0 0 45 53 34 54
521 4 2 0 0 13 6 22 14
522 4 2 0 0 77 99 100 802
523 4 2 0 0 153 178 149 177
524 4 2 0 0 37 525 54 53
525 4 2 0 0 37 38 34 54
526 4 2 0 0 37 54 34 53
527 4 2 0 0 37 33 53 34
528 4 2 0 0 37 525 57 58
529 4 2 0 0 37 58 54 525
530 4 2 0 0 13 14 22 38
531 4 2 0 0 13 38 22 37
532 4 2 0 0 13 21 37 22
533 4 2 0 0 13 5 21 22
534 4 2 0 0 39 15 24 23
535 4 2 0 0 454 451 439 455
536 4 2 0 0 526 71 88 87
537 4 2 0 0 56 55 72 526
538 4 2 0 0 91 568 109 569
539 4 2 0 0 456 457 441 453
540 4 2 0 0 75 106 91 87
541 4 2 0 0 36 39 23 35
542 4 2 0 0 526 60 88 72
543 4 2 0 0 152 156 135 151
544 4 2 0 0 526 75 60 59
545 4 2 0 0 109 105 118 117
546 4 2 0 0 236 237 540 674
547 4 2 0 0 674 540 236 238
548 4 2 0 0 172 151 147 171
549 4 2 0 0 286 540 675 285
550 4 2 0 0 196 237 662 650
551 4 2 0 0 664 331 286 541
552 4 2 0 0 541 313 314 564
553 4 2 0 0 283 676 661 281
554 4 2 0 0 281 676 661 282
555 4 2 0 0 662 666 211 180
556 4 2 0 0 275 634 563 276
557 4 2 0 0 294 296 794 728
558 4 2 0 0 726 290 793 292
559 4 2 0 0 151 156 135 155
560 4 2 0 0 566 634 276 563
561 4 2 0 0 541 286 564 314
562 4 2 0 0 171 196 179 195
563 4 2 0 0 285 564 313 541
564 4 2 0 0 276 634 566 640
565 4 2 0 0 665 314 347 541
566 4 2 0 0 304 255 722 729
567 4 2 0 0 121 132 148 131
568 4 2 0 0 152 151 172 180
569 4 2 0 0 36 48 31 32
570 4 2 0 0 596 97 114 113
571 4 2 0 0 148 147 121 131
572 4 2 0 0 180 155 151 179
573 4 2 0 0 530 313 314 283
574 4 2 0 0 153 149 154 133
575 4 2 0 0 637 187 188 668
576 4 2 0 0 24 12 3 4
577 4 2 0 0 36 23 39 24
578 4 2 0 0 571 678 91 92
579 4 2 0 0 599 430 649 600
580 4 2 0 0 523 297 679 580
581 4 2 0 0 152 139 148 172
582 4 2 0 0 581 298 679 524
583 4 2 0 0 796 722 305 303
584 4 2 0 0 777 645 701 289
585 4 2 0 0 796 306 305 722
586 4 2 0 0 301 803 776 311
587 4 2 0 0 294 794 775 720
588 4 2 0 0 721 299 300 730
589 4 2 0 0 721 729 302 795
590 4 2 0 0 795 312 302 712
591 4 2 0 0 567 248 555 699
592 4 2 0 0 567 699 555 628
593 4 2 0 0 253 721 302 251
594 4 2 0 0 253 729 302 721
595 4 2 0 0 36 23 11 35
596 4 2 0 0 24 7 23 15
597 4 2 0 0 24 40 15 39
598 4 2 0 0 8 7 24 16
599 4 2 0 0 36 35 47 55
600 4 2 0 0 76 28 60 672
601 4 2 0 0 16 15 7 24
602 4 2 0 0 16 40 15 24
603 4 2 0 0 24 40 39 36
604 4 2 0 0 526 55 72 71
605 4 2 0 0 526 71 59 55
606 4 2 0 0 526 39 55 59
607 4 2 0 0 60 76 75 88
608 4 2 0 0 526 87 59 71
609 4 2 0 0 526 75 87 88
610 4 2 0 0 526 59 87 75
611 4 2 0 0 526 60 75 88
612 4 2 0 0 526 59 60 39
613 4 2 0 0 243 726 720 292
614 4 2 0 0 106 105 118 91
615 4 2 0 0 51 571 43 572
616 4 2 0 0 526 56 39 60
617 4 2 0 0 92 678 91 569
618 4 2 0 0 78 100 62 77
619 4 2 0 0 121 118 117 109
620 4 2 0 0 110 118 109 91
621 4 2 0 0 91 105 118 109
622 4 2 0 0 88 92 76 75
623 4 2 0 0 88 87 106 75
624 4 2 0 0 172 147 151 139
625 4 2 0 0 148 152 140 139
626 4 2 0 0 188 172 788 542
627 4 2 0 0 140 139 121 148
628 4 2 0 0 140 122 148 121
629 4 2 0 0 593 550 131 132
630 4 2 0 0 621 187 543 542
631 4 2 0 0 187 188 543 542
632 4 2 0 0 298 297 718 730
633 4 2 0 0 298 730 718 249
634 4 2 0 0 298 296 247 718
635 4 2 0 0 251 302 300 721
636 4 2 0 0 205 255 716 257
637 4 2 0 0 251 730 721 300
638 4 2 0 0 106 92 91 110
639 4 2 0 0 245 724 720 294
640 4 2 0 0 298 299 730 300
641 4 2 0 0 98 97 114 596
642 4 2 0 0 257 255 716 722
643 4 2 0 0 257 722 716 256
644 4 2 0 0 209 716 256 257
645 4 2 0 0 196 151 180 172
646 4 2 0 0 241 290 719 726
647 4 2 0 0 196 179 151 171
648 4 2 0 0 106 87 105 91
649 4 2 0 0 543 188 788 542
650 4 2 0 0 621 187 542 171
651 4 2 0 0 106 118 110 91
652 4 2 0 0 56 39 55 526
653 4 2 0 0 106 75 92 88
654 4 2 0 0 106 91 92 75
655 4 2 0 0 56 60 526 72
656 4 2 0 0 56 60 40 39
657 4 2 0 0 338 339 531 533
658 4 2 0 0 646 393 378 377
659 4 2 0 0 642 643 616 392
660 4 2 0 0 760 354 531 532
661 4 2 0 0 533 735 589 362
662 4 2 0 0 603 339 533 532
663 4 2 0 0 589 338 645 735
664 4 2 0 0 121 132 117 118
665 4 2 0 0 121 122 118 110
666 4 2 0 0 121 118 109 110
667 4 2 0 0 121 132 118 122
668 4 2 0 0 121 132 131 117
669 4 2 0 0 534 680 422 585
670 4 2 0 0 423 534 403 535
671 4 2 0 0 597 50 49 41
672 4 2 0 0 660 90 597 538
673 4 2 0 0 578 25 57 762
674 4 2 0 0 538 660 90 89
675 4 2 0 0 99 119 619 618
676 4 2 0 0 777 338 339 701
677 4 2 0 0 640 634 365 357
678 4 2 0 0 364 365 634 357
679 4 2 0 0 364 357 634 356
680 4 2 0 0 562 277 275 278
681 4 2 0 0 288 540 287 675
682 4 2 0 0 315 320 319 263
683 4 2 0 0 277 562 275 563
684 4 2 0 0 622 336 544 337
685 4 2 0 0 403 407 406 392
686 4 2 0 0 403 392 406 402
687 4 2 0 0 403 406 407 415
688 4 2 0 0 403 414 406 415
689 4 2 0 0 601 420 421 309
690 4 2 0 0 551 144 742 128
691 4 2 0 0 543 164 188 668
692 4 2 0 0 543 187 621 163
693 4 2 0 0 543 188 187 668
694 4 2 0 0 550 132 593 551
695 4 2 0 0 593 131 148 132
696 4 2 0 0 661 235 565 234
697 4 2 0 0 661 565 283 234
698 4 2 0 0 626 602 614 130
699 4 2 0 0 545 801 741 125
700 4 2 0 0 156 123 136 135
701 4 2 0 0 752 753 549 310
702 4 2 0 0 715 753 547 766
703 4 2 0 0 645 701 338 777
704 4 2 0 0 310 294 782 775
705 4 2 0 0 593 610 551 132
706 4 2 0 0 610 132 593 148
707 4 2 0 0 593 131 147 148
708 4 2 0 0 57 74 577 578
709 4 2 0 0 577 57 73 74
710 4 2 0 0 573 241 637 188
711 4 2 0 0 637 668 188 698
712 4 2 0 0 584 556 557 747
713 4 2 0 0 633 554 391 390
714 4 2 0 0 391 390 554 375
715 4 2 0 0 554 391 375 376
716 4 2 0 0 336 759 587 352
717 4 2 0 0 590 554 390 375
718 4 2 0 0 337 588 361 587
719 4 2 0 0 555 771 176 184
720 4 2 0 0 584 636 556 705
721 4 2 0 0 107 115 129 116
722 4 2 0 0 107 130 129 119
723 4 2 0 0 116 107 130 129
724 4 2 0 0 585 422 534 402
725 4 2 0 0 433 559 415 414
726 4 2 0 0 400 391 390 404
727 4 2 0 0 400 391 405 401
728 4 2 0 0 400 405 412 413
729 4 2 0 0 400 405 391 404
730 4 2 0 0 209 205 716 257
731 4 2 0 0 672 59 60 75
732 4 2 0 0 672 60 76 75
733 4 2 0 0 670 352 353 759
734 4 2 0 0 670 337 353 329
735 4 2 0 0 101 121 560 638
736 4 2 0 0 101 139 121 140
737 4 2 0 0 715 782 766 785
738 4 2 0 0 140 121 101 122
739 4 2 0 0 285 330 664 541
740 4 2 0 0 156 155 151 180
741 4 2 0 0 285 664 286 541
742 4 2 0 0 313 314 665 541
743 4 2 0 0 346 313 665 541
744 4 2 0 0 662 179 666 180
745 4 2 0 0 107 660 90 561
746 4 2 0 0 662 179 210 666
747 4 2 0 0 102 63 80 64
748 4 2 0 0 102 79 80 63
749 4 2 0 0 102 63 101 79
750 4 2 0 0 638 101 102 63
751 4 2 0 0 619 100 620 120
752 4 2 0 0 638 63 102 64
753 4 2 0 0 619 138 100 120
754 4 2 0 0 276 563 562 566
755 4 2 0 0 562 275 276 278
756 4 2 0 0 634 364 563 566
757 4 2 0 0 566 365 634 364
758 4 2 0 0 562 278 276 566
759 4 2 0 0 337 336 587 360
760 4 2 0 0 336 360 622 539
761 4 2 0 0 622 336 337 360
762 4 2 0 0 253 711 200 667
763 4 2 0 0 200 199 667 191
764 4 2 0 0 667 192 200 191
765 4 2 0 0 568 569 91 678
766 4 2 0 0 569 91 92 110
767 4 2 0 0 569 91 110 109
768 4 2 0 0 638 122 101 121
769 4 2 0 0 569 572 92 678
770 4 2 0 0 154 153 133 123
771 4 2 0 0 154 133 134 123
772 4 2 0 0 570 624 418 419
773 4 2 0 0 572 51 52 43
774 4 2 0 0 572 43 52 44
775 4 2 0 0 573 240 241 719
776 4 2 0 0 573 241 239 719
777 4 2 0 0 573 240 238 700
778 4 2 0 0 573 188 637 187
779 4 2 0 0 223 744 582 651
780 4 2 0 0 574 582 744 651
781 4 2 0 0 574 744 222 224
782 4 2 0 0 551 593 550 685
783 4 2 0 0 575 688 765 558
784 4 2 0 0 623 465 761 497
785 4 2 0 0 101 102 122 638
786 4 2 0 0 101 140 122 102
787 4 2 0 0 601 400 383 420
788 4 2 0 0 421 401 601 595
789 4 2 0 0 343 695 581 679
790 4 2 0 0 386 534 423 422
791 4 2 0 0 385 534 386 422
792 4 2 0 0 625 637 668 187
793 4 2 0 0 105 596 106 635
794 4 2 0 0 655 106 635 118
795 4 2 0 0 635 105 117 118
796 4 2 0 0 105 118 635 106
797 4 2 0 0 317 322 769 321
798 4 2 0 0 317 321 769 305
799 4 2 0 0 441 453 440 456
800 4 2 0 0 185 615 186 706
801 4 2 0 0 454 450 438 439
802 4 2 0 0 583 185 615 708
803 4 2 0 0 612 631 536 428
804 4 2 0 0 612 398 399 536
805 4 2 0 0 136 123 124 629
806 4 2 0 0 123 629 136 647
807 4 2 0 0 586 556 557 636
808 4 2 0 0 705 556 772 636
809 4 2 0 0 162 186 648 708
810 4 2 0 0 615 186 162 708
811 4 2 0 0 636 586 556 772
812 4 2 0 0 386 534 403 423
813 4 2 0 0 336 587 611 352
814 4 2 0 0 554 391 641 633
815 4 2 0 0 673 504 495 496
816 4 2 0 0 673 464 504 496
817 4 2 0 0 657 591 405 417
818 4 2 0 0 657 591 417 613
819 4 2 0 0 629 123 124 94
820 4 2 0 0 123 94 629 647
821 4 2 0 0 94 123 124 644
822 4 2 0 0 123 644 94 683
823 4 2 0 0 647 123 94 93
824 4 2 0 0 123 683 94 93
825 4 2 0 0 337 360 587 361
826 4 2 0 0 622 360 337 361
827 4 2 0 0 626 129 130 146
828 4 2 0 0 566 634 365 640
829 4 2 0 0 602 594 545 684
830 4 2 0 0 601 421 384 401
831 4 2 0 0 369 388 389 399
832 4 2 0 0 369 389 370 399
833 4 2 0 0 348 340 349 652
834 4 2 0 0 349 340 323 652
835 4 2 0 0 348 340 652 537
836 4 2 0 0 155 135 123 156
837 4 2 0 0 48 55 36 47
838 4 2 0 0 598 233 231 230
839 4 2 0 0 412 600 430 599
840 4 2 0 0 260 226 228 229
841 4 2 0 0 605 260 229 226
842 4 2 0 0 605 553 682 713
843 4 2 0 0 627 602 545 784
844 4 2 0 0 605 226 229 227
845 4 2 0 0 682 605 713 746
846 4 2 0 0 594 684 602 614
847 4 2 0 0 267 269 606 332
848 4 2 0 0 606 269 267 270
849 4 2 0 0 661 282 709 233
850 4 2 0 0 661 233 709 235
851 4 2 0 0 548 250 252 253
852 4 2 0 0 479 472 471 599
853 4 2 0 0 608 768 366 358
854 4 2 0 0 537 271 652 273
855 4 2 0 0 695 581 679 524
856 4 2 0 0 611 336 360 587
857 4 2 0 0 639 372 399 387
858 4 2 0 0 612 399 387 639
859 4 2 0 0 770 533 338 531
860 4 2 0 0 280 544 282 337
861 4 2 0 0 280 544 279 282
862 4 2 0 0 283 284 661 676
863 4 2 0 0 591 613 424 681
864 4 2 0 0 613 425 591 424
865 4 2 0 0 90 108 107 561
866 4 2 0 0 620 619 802 100
867 4 2 0 0 671 354 760 355
868 4 2 0 0 614 602 594 130
869 4 2 0 0 238 540 236 287
870 4 2 0 0 287 540 236 285
871 4 2 0 0 540 237 286 288
872 4 2 0 0 45 54 34 46
873 4 2 0 0 540 237 288 239
874 4 2 0 0 281 661 283 234
875 4 2 0 0 232 661 281 234
876 4 2 0 0 669 169 193 185
877 4 2 0 0 605 604 553 226
878 4 2 0 0 553 605 682 604
879 4 2 0 0 662 236 210 179
880 4 2 0 0 662 236 179 195
881 4 2 0 0 194 170 669 186
882 4 2 0 0 237 180 662 211
883 4 2 0 0 196 180 662 237
884 4 2 0 0 313 285 541 346
885 4 2 0 0 285 330 541 346
886 4 2 0 0 541 314 347 286
887 4 2 0 0 541 347 331 286
888 4 2 0 0 178 677 211 194
889 4 2 0 0 232 230 598 185
890 4 2 0 0 211 677 235 194
891 4 2 0 0 598 231 233 186
892 4 2 0 0 573 239 241 188
893 4 2 0 0 195 171 528 187
894 4 2 0 0 196 172 188 528
895 4 2 0 0 330 671 354 338
896 4 2 0 0 646 617 643 616
897 4 2 0 0 663 328 313 344
898 4 2 0 0 663 283 313 328
899 4 2 0 0 329 314 663 284
900 4 2 0 0 329 345 663 314
901 4 2 0 0 553 226 228 260
902 4 2 0 0 619 119 138 120
903 4 2 0 0 618 99 802 619
904 4 2 0 0 368 372 387 399
905 4 2 0 0 368 372 399 345
906 4 2 0 0 679 298 297 787
907 4 2 0 0 623 466 448 449
908 4 2 0 0 403 385 534 386
909 4 2 0 0 385 422 402 534
910 4 2 0 0 207 203 215 214
911 4 2 0 0 207 202 203 214
912 4 2 0 0 692 617 616 642
913 4 2 0 0 614 626 130 146
914 4 2 0 0 626 145 129 146
915 4 2 0 0 626 129 545 602
916 4 2 0 0 545 602 627 626
917 4 2 0 0 643 393 616 392
918 4 2 0 0 221 219 190 546
919 4 2 0 0 654 592 116 115
920 4 2 0 0 653 592 115 103
921 4 2 0 0 633 590 554 390
922 4 2 0 0 641 632 380 554
923 4 2 0 0 632 379 394 395
924 4 2 0 0 632 379 395 380
925 4 2 0 0 239 288 540 719
926 4 2 0 0 421 460 595 309
927 4 2 0 0 443 421 442 460
928 4 2 0 0 442 421 420 309
929 4 2 0 0 460 459 309 442
930 4 2 0 0 442 421 309 460
931 4 2 0 0 114 98 596 655
932 4 2 0 0 656 591 416 404
933 4 2 0 0 624 658 418 406
934 4 2 0 0 659 419 407 624
935 4 2 0 0 258 732 259 256
936 4 2 0 0 575 558 433 432
937 4 2 0 0 600 431 430 649
938 4 2 0 0 373 370 374 347
939 4 2 0 0 369 373 346 347
940 4 2 0 0 555 767 771 579
941 4 2 0 0 259 732 257 256
942 4 2 0 0 51 572 678 571
943 4 2 0 0 572 52 51 678
944 4 2 0 0 597 49 50 660
945 4 2 0 0 49 660 597 538
946 4 2 0 0 232 230 233 598
947 4 2 0 0 477 489 490 469
948 4 2 0 0 477 490 478 470
949 4 2 0 0 612 398 536 631
950 4 2 0 0 331 339 355 671
951 4 2 0 0 686 422 680 779
952 4 2 0 0 686 734 680 422
953 4 2 0 0 643 646 616 393
954 4 2 0 0 605 553 260 226
955 4 2 0 0 780 687 743 694
956 4 2 0 0 780 687 689 680
957 4 2 0 0 687 786 689 680
958 4 2 0 0 687 786 445 462
959 4 2 0 0 685 714 593 143
960 4 2 0 0 667 548 253 711
961 4 2 0 0 191 548 667 192
962 4 2 0 0 575 481 482 765
963 4 2 0 0 780 689 690 790
964 4 2 0 0 780 687 690 689
965 4 2 0 0 687 786 462 689
966 4 2 0 0 559 576 482 575
967 4 2 0 0 575 482 559 765
968 4 2 0 0 642 643 617 616
969 4 2 0 0 643 617 646 725
970 4 2 0 0 258 307 732 256
971 4 2 0 0 256 307 732 305
972 4 2 0 0 308 306 257 732
973 4 2 0 0 259 732 308 257
974 4 2 0 0 655 113 596 114
975 4 2 0 0 162 708 648 161
976 4 2 0 0 635 596 655 113
977 4 2 0 0 708 185 648 161
978 4 2 0 0 551 714 610 593
979 4 2 0 0 719 288 540 287
980 4 2 0 0 232 282 661 233
981 4 2 0 0 754 233 661 235
982 4 2 0 0 754 235 661 234
983 4 2 0 0 196 195 662 179
984 4 2 0 0 196 180 179 662
985 4 2 0 0 329 663 756 284
986 4 2 0 0 329 328 756 663
987 4 2 0 0 284 283 314 663
988 4 2 0 0 663 314 313 283
989 4 2 0 0 677 235 755 234
990 4 2 0 0 677 804 177 210
991 4 2 0 0 755 194 177 193
992 4 2 0 0 677 755 235 194
993 4 2 0 0 693 691 780 697
994 4 2 0 0 780 691 790 697
995 4 2 0 0 567 248 699 246
996 4 2 0 0 699 246 718 247
997 4 2 0 0 699 248 718 246
998 4 2 0 0 317 306 322 318
999 4 2 0 0 317 322 306 769
1000 4 2 0 0 749 95 111 96
1001 4 2 0 0 95 749 592 96
1002 4 2 0 0 95 592 749 653
1003 4 2 0 0 749 95 653 111
1004 4 2 0 0 317 769 306 305
1005 4 2 0 0 693 779 691 458
1006 4 2 0 0 675 540 287 285
1007 4 2 0 0 694 687 462 690
1008 4 2 0 0 444 734 780 693
1009 4 2 0 0 444 734 693 686
1010 4 2 0 0 575 473 765 688
1011 4 2 0 0 575 473 481 765
1012 4 2 0 0 481 473 800 765
1013 4 2 0 0 242 705 244 636
1014 4 2 0 0 625 668 163 187
1015 4 2 0 0 186 185 648 708
1016 4 2 0 0 694 687 445 462
1017 4 2 0 0 690 687 462 689
1018 4 2 0 0 328 352 670 336
1019 4 2 0 0 328 352 329 670
1020 4 2 0 0 352 670 353 329
1021 4 2 0 0 704 733 301 803
1022 4 2 0 0 330 354 671 355
1023 4 2 0 0 331 671 355 330
1024 4 2 0 0 780 680 689 691
1025 4 2 0 0 602 594 129 545
1026 4 2 0 0 602 545 784 741
1027 4 2 0 0 743 734 445 687
1028 4 2 0 0 743 687 445 694
1029 4 2 0 0 381 617 692 642
1030 4 2 0 0 191 548 252 667
1031 4 2 0 0 667 199 252 191
1032 4 2 0 0 301 803 311 704
1033 4 2 0 0 780 687 694 690
1034 4 2 0 0 444 693 780 697
1035 4 2 0 0 211 565 530 284
1036 4 2 0 0 573 637 241 240
1037 4 2 0 0 573 637 240 625
1038 4 2 0 0 27 59 672 75
1039 4 2 0 0 673 464 447 463
1040 4 2 0 0 446 463 495 673
1041 4 2 0 0 446 447 463 673
1042 4 2 0 0 546 218 219 763
1043 4 2 0 0 252 721 253 250
1044 4 2 0 0 565 661 283 284
1045 4 2 0 0 565 284 235 661
1046 4 2 0 0 211 284 235 565
1047 4 2 0 0 696 693 697 458
1048 4 2 0 0 693 691 697 458
1049 4 2 0 0 697 691 790 458
1050 4 2 0 0 697 458 461 696
1051 4 2 0 0 790 458 461 697
1052 4 2 0 0 444 743 780 734
1053 4 2 0 0 551 144 714 742
1054 4 2 0 0 551 144 610 714
1055 4 2 0 0 742 144 714 745
1056 4 2 0 0 310 753 549 715
1057 4 2 0 0 549 753 547 715
1058 4 2 0 0 768 727 549 609
1059 4 2 0 0 547 727 549 731
1060 4 2 0 0 549 727 753 609
1061 4 2 0 0 727 547 549 753
1062 4 2 0 0 731 727 549 768
1063 4 2 0 0 548 250 253 251
1064 4 2 0 0 721 251 253 250
1065 4 2 0 0 584 245 243 705
1066 4 2 0 0 444 693 697 696
1067 4 2 0 0 568 678 91 571
1068 4 2 0 0 243 726 240 242
1069 4 2 0 0 241 240 243 726
1070 4 2 0 0 729 255 254 252
1071 4 2 0 0 698 668 188 164
1072 4 2 0 0 729 255 252 253
1073 4 2 0 0 573 240 700 625
1074 4 2 0 0 737 290 288 702
1075 4 2 0 0 528 542 172 188
1076 4 2 0 0 703 557 159 160
1077 4 2 0 0 557 703 159 636
1078 4 2 0 0 551 742 714 685
1079 4 2 0 0 602 684 545 741
1080 4 2 0 0 684 707 602 614
1081 4 2 0 0 559 433 576 575
1082 4 2 0 0 575 765 559 558
1083 4 2 0 0 575 558 559 433
1084 4 2 0 0 741 141 739 125
1085 4 2 0 0 741 739 126 125
1086 4 2 0 0 742 143 127 745
1087 4 2 0 0 742 745 127 128
1088 4 2 0 0 717 679 343 342
1089 4 2 0 0 342 695 717 679
1090 4 2 0 0 181 736 751 173
1091 4 2 0 0 185 583 706 169
1092 4 2 0 0 706 170 669 169
1093 4 2 0 0 185 706 669 169
1094 4 2 0 0 379 554 632 633
1095 4 2 0 0 554 632 380 379
1096 4 2 0 0 684 783 602 707
1097 4 2 0 0 305 723 769 303
1098 4 2 0 0 239 719 290 288
1099 4 2 0 0 241 719 290 239
1100 4 2 0 0 240 719 238 289
1101 4 2 0 0 583 185 708 161
1102 4 2 0 0 720 242 244 293
1103 4 2 0 0 293 291 720 242
1104 4 2 0 0 724 720 292 243
1105 4 2 0 0 245 243 720 724
1106 4 2 0 0 250 252 721 301
1107 4 2 0 0 256 305 722 254
1108 4 2 0 0 722 254 305 303
1109 4 2 0 0 465 448 497 623
1110 4 2 0 0 257 304 255 722
1111 4 2 0 0 710 218 546 189
1112 4 2 0 0 546 219 190 763
1113 4 2 0 0 294 753 752 310
1114 4 2 0 0 290 726 243 292
1115 4 2 0 0 241 726 243 290
1116 4 2 0 0 245 296 728 247
1117 4 2 0 0 245 728 296 294
1118 4 2 0 0 523 580 679 695
1119 4 2 0 0 342 695 679 580
1120 4 2 0 0 605 713 746 260
1121 4 2 0 0 682 713 157 158
1122 4 2 0 0 249 300 730 251
1123 4 2 0 0 608 547 366 731
1124 4 2 0 0 343 351 581 695
1125 4 2 0 0 750 581 695 524
1126 4 2 0 0 351 695 343 717
1127 4 2 0 0 717 738 351 695
1128 4 2 0 0 342 350 717 695
1129 4 2 0 0 591 613 681 416
1130 4 2 0 0 523 580 695 350
1131 4 2 0 0 601 401 400 595
1132 4 2 0 0 400 601 383 401
1133 4 2 0 0 342 350 695 580
1134 4 2 0 0 479 600 472 599
1135 4 2 0 0 223 582 201 651
1136 4 2 0 0 574 751 582 651
1137 4 2 0 0 733 327 312 803
1138 4 2 0 0 712 327 803 312
1139 4 2 0 0 310 782 715 785
1140 4 2 0 0 310 782 753 715
1141 4 2 0 0 601 309 595 400
1142 4 2 0 0 400 420 601 309
1143 4 2 0 0 628 699 249 247
1144 4 2 0 0 165 791 682 157
1145 4 2 0 0 642 381 740 396
1146 4 2 0 0 726 737 719 289
1147 4 2 0 0 726 737 289 793
1148 4 2 0 0 289 701 777 737
1149 4 2 0 0 717 350 738 695
1150 4 2 0 0 783 741 141 739
1151 4 2 0 0 742 745 714 143
1152 4 2 0 0 556 245 584 705
1153 4 2 0 0 780 734 687 680
1154 4 2 0 0 734 786 687 680
1155 4 2 0 0 351 581 695 750
1156 4 2 0 0 718 699 247 249
1157 4 2 0 0 524 298 787 296
1158 4 2 0 0 718 297 246 248
1159 4 2 0 0 718 248 699 249
1160 4 2 0 0 718 296 247 728
1161 4 2 0 0 294 728 720 245
1162 4 2 0 0 294 794 720 728
1163 4 2 0 0 299 721 776 301
1164 4 2 0 0 715 782 753 766
1165 4 2 0 0 294 782 753 310
1166 4 2 0 0 753 293 547 766
1167 4 2 0 0 608 547 753 758
1168 4 2 0 0 258 307 308 732
1169 4 2 0 0 24 23 11 36
1170 4 2 0 0 24 11 12 36
1171 4 2 0 0 617 381 740 642
1172 4 2 0 0 643 642 617 740
1173 4 2 0 0 682 553 157 713
1174 4 2 0 0 553 682 778 604
1175 4 2 0 0 636 557 586 774
1176 4 2 0 0 557 584 703 636
1177 4 2 0 0 242 726 289 291
1178 4 2 0 0 244 295 728 293
1179 4 2 0 0 247 246 728 244
1180 4 2 0 0 244 728 295 246
1181 4 2 0 0 245 728 244 247
1182 4 2 0 0 729 303 301 254
1183 4 2 0 0 248 299 730 297
1184 4 2 0 0 250 299 730 248
1185 4 2 0 0 249 730 248 251
1186 4 2 0 0 251 248 250 730
1187 4 2 0 0 721 302 300 795
1188 4 2 0 0 608 731 366 768
1189 4 2 0 0 721 795 300 776
1190 4 2 0 0 302 712 300 795
1191 4 2 0 0 300 712 776 795
1192 4 2 0 0 796 303 301 729
1193 4 2 0 0 796 795 729 301
1194 4 2 0 0 304 302 729 796
1195 4 2 0 0 796 302 729 795
1196 4 2 0 0 722 732 306 305
1197 4 2 0 0 326 733 704 803
1198 4 2 0 0 795 733 312 803
1199 4 2 0 0 734 786 445 687
1200 4 2 0 0 734 423 680 422
1201 4 2 0 0 533 770 735 362
1202 4 2 0 0 643 725 748 740
1203 4 2 0 0 740 799 397 396
1204 4 2 0 0 740 381 799 396
1205 4 2 0 0 617 799 382 740
1206 4 2 0 0 643 740 617 725
1207 4 2 0 0 742 143 685 127
1208 4 2 0 0 742 143 714 685
1209 4 2 0 0 684 741 142 126
1210 4 2 0 0 602 741 784 783
1211 4 2 0 0 602 684 741 783
1212 4 2 0 0 744 225 222 224
1213 4 2 0 0 682 746 158 166
1214 4 2 0 0 747 557 160 168
1215 4 2 0 0 748 382 397 740
1216 4 2 0 0 96 112 111 749
1217 4 2 0 0 705 772 244 636
1218 4 2 0 0 636 586 772 244
1219 4 2 0 0 201 736 182 174
1220 4 2 0 0 651 751 201 174
1221 4 2 0 0 523 787 297 295
1222 4 2 0 0 555 579 248 567
1223 4 2 0 0 725 382 748 740
1224 4 2 0 0 725 740 617 382
1225 4 2 0 0 682 713 158 746
1226 4 2 0 0 260 713 746 158
1227 4 2 0 0 555 248 249 699
1228 4 2 0 0 555 699 249 628
1229 4 2 0 0 716 254 204 256
1230 4 2 0 0 209 204 256 716
1231 4 2 0 0 209 205 204 716
1232 4 2 0 0 274 271 273 652
1233 4 2 0 0 758 547 753 293
1234 4 2 0 0 654 592 115 653
1235 4 2 0 0 408 591 681 656
1236 4 2 0 0 657 591 613 409
1237 4 2 0 0 649 480 479 600
1238 4 2 0 0 599 600 649 479
1239 4 2 0 0 555 767 567 628
1240 4 2 0 0 239 719 540 238
1241 4 2 0 0 238 719 540 287
1242 4 2 0 0 568 678 571 51
1243 4 2 0 0 240 726 719 289
1244 4 2 0 0 569 52 572 678
1245 4 2 0 0 241 726 719 240
1246 4 2 0 0 50 660 561 597
1247 4 2 0 0 243 242 720 726
1248 4 2 0 0 728 293 720 244
1249 4 2 0 0 106 655 635 596
1250 4 2 0 0 624 410 426 658
1251 4 2 0 0 718 246 297 295
1252 4 2 0 0 718 295 728 246
1253 4 2 0 0 411 570 659 624
1254 4 2 0 0 718 728 247 246
1255 4 2 0 0 730 297 718 248
1256 4 2 0 0 730 248 718 249
1257 4 2 0 0 250 299 721 730
1258 4 2 0 0 251 730 250 721
1259 4 2 0 0 721 252 729 301
1260 4 2 0 0 253 252 729 721
1261 4 2 0 0 722 729 254 303
1262 4 2 0 0 722 255 254 729
1263 4 2 0 0 257 722 256 732
1264 4 2 0 0 256 732 722 305
1265 4 2 0 0 693 686 680 779
1266 4 2 0 0 585 680 422 779
1267 4 2 0 0 612 429 399 639
1268 4 2 0 0 612 536 429 428
1269 4 2 0 0 612 536 399 429
1270 4 2 0 0 773 768 549 609
1271 4 2 0 0 731 768 549 367
1272 4 2 0 0 768 731 798 367
1273 4 2 0 0 555 176 771 767
1274 4 2 0 0 555 176 767 628
1275 4 2 0 0 223 744 225 222
1276 4 2 0 0 223 222 582 744
1277 4 2 0 0 574 582 222 744
1278 4 2 0 0 573 637 625 187
1279 4 2 0 0 573 625 700 187
1280 4 2 0 0 768 798 366 358
1281 4 2 0 0 771 183 781 184
1282 4 2 0 0 771 781 176 184
1283 4 2 0 0 183 767 175 567
1284 4 2 0 0 771 767 183 579
1285 4 2 0 0 771 176 781 767
1286 4 2 0 0 482 800 474 765
1287 4 2 0 0 482 474 559 765
1288 4 2 0 0 796 304 769 306
1289 4 2 0 0 423 786 680 535
1290 4 2 0 0 734 445 786 423
1291 4 2 0 0 734 423 786 680
1292 4 2 0 0 767 183 579 567
1293 4 2 0 0 711 192 200 667
1294 4 2 0 0 667 548 711 192
1295 4 2 0 0 533 338 589 735
1296 4 2 0 0 533 338 735 770
1297 4 2 0 0 529 603 339 589
1298 4 2 0 0 533 339 603 589
1299 4 2 0 0 751 181 582 201
1300 4 2 0 0 181 201 736 182
1301 4 2 0 0 751 201 582 651
1302 4 2 0 0 181 751 582 173
1303 4 2 0 0 181 201 751 736
1304 4 2 0 0 768 773 367 359
1305 4 2 0 0 305 769 306 796
1306 4 2 0 0 774 159 557 167
1307 4 2 0 0 547 608 727 731
1308 4 2 0 0 608 547 727 753
1309 4 2 0 0 731 608 727 768
1310 4 2 0 0 367 768 549 773
1311 4 2 0 0 584 557 703 160
1312 4 2 0 0 584 747 557 160
1313 4 2 0 0 296 718 787 295
1314 4 2 0 0 298 787 296 718
1315 4 2 0 0 718 295 296 728
1316 4 2 0 0 787 718 297 295
1317 4 2 0 0 787 298 297 718
1318 4 2 0 0 305 769 796 303
1319 4 2 0 0 573 240 719 238
1320 4 2 0 0 573 719 239 238
1321 4 2 0 0 705 720 243 242
1322 4 2 0 0 705 242 244 720
1323 4 2 0 0 245 720 243 705
1324 4 2 0 0 772 245 705 244
1325 4 2 0 0 245 705 244 720
1326 4 2 0 0 728 244 720 245
1327 4 2 0 0 722 255 716 254
1328 4 2 0 0 722 254 716 256
1329 4 2 0 0 288 287 719 737
1330 4 2 0 0 287 701 737 288
1331 4 2 0 0 288 719 290 737
1332 4 2 0 0 737 702 288 701
1333 4 2 0 0 775 793 292 720
1334 4 2 0 0 292 726 720 793
1335 4 2 0 0 310 292 775 785
1336 4 2 0 0 294 775 292 720
1337 4 2 0 0 310 294 775 292
1338 4 2 0 0 721 299 776 300
1339 4 2 0 0 712 803 776 795
1340 4 2 0 0 304 306 796 722
1341 4 2 0 0 636 557 774 159
1342 4 2 0 0 556 245 705 772
1343 4 2 0 0 789 529 339 777
1344 4 2 0 0 789 777 339 702
1345 4 2 0 0 291 289 793 726
1346 4 2 0 0 728 295 794 293
1347 4 2 0 0 298 297 730 299
1348 4 2 0 0 286 540 288 675
1349 4 2 0 0 237 236 662 650
1350 4 2 0 0 157 682 165 778
1351 4 2 0 0 232 233 661 754
1352 4 2 0 0 232 754 661 234
1353 4 2 0 0 676 284 661 282
1354 4 2 0 0 281 661 232 282
1355 4 2 0 0 662 666 210 211
1356 4 2 0 0 210 677 804 234
1357 4 2 0 0 677 755 804 234
1358 4 2 0 0 677 177 755 194
1359 4 2 0 0 756 663 283 284
1360 4 2 0 0 756 328 283 663
1361 4 2 0 0 330 331 541 346
1362 4 2 0 0 757 314 313 663
1363 4 2 0 0 757 663 313 344
1364 4 2 0 0 178 194 177 677
1365 4 2 0 0 194 170 169 669
1366 4 2 0 0 528 171 172 542
1367 4 2 0 0 759 588 337 587
1368 4 2 0 0 670 759 337 336
1369 4 2 0 0 588 759 337 353
1370 4 2 0 0 336 337 587 759
1371 4 2 0 0 670 759 353 337
1372 4 2 0 0 532 339 760 355
1373 4 2 0 0 531 339 338 760
1374 4 2 0 0 671 339 760 338
1375 4 2 0 0 339 760 531 532
1376 4 2 0 0 671 760 339 355
1377 4 2 0 0 544 279 281 336
1378 4 2 0 0 553 682 157 778
1379 4 2 0 0 622 336 279 544
1380 4 2 0 0 101 560 63 638
1381 4 2 0 0 618 99 61 802
1382 4 2 0 0 497 465 761 505
1383 4 2 0 0 17 762 26 18
1384 4 2 0 0 70 82 552 86
1385 4 2 0 0 70 86 552 69
1386 4 2 0 0 197 218 189 763
1387 4 2 0 0 197 198 763 189
1388 4 2 0 0 768 367 798 359
1389 4 2 0 0 768 359 798 797
1390 4 2 0 0 160 167 557 159
1391 4 2 0 0 160 168 557 167
1392 4 2 0 0 740 382 397 799
1393 4 2 0 0 741 142 126 739
1394 4 2 0 0 742 144 745 128
1395 4 2 0 0 791 682 158 166
1396 4 2 0 0 791 158 682 157
1397 4 2 0 0 693 680 780 691
1398 4 2 0 0 693 734 780 680
1399 4 2 0 0 771 183 767 781
1400 4 2 0 0 767 792 176 781
1401 4 2 0 0 695 679 343 717
1402 4 2 0 0 785 775 293 291
1403 4 2 0 0 782 294 794 775
1404 4 2 0 0 785 293 766 291
1405 4 2 0 0 782 293 753 766
1406 4 2 0 0 294 794 753 782
1407 4 2 0 0 684 142 783 707
1408 4 2 0 0 783 684 741 142
1409 4 2 0 0 627 784 545 801
1410 4 2 0 0 784 545 801 741
1411 4 2 0 0 784 741 141 783
1412 4 2 0 0 785 775 782 293
1413 4 2 0 0 785 782 766 293
1414 4 2 0 0 785 292 775 793
1415 4 2 0 0 695 524 679 523
1416 4 2 0 0 289 719 238 287
1417 4 2 0 0 726 242 720 291
1418 4 2 0 0 250 301 721 299
1419 4 2 0 0 257 306 304 722
1420 4 2 0 0 529 589 339 777
1421 4 2 0 0 242 726 240 289
1422 4 2 0 0 729 254 301 252
1423 4 2 0 0 255 729 302 253
1424 4 2 0 0 249 298 730 300
1425 4 2 0 0 737 290 702 777
1426 4 2 0 0 290 777 789 702
1427 4 2 0 0 794 293 753 782
1428 4 2 0 0 776 803 301 795
1429 4 2 0 0 201 751 736 174
1430 4 2 0 0 183 781 175 767
1431 4 2 0 0 767 175 792 781
1432 4 2 0 0 726 290 719 737
1433 4 2 0 0 726 290 737 793
1434 4 2 0 0 737 701 777 702
1435 4 2 0 0 775 291 793 720
1436 4 2 0 0 785 793 775 291
1437 4 2 0 0 794 293 775 720
1438 4 2 0 0 794 293 720 728
1439 4 2 0 0 782 794 293 775
1440 4 2 0 0 721 729 795 301
1441 4 2 0 0 721 795 776 301
1442 4 2 0 0 796 729 722 303
1443 4 2 0 0 301 733 795 803
1444 4 2 0 0 768 797 798 358
1445 4 2 0 0 768 731 366 798
1446 4 2 0 0 617 381 799 740
1447 4 2 0 0 482 481 800 765
1448 4 2 0 0 783 741 739 142
1449 4 2 0 0 801 141 741 125
1450 4 2 0 0 627 784 801 141
1451 4 2 0 0 784 801 141 741
1452 4 2 0 0 164 543 188 788
1453 4 2 0 0 693 779 680 691
1454 4 2 0 0 693 734 680 686
1455 4 2 0 0 77 802 62 61
1456 4 2 0 0 77 99 802 61
1457 4 2 0 0 185 583 615 706
1458 4 2 0 0 186 170 669 706
1459 4 2 0 0 185 186 669 706
1460 4 2 0 0 623 466 498 761
1461 4 2 0 0 761 498 506 466
1462 4 2 0 0 623 465 466 761
1463 4 2 0 0 672 28 19 27
1464 4 2 0 0 27 59 19 672
1465 4 2 0 0 578 762 58 26
1466 4 2 0 0 17 26 762 25
1467 4 2 0 0 578 25 762 26
1468 4 2 0 0 189 198 763 190
1469 4 2 0 0 546 218 763 189
1470 4 2 0 0 220 218 546 710
1471 4 2 0 0 191 250 252 548
1472 4 2 0 0 324 267 764 332
1473 4 2 0 0 606 268 267 764
1474 4 2 0 0 267 606 764 332
1475 4 2 0 0 379 632 394 633
1476 4 2 0 0 632 380 395 641
1477 4 2 0 0 704 803 311 334
1478 4 2 0 0 712 803 795 312
1479 4 2 0 0 543 164 668 163
1480 4 2 0 0 543 668 187 163
1481 4 2 0 0 533 339 589 338
1482 4 2 0 0 589 338 777 645
1483 4 2 0 0 644 123 124 134
1484 4 2 0 0 123 134 644 683
1485 4 2 0 0 615 185 186 708
1486 4 2 0 0 661 282 284 709
1487 4 2 0 0 661 709 284 235
1488 4 2 0 0 346 665 347 541
1489 4 2 0 0 346 347 331 541
1490 4 2 0 0 755 193 177 804
1491 4 2 0 0 804 755 193 234
1492 4 2 0 0 677 755 177 804
1493 4 2 0 0 274 271 652 272
$EndElements
