$MeshFormat
2.2 0 8
$EndMeshFormat
$Nodes
666
1 0.8708350658416748 3.25 0
2 0.8708350658416748 3.25 0.7999999523162842
3 0.8708350658416748 9.75 0
4 0.8708350658416748 9.75 0.7999999523162842
5 0.9097205400466919 4.256266593933105 0
6 0.9097205400466919 4.256266593933105 0.7999999523162842
7 0.9097205400466919 8.743733406066895 0
8 0.9097205400466919 8.743733406066895 0.7999999523162842
9 0.9806426167488098 3.659807920455933 -4.336808689942018e-16
10 0.9806426167488098 3.659807920455933 0.7999999523162842
11 0.9806426167488098 9.340192794799805 0
12 0.9806426167488098 9.340192794799805 0.7999999523162842
13 1.280642628669739 3.14019250869751 -4.336808689942018e-16
14 1.280642628669739 3.14019250869751 0.7999999523162842
15 1.280642628669739 9.859807968139648 0
16 1.280642628669739 9.859807968139648 0.7999999523162842
17 1.300000071525574 6.5 0
18 1.300000071525574 6.5 0.7999999523162842
19 1.367625832557678 5.047362804412842 -4.336808689942018e-16
20 1.367625832557678 5.047362804412842 0.7999999523162842
21 1.377972218700618 7.946664176579057 3.969011865932769e-18
22 1.367625832557678 7.952637672424316 0.7999999523162842
23 1.474978446960449 4.582618236541748 0
24 1.474978446960449 4.582618236541748 0.7999999523162842
25 1.474978446960449 8.41738224029541 0
26 1.474978446960449 8.41738224029541 0.7999999523162842
27 1.550000190734863 6.25 0
28 1.550000190734863 6.25 0.7999999523162842
29 1.550000190734863 6.75 0
30 1.550000190734863 6.75 0.7999999523162842
31 1.586860537528992 4.009807586669922 -4.336808689942018e-16
32 1.586860537528992 4.009807586669922 0.7999999523162842
33 1.586860537528992 8.990192413330078 -4.336808689942018e-16
34 1.586860537528992 8.990192413330078 0.7999999523162842
35 1.62309730052948 5.920000076293945 0
36 1.62309730052948 5.920000076293945 0.7999999523162842
37 1.62309730052948 7.079999923706055 0
38 1.62309730052948 7.079999923706055 0.790770778666067
39 1.761729836463928 2.780542612075806 0
40 1.761729836463928 2.780542612075806 0.7999999523162842
41 1.761729836463928 10.21945762634277 -4.336808689942018e-16
42 1.761729836463928 10.21945762634277 0.7999999523162842
43 1.886860489845276 3.490192651748657 0
44 1.886860489845276 3.490192651748657 0.7999999523162842
45 1.886860489845276 9.509807586669922 0
46 1.886860489845276 9.509807586669922 0.7999999523162842
47 1.899999976158142 6.25 0
48 1.899999976158142 6.25 0.7999999523162842
49 1.899999976158142 6.75 0
50 1.899999976158142 6.75 0.7999999523162842
51 1.932883620262146 5.373714447021484 0
52 1.932883620262146 5.373714447021484 0.7999999523162842
53 1.932883620262146 7.626285552978516 2.168404344971009e-16
54 1.932883620262146 7.626285552978516 0.7999999523162842
55 2.152118444442749 4.336159706115723 0
56 2.152118444442749 4.336159706115723 0.7999999523162842
57 2.152118444442749 8.663840293884277 -4.336808689942018e-16
58 2.152118444442749 8.663840293884277 0.7999999523162842
59 2.197476625442505 5.920000076293945 0
60 2.197476625442505 5.920000076293945 0.7999999523162842
61 2.197476625442505 7.079999923706055 0
62 2.197476625442505 7.079999923706055 0.7999999523162842
63 2.293933153152466 8.289786338806152 0.7999999523162842
64 2.326988220214844 3.106894731521606 0
65 2.326988220214844 3.106894731521606 0.7999999523162842
66 2.326988220214844 9.893105506896973 -4.336808689942018e-16
67 2.326988220214844 9.893105506896973 0.7999999523162842
68 2.362541913986206 5.650000095367432 0
69 2.362541913986206 5.650000095367432 0.7999999523162842
70 2.362541913986206 7.350000381469727 0
71 2.362541913986206 7.350000381469727 0.7999999523162842
72 2.452118396759033 3.8165442943573 -4.336808689942018e-16
73 2.452118396759033 3.8165442943573 0.7999999523162842
74 2.452118396759033 9.183456420898438 -4.336808689942018e-16
75 2.452118396759033 9.183456420898438 0.7999999523162842
76 2.474379301071167 6.25 0
77 2.474379301071167 6.25 0.7999999523162842
78 2.474379301071167 6.75 0
79 2.474379301071167 6.75 0.7999999523162842
80 2.604324579238892 4.597240924835205 -4.336808689942018e-16
81 2.604324579238892 4.597240924835205 0.7999999523162842
82 2.604324579238892 8.402759552001953 0
83 2.604324579238892 8.402759552001953 0.7999999523162842
84 2.682807823516763 2.785602913415478 -4.282981256087245e-16
85 2.67579197883606 2.781552314758301 0.7999999523162842
86 2.67579197883606 10.2184476852417 0
87 2.67579197883606 10.2184476852417 0.7999999523162842
88 2.866001605987549 6.25 0
89 2.866001605987549 6.25 0.7999999523162842
90 2.866001605987549 6.75 0
91 2.866001605987549 6.75 0.7999999523162842
92 2.904324769973755 4.077625751495361 -4.336808689942018e-16
93 2.904324769973755 4.077625751495361 0.7999999523162842
94 2.904324769973755 8.922374725341797 0
95 2.904324769973755 8.922374725341797 0.7999999523162842
96 2.936920881271362 5.650000095367432 0
97 2.936920881271362 5.650000095367432 0.7999999523162842
98 2.936920881271362 7.350000381469727 0.008845373683586753
99 2.936920881271362 7.350000381469727 0.7999999523162842
100 3.169582605361938 4.923593044281006 -4.336808689942018e-16
101 3.176767767816004 4.927741396192297 0.7999999523162842
102 3.169582605361938 8.076407432556152 2.168404344971009e-16
103 3.169582605361938 8.076407432556152 0.7999999523162842
104 3.241049766540527 3.107903957366943 0
105 3.241049766540527 3.107903957366943 0.7999999523162842
106 3.241049766540527 9.892096519470215 0
107 3.241049766540527 9.892096519470215 0.7999999523162842
108 3.440380811691284 6.25 0
109 3.440380811691284 6.25 0.7999999523162842
110 3.440380811691284 6.75 0
111 3.440380811691284 6.75 0.7999999523162842
112 3.469582557678223 4.403977870941162 -4.336808689942018e-16
113 3.469582557678223 4.403977870941162 0.7999999523162842
114 3.469582557678223 8.596022605895996 -4.336808689942018e-16
115 3.469582557678223 8.596022605895996 0.7999999523162842
116 3.559253931045532 2.566478252410889 0
117 3.559253931045532 2.566478252410889 0.7999999523162842
118 3.559253931045532 10.43352222442627 4.336808689942018e-16
119 3.559253931045532 10.43352222442627 0.7999999523162842
120 3.695149421691895 3.341856241226196 -4.336808689942018e-16
121 3.695149421691895 3.341856241226196 0.7999999523162842
122 3.695149421691895 9.658143997192383 -4.336808689942018e-16
123 3.695149421691895 9.658143997192383 0.7999999523162842
124 3.750000238418579 5.258697032928467 -4.336808689942018e-16
125 3.750000238418579 5.258697032928467 0.7999999523162842
126 3.750000238418579 6.25 0
127 3.750000238418579 6.25 0.7999999523162842
128 3.750000238418579 6.75 0
129 3.750000238418579 6.75 0.7999999523162842
130 3.750000238418579 7.741302967071533 0
131 3.750000238418579 7.741302967071533 0.7999999523162842
132 3.808493614196777 2.338174343109131 0
133 3.808493614196777 2.338174343109131 0.7999999523162842
134 3.808493614196777 10.66182613372803 0
135 3.808493614196777 10.66182613372803 0.7999999523162842
136 3.84644341468811 3.063905239105225 0
137 3.84644341468811 3.063905239105225 0.7999999523162842
138 3.84644341468811 9.936095237731934 0
139 3.84644341468811 9.936095237731934 0.7999999523162842
140 3.900000095367432 1.996668100357056 0
141 3.900000095367432 1.996668100357056 0.7999999523162842
142 3.900000095367432 11.00333213806152 0
143 3.900000095367432 11.00333213806152 0.7999999523162842
144 3.982339143753052 3.839282989501953 0
145 3.980061266849683 3.835337594475686 0.7999999523162842
146 3.982339143753052 9.160717010498047 0
147 3.982339143753052 9.160717010498047 0.7999999523162842
148 3.983493804931641 2.641283273696899 0
149 3.983493804931641 2.641283273696899 0.7999999523162842
150 3.983493804931641 10.35871696472168 4.336808689942018e-16
151 3.983493804931641 10.35871696472168 0.7999999523162842
152 4.050000190734863 4.739081859588623 -4.336808689942018e-16
153 4.050000190734863 4.739081859588623 0.7999999523162842
154 4.050000190734863 8.260918617248535 0
155 4.050000190734863 8.260918617248535 0.7999999523162842
156 4.241506576538086 2.088174343109131 0
157 4.241506576538086 2.088174343109131 0.7999999523162842
158 4.241506576538086 10.91182613372803 0
159 4.241506576538086 10.91182613372803 0.7999999523162842
160 4.25 5.547372341156006 -4.336808689942018e-16
161 4.25 5.547372341156006 0.7999999523162842
162 4.25 7.452628135681152 -4.336808689942018e-16
163 4.25 7.452628135681152 0.7999999523162842
164 4.270683288574219 3.138710260391235 0
165 4.270683288574219 3.138710260391235 0.7999999523162842
166 4.270683288574219 9.861289978027344 0
167 4.270683288574219 9.861289978027344 0.7999999523162842
168 4.416506290435791 2.391283512115479 0
169 4.416506290435791 2.391283512115479 0.7999999523162842
170 4.416506290435791 10.60871696472168 0
171 4.416506290435791 10.60871696472168 0.7999999523162842
172 4.466494560241699 3.477865219116211 0
173 4.466494560241699 3.477865219116211 0.7999999523162842
174 4.466494560241699 9.522134780883789 0
175 4.466494560241699 9.522134780883789 0.7999999523162842
176 4.550000190734863 5.027756690979004 -4.336808689942018e-16
177 4.550000190734863 5.027756690979004 0.7999999523162842
178 4.550000190734863 7.972243309020996 -4.336808689942018e-16
179 4.550000190734863 7.972243309020996 0.7999999523162842
180 4.563843250274658 1.986478447914124 0
181 4.563843250274658 1.986478447914124 0.7999999523162842
182 4.563843250274658 11.01352214813232 0
183 4.563843250274658 11.01352214813232 0.7999999523162842
184 4.703696250915527 2.888710260391235 0
185 4.703696250915527 2.888710260391235 0.7999999523162842
186 4.703696250915527 10.11128997802734 0
187 4.703696250915527 10.11128997802734 0.7999999523162842
188 4.753684043884277 3.975291967391968 -4.336808689942018e-16
189 4.753684043884277 3.975291967391968 0.7999999523162842
190 4.753684043884277 9.02470874786377 -4.336808689942018e-16
191 4.753684043884277 9.02470874786377 0.7999999523162842
192 4.851033210754395 2.48390531539917 0
193 4.851033210754395 2.48390531539917 0.7999999523162842
194 4.851033210754395 10.51609516143799 -4.336808689942018e-16
195 4.851033210754395 10.51609516143799 0.7999999523162842
196 4.89950704574585 3.227864980697632 0
197 4.89950704574585 3.227864980697632 0.7999999523162842
198 4.89950704574585 9.772134780883789 0
199 4.89950704574585 9.772134780883789 0.7999999523162842
200 4.908493995666504 4.243430137634277 0
201 4.908493995666504 4.243430137634277 0.7999999523162842
202 4.908493995666504 8.756569862365723 0
203 4.908493995666504 8.756569862365723 0.7999999523162842
204 5 5.980384826660156 0
205 5 5.980384826660156 0.7999999523162842
206 5 7.019615173339844 -4.336808689942018e-16
207 5 7.019615173339844 0.7999999523162842
208 5.252950937752646 4.621908202407425 0.7999999523162842
209 5.086467935897543 8.281973371029446 -1.067047403659964e-17
210 5.167392730712891 2.491856098175049 0
211 5.167392730712891 2.491856098175049 0.7999999523162842
212 5.167392730712891 10.50814437866211 0
213 5.167392730712891 10.50814437866211 0.7999999523162842
214 5.175000190734863 8.33308744430542 0.7999999523162842
215 5.186697006225586 3.725291967391968 -4.336808689942018e-16
216 5.186697006225586 3.725291967391968 0.7999999523162842
217 5.186697006225586 9.27470874786377 0
218 5.186697006225586 9.27470874786377 0.7999999523162842
219 5.191833972930908 1.328914880752563 0
220 5.191833972930908 1.328914880752563 0.7999999523162842
221 5.191833972930908 1.981618404388428 -4.336808689942018e-16
222 5.191833972930908 1.981618404388428 0.7999999523162842
223 5.191833972930908 11.01838207244873 0
224 5.191833972930908 11.01838207244873 0.7999999523162842
225 5.191833972930908 11.67108535766602 0
226 5.191833972930908 11.67108535766602 0.7999999523162842
227 5.25 4.623611927032471 0
228 5.300000190734863 5.460769653320312 0
229 5.300000190734863 5.460769653320312 0.7999999523162842
230 5.300000190734863 7.539230823516846 0
231 5.300000190734863 7.539230823516846 0.7999999523162842
232 5.341506481170654 3.993430137634277 0
233 5.341506481170654 3.993430137634277 0.7999999523162842
234 5.341506481170654 9.006569862365723 0
235 5.341506481170654 9.006569862365723 0.7999999523162842
236 5.454582214355469 2.989283084869385 -4.336808689942018e-16
237 5.454582214355469 2.989283084869385 0.7999999523162842
238 5.454582214355469 10.01071739196777 0
239 5.454582214355469 10.01071739196777 0.7999999523162842
240 5.5 5.92264986038208 0
241 5.5 5.92264986038208 0.7999999523162842
242 5.5 7.077350616455078 -4.336808689942018e-16
243 5.5 7.077350616455078 0.7999999523162842
244 5.647990703582764 0.5368092060089111 0
245 5.647990703582764 0.5368092060089111 0.7999999523162842
246 5.647990703582764 1.189512610435486 0
247 5.647990703582764 1.189512610435486 0.7999999523162842
248 5.647990703582764 11.81048774719238 0
249 5.647990703582764 11.81048774719238 0.7999999523162842
250 5.647990703582764 12.46319103240967 0
251 5.647990703582764 12.46319103240967 0.7999999523162842
252 6.200000286102295 0.2999999523162842 0
253 6.200000286102295 0.2999999523162842 0.7999999523162842
254 6.200000286102295 1.00000011920929 0
255 6.200000286102295 1.00000011920929 0.7999999523162842
256 6.200000286102295 1.652703642845154 0
257 6.200000286102295 1.652703642845154 0.7999999523162842
258 6.200000286102295 2.174866914749146 0
259 6.200000286102295 2.174866914749146 0.7999999523162842
260 6.200000286102295 2.827570199966431 0
261 6.200000286102295 2.827570199966431 0.7999999523162842
262 6.200000286102295 3.497778654098511 0
263 6.200000286102295 3.497778654098511 0.7999999523162842
264 6.200000286102295 4.07512903213501 0
265 6.200000286102295 4.07512903213501 0.7999999523162842
266 6.200000286102295 4.941154479980469 0
267 6.200000286102295 4.941154479980469 0.7999999523162842
268 6.200000286102295 8.058845520019531 0
269 6.200000286102295 8.058845520019531 0.7999999523162842
270 6.200000286102295 8.924871444702148 0
271 6.200000286102295 8.924871444702148 0.7999999523162842
272 6.200000286102295 9.502222061157227 0
273 6.200000286102295 9.502222061157227 0.7999999523162842
274 6.200000286102295 10.17243003845215 -4.336808689942018e-16
275 6.200000286102295 10.17243003845215 0.7999999523162842
276 6.200000286102295 10.82513332366943 0
277 6.200000286102295 10.82513332366943 0.7999999523162842
278 6.200000286102295 11.34729671478271 0
279 6.200000286102295 11.34729671478271 0.7999999523162842
280 6.200000286102295 12 0
281 6.200000286102295 12 0.7999999523162842
282 6.200000286102295 12.70000076293945 0
283 6.200000286102295 12.70000076293945 0.7999999523162842
284 6.5 0 0
285 6.5 0 0.7999999523162842
286 6.5 5.34529972076416 -4.336808689942018e-16
287 6.5 5.34529972076416 0.7999999523162842
288 6.5 7.654700756072998 -4.336808689942018e-16
289 6.5 7.654700756072998 0.7999999523162842
290 6.5 13 0
291 6.5 13 0.7999999523162842
292 6.800000190734863 0.2999999523162842 0
293 6.800000190734863 0.2999999523162842 0.7999999523162842
294 6.800000190734863 1.00000011920929 0
295 6.800000190734863 1.00000011920929 0.7999999523162842
296 6.800000190734863 1.652703642845154 0
297 6.800000190734863 1.652703642845154 0.7999999523162842
298 6.800000190734863 2.174866914749146 0
299 6.800000190734863 2.174866914749146 0.7999999523162842
300 6.800000190734863 2.827570199966431 0
301 6.800000190734863 2.827570199966431 0.7999999523162842
302 6.800000190734863 3.497778654098511 -4.336808689942018e-16
303 6.800000190734863 3.497778654098511 0.7999999523162842
304 6.800000190734863 4.07512903213501 0
305 6.800000190734863 4.07512903213501 0.7999999523162842
306 6.800000190734863 4.941154479980469 -4.336808689942018e-16
307 6.800000190734863 4.941154479980469 0.7999999523162842
308 6.800000190734863 8.058845520019531 0
309 6.800000190734863 8.058845520019531 0.7999999523162842
310 6.800000190734863 8.924871444702148 0
311 6.800000190734863 8.924871444702148 0.7999999523162842
312 6.800000190734863 9.502222061157227 0
313 6.800000190734863 9.502222061157227 0.7999999523162842
314 6.800000190734863 10.17243003845215 -4.336808689942018e-16
315 6.800000190734863 10.17243003845215 0.7999999523162842
316 6.800000190734863 10.82513332366943 0
317 6.800000190734863 10.82513332366943 0.7999999523162842
318 6.800000190734863 11.34729671478271 0
319 6.800000190734863 11.34729671478271 0.7999999523162842
320 6.800000190734863 12 0
321 6.800000190734863 12 0.7999999523162842
322 6.800000190734863 12.70000076293945 0
323 6.800000190734863 12.70000076293945 0.7999999523162842
324 7.352009773254395 0.5368092060089111 0
325 7.352009773254395 0.5368092060089111 0.7999999523162842
326 7.352009773254395 1.189512610435486 0
327 7.352009773254395 1.189512610435486 0.7999999523162842
328 7.352009773254395 11.81048774719238 0
329 7.352009773254395 11.81048774719238 0.7999999523162842
330 7.352009773254395 12.46319103240967 0
331 7.352009773254395 12.46319103240967 0.7999999523162842
332 7.5 5.92264986038208 -4.336808689942018e-16
333 7.5 5.92264986038208 0.7999999523162842
334 7.5 7.077350616455078 0
335 7.5 7.077350616455078 0.7999999523162842
336 7.545418262481689 2.989283084869385 0
337 7.545418262481689 2.989283084869385 0.7999999523162842
338 7.545418262481689 10.01071739196777 0
339 7.545418262481689 10.01071739196777 0.7999999523162842
340 7.658493995666504 3.993430137634277 -4.336808689942018e-16
341 7.658493995666504 3.993430137634277 0.7999999523162842
342 7.658493995666504 9.006569862365723 -4.336808689942018e-16
343 7.658493995666504 9.006569862365723 0.7999999523162842
344 7.700000286102295 5.460769653320312 -4.336808689942018e-16
345 7.700000286102295 5.460769653320312 0.7999999523162842
346 7.700000286102295 7.539230823516846 0
347 7.700000286102295 7.539230823516846 0.7999999523162842
348 7.75 4.623611927032471 0
349 7.753766665110112 8.37421387434313 0.005686717160631377
350 7.80816650390625 1.328914880752563 0
351 7.80816650390625 1.328914880752563 0.7999999523162842
352 7.80816650390625 1.981618404388428 -4.336808689942018e-16
353 7.80816650390625 1.981618404388428 0.7999999523162842
354 7.80816650390625 11.01838207244873 0
355 7.80816650390625 11.01838207244873 0.7999999523162842
356 7.80816650390625 11.67108535766602 0
357 7.80816650390625 11.67108535766602 0.7999999523162842
358 7.813303470611572 3.725291967391968 -4.336808689942018e-16
359 7.813303470611572 3.725291967391968 0.7999999523162842
360 7.813303470611572 9.27470874786377 0
361 7.813303470611572 9.27470874786377 0.7999999523162842
362 7.884981316330771 4.701543080403427 0.7999999523162842
363 7.832607746124268 2.491856098175049 0.008582768985893082
364 7.832607746124268 2.491856098175049 0.7999999523162842
365 7.832607746124268 10.50814437866211 0
366 7.832607746124268 10.50814437866211 0.7999999523162842
367 7.755374038516972 8.373285860993583 0.7999999523162842
368 8 5.980384826660156 0
369 8 5.980384826660156 0.7999999523162842
370 8 7.019615173339844 0
371 8 7.019615173339844 0.7999999523162842
372 8.091506004333496 4.243430137634277 -4.336808689942018e-16
373 8.091506004333496 4.243430137634277 0.7999999523162842
374 8.091506004333496 8.756569862365723 0
375 8.091506004333496 8.756569862365723 0.7999999523162842
376 8.100493431091309 3.227864980697632 0
377 8.100493431091309 3.227864980697632 0.7999999523162842
378 8.100493431091309 9.772134780883789 0
379 8.100493431091309 9.772134780883789 0.7999999523162842
380 8.148967742919922 2.48390531539917 0
381 8.148967742919922 2.48390531539917 0.7999999523162842
382 8.148967742919922 10.51609516143799 0
383 8.148967742919922 10.51609516143799 0.7999999523162842
384 8.246315956115723 3.975291967391968 0
385 8.246315956115723 3.975291967391968 0.7999999523162842
386 8.246315956115723 9.02470874786377 -4.336808689942018e-16
387 8.246315956115723 9.02470874786377 0.7999999523162842
388 8.296303749084473 2.888710260391235 -4.336808689942018e-16
389 8.296303749084473 2.888710260391235 0.7999999523162842
390 8.296303749084473 10.11128997802734 0
391 8.296303749084473 10.11128997802734 0.7999999523162842
392 8.4361572265625 1.986478447914124 0
393 8.4361572265625 1.986478447914124 0.7999999523162842
394 8.4361572265625 11.01352214813232 -4.440892098500626e-16
395 8.4361572265625 11.01352214813232 0.7999999523162842
396 8.449999809265137 5.027756690979004 0
397 8.449999809265137 5.027756690979004 0.7999999523162842
398 8.449999809265137 7.972243309020996 0
399 8.449999809265137 7.972243309020996 0.7999999523162842
400 8.533505439758301 3.477865219116211 0
401 8.533505439758301 3.477865219116211 0.7999999523162842
402 8.533505439758301 9.522134780883789 0
403 8.533505439758301 9.522134780883789 0.7999999523162842
404 8.583494186401367 2.391283512115479 -4.336808689942018e-16
405 8.583494186401367 2.391283512115479 0.7999999523162842
406 8.583494186401367 10.60871696472168 0
407 8.583494186401367 10.60871696472168 0.7999999523162842
408 8.600000381469727 3.912928104400635 0.7999999523162842
409 8.600000381469727 8.462990760803223 0.7999999523162842
410 8.600000381469727 9.087072372436523 0
411 8.729316711425781 3.138710260391235 0
412 8.729316711425781 3.138710260391235 0.7999999523162842
413 8.729316711425781 9.861289978027344 -4.336808689942018e-16
414 8.729316711425781 9.861289978027344 0.7999999523162842
415 8.75 5.547372341156006 0
416 8.75 5.547372341156006 0.7999999523162842
417 8.75 7.452628135681152 0
418 8.75 7.452628135681152 0.7999999523162842
419 8.758493423461914 2.088174343109131 0
420 8.758493423461914 2.088174343109131 0.7999999523162842
421 8.758493423461914 10.91182613372803 0
422 8.758493423461914 10.91182613372803 0.7999999523162842
423 8.949999809265137 4.739081859588623 0
424 8.949999809265137 4.739081859588623 0.7999999523162842
425 8.949999809265137 8.260918617248535 -4.336808689942018e-16
426 8.949999809265137 8.260918617248535 0.7999999523162842
427 9.016506195068359 2.641283273696899 0
428 9.016506195068359 2.641283273696899 0.7999999523162842
429 9.016506195068359 10.35871696472168 0
430 9.016506195068359 10.35871696472168 0.7999999523162842
431 9.017661094665527 3.839282989501953 0
432 9.017661094665527 3.839282989501953 0.7999999523162842
433 9.017661094665527 9.160717010498047 -4.336808689942018e-16
434 9.017661094665527 9.160717010498047 0.7999999523162842
435 9.100000381469727 1.996668100357056 0
436 9.100000381469727 1.996668100357056 0.7999999523162842
437 9.100000381469727 11.00333213806152 0
438 9.100000381469727 11.00333213806152 0.7999999523162842
439 9.153556823730469 3.063905239105225 -4.336808689942018e-16
440 9.153556823730469 3.063905239105225 0.7999999523162842
441 9.153556823730469 9.936095237731934 0
442 9.153556823730469 9.936095237731934 0.7999999523162842
443 9.191506385803223 2.338174343109131 0
444 9.191506385803223 2.338174343109131 0.7999999523162842
445 9.191506385803223 10.66182613372803 0
446 9.191506385803223 10.66182613372803 0.7999999523162842
447 9.25 5.258697032928467 0
448 9.25 5.258697032928467 0.7999999523162842
449 9.25 6.25 0
450 9.25 6.25 0.7999999523162842
451 9.25 6.75 0
452 9.25 6.75 0.7999999523162842
453 9.25 7.741302967071533 0
454 9.25 7.741302967071533 0.7999999523162842
455 9.304850578308105 3.341856241226196 0
456 9.304850578308105 3.341856241226196 0.7999999523162842
457 9.304850578308105 9.658143997192383 0
458 9.304850578308105 9.658143997192383 0.7999999523162842
459 9.440746307373047 2.566478252410889 0
460 9.440746307373047 2.566478252410889 0.7999999523162842
461 9.440746307373047 10.43352222442627 0
462 9.440746307373047 10.43352222442627 0.7999999523162842
463 9.530417442321777 4.403977870941162 0
464 9.530417442321777 4.403977870941162 0.7999999523162842
465 9.530417442321777 8.596022605895996 0
466 9.530417442321777 8.596022605895996 0.7999999523162842
467 9.559619903564453 6.25 0
468 9.559619903564453 6.25 0.7999999523162842
469 9.559619903564453 6.75 0
470 9.559619903564453 6.75 0.7999999523162842
471 9.758950233459473 3.107903957366943 0
472 9.758950233459473 3.107903957366943 0.7999999523162842
473 9.758950233459473 9.892096519470215 0
474 9.758950233459473 9.892096519470215 0.7999999523162842
475 9.830417633056641 4.923593044281006 0
476 9.830417633056641 4.923593044281006 0.7999999523162842
477 9.830417633056641 8.076407432556152 0
478 9.830417633056641 8.076407432556152 0.7999999523162842
479 10.06307983398438 5.650000095367432 0
480 10.06307983398438 5.650000095367432 0.7999999523162842
481 10.06307983398438 7.350000381469727 0
482 10.06307983398438 7.350000381469727 0.7999999523162842
483 10.09567546844482 4.077625751495361 0
484 10.09567546844482 4.077625751495361 0.7999999523162842
485 10.09567546844482 8.922374725341797 0
486 10.09567546844482 8.922374725341797 0.7999999523162842
487 10.13399887084961 6.25 0
488 10.13399887084961 6.25 0.7999999523162842
489 10.13399887084961 6.75 0
490 10.13399887084961 6.75 0.7999999523162842
491 10.32420825958252 2.781552314758301 0
492 10.32420825958252 2.781552314758301 0.7999999523162842
493 10.32420825958252 10.2184476852417 0.006585712199271023
494 10.32420825958252 10.2184476852417 0.7999999523162842
495 10.39567565917969 4.597240924835205 0
496 10.39567565917969 4.597240924835205 0.7999999523162842
497 10.39567565917969 8.402759552001953 0
498 10.39567565917969 8.402759552001953 0.7999999523162842
499 10.52562141418457 6.25 0
500 10.52562141418457 6.25 0.7999999523162842
501 10.52562141418457 6.75 0
502 10.52562141418457 6.75 0.7999999523162842
503 10.54788208007812 3.8165442943573 0
504 10.55868216004533 3.800911239944496 0.7999999523162842
505 10.54788208007812 9.183456420898438 0
506 10.54788208007812 9.183456420898438 0.7999999523162842
507 10.63745880126953 5.650000095367432 0
508 10.63745880126953 5.650000095367432 0.7999999523162842
509 10.63745880126953 7.350000381469727 0
510 10.63745880126953 7.350000381469727 0.7999999523162842
511 10.67301177978516 3.106894731521606 -4.336808689942018e-16
512 10.67301177978516 3.106894731521606 0.7999999523162842
513 10.67301177978516 9.893105506896973 0
514 10.67301177978516 9.893105506896973 0.7999999523162842
515 10.70606708526611 4.710214138031006 0
516 10.70606708526611 8.289786338806152 0
517 10.80252361297607 5.920000076293945 0
518 10.80252361297607 5.920000076293945 0.7999999523162842
519 10.80252361297607 7.079999923706055 0
520 10.80252361297607 7.079999923706055 0.7999999523162842
521 10.84788227081299 4.336159706115723 -4.336808689942018e-16
522 10.84788227081299 4.336159706115723 0.7999999523162842
523 10.84788227081299 8.663840293884277 0
524 10.84788227081299 8.663840293884277 0.7999999523162842
525 11.06711673736572 5.373714447021484 0
526 11.06711673736572 5.373714447021484 0.7999999523162842
527 11.06711673736572 7.626285552978516 0
528 11.06711673736572 7.626285552978516 0.7999999523162842
529 11.10000038146973 6.25 0
530 11.10000038146973 6.25 0.7999999523162842
531 11.10000038146973 6.75 0
532 11.10000038146973 6.75 0.7999999523162842
533 11.11314010620117 3.490192651748657 0
534 11.11314010620117 3.490192651748657 0.7999999523162842
535 11.11314010620117 9.509807586669922 0
536 11.11314010620117 9.509807586669922 0.7999999523162842
537 11.23827075958252 2.780542612075806 0
538 11.23827075958252 2.780542612075806 0.7999999523162842
539 11.23827075958252 10.21945762634277 0
540 11.23827075958252 10.21945762634277 0.7999999523162842
541 11.37690258026123 5.920000076293945 0
542 11.37690258026123 5.920000076293945 0.7999999523162842
543 11.37690258026123 7.079999923706055 0
544 11.37690258026123 7.079999923706055 0.7999999523162842
545 11.41313934326172 4.009807586669922 0
546 11.41313934326172 4.009807586669922 0.7999999523162842
547 11.41313934326172 8.990192413330078 0
548 11.41313934326172 8.990192413330078 0.7999999523162842
549 11.44999980926514 6.25 0
550 11.44999980926514 6.25 0.7999999523162842
551 11.44999980926514 6.75 0
552 11.44999980926514 6.75 0.7999999523162842
553 11.52502155303955 4.582618236541748 -4.336808689942018e-16
554 11.52502155303955 4.582618236541748 0.7999999523162842
555 11.52502155303955 8.41738224029541 0
556 11.52502155303955 8.41738224029541 0.7999999523162842
557 11.63237476348877 5.047362804412842 -4.336808689942018e-16
558 11.63237476348877 5.047362804412842 0.7999999523162842
559 11.63237476348877 7.952637672424316 0
560 11.63237476348877 7.952637672424316 0.7999999523162842
561 11.69999980926514 6.5 0
562 11.69999980926514 6.5 0.7999999523162842
563 11.71935749053955 3.14019250869751 0
564 11.71935749053955 3.14019250869751 0.7999999523162842
565 11.71935749053955 9.859807968139648 0
566 11.71935749053955 9.859807968139648 0.7999999523162842
567 12.01935768127441 3.659807920455933 0
568 12.01935768127441 3.659807920455933 0.7999999523162842
569 12.01935768127441 9.340192794799805 0
570 12.01935768127441 9.340192794799805 0.7999999523162842
571 12.0902795791626 4.256266593933105 0
572 12.0902795791626 4.256266593933105 0.7999999523162842
573 12.0902795791626 8.743733406066895 0
574 12.0902795791626 8.743733406066895 0.7999999523162842
575 12.12916564941406 3.25 0
576 12.12916564941406 3.25 0.7999999523162842
577 12.12916564941406 9.75 0
578 12.12916564941406 9.75 0.7999999523162842
579 3.736373458357219 6.508279411677417 0.3722247486457046
580 9.582204959069363 6.492990233660557 0.4076171474472385
581 10.67480074632243 6.499999999999998 0.3660529951109464
582 5.725000143051147 4.34937047958374 0.3999999761581421
583 2.802754617615919 3.501592982714226 -2.409337850442084e-16
584 2.802754617615919 3.501592982714226 0.7999999523162842
585 5.682903204549611 8.62632531963024 0.4005111180895004
586 2.610603524149511 5.945628414388029 0.3690599595819383
587 7.957885946975453 2.836054664157643 0.4017280528311833
588 10.19724567684604 9.498407600032852 -1.927472028152942e-16
589 10.26676254372144 9.892657068416035 0.4444447155973522
590 10.19724567684604 9.498407600032852 0.7999999523162842
591 8.75 6.911913697829133 0.3924281598061616
592 9.644683837890625 9.244059562683105 0
593 2.733237694743555 9.892657068152804 0.7999999523162842
594 2.760331391302027 9.747264873498777 0
595 4.25 6.622450321367642 -4.336808689942018e-16
596 7.329059497174034 11.26906701547937 0.7999999523162842
597 11.69488344381834 6.494883634553207 0.435955795397669
598 7.295485676702453 8.638802635979545 0.4010800673163763
599 5 6.426419626894015 0.4021987328393899
600 3.071013177610383 3.590064437980429 0.3999999761581428
601 2.331772709230544 7.771469392079813 2.16840434497101e-16
602 2.331772709230544 7.771469392079813 0.7999999523162842
603 10.24491020569685 5.074455915914243 0
604 10.24491020569685 5.074455915914243 0.7999999523162842
605 10.66822781043226 5.228530834691431 0.3587789174879933
606 1.300000071525574 6.5 0.4388744467258088
607 9.607012586415966 3.96958520600792 0
608 9.632830368066045 3.823165284663408 0.7999999523162842
609 2.615430663387706 5.941279508381135 0
610 10.19724562442468 3.501592962172749 0
611 10.19724562442468 3.501592962172749 0.7999999523162842
612 5.684508776630445 1.742318308569007 0.7999999523162842
613 1.678491927485004 4.934216673536127 -2.881388062343503e-16
614 2.470975087615535 5.177865263828174 0.7999999523162842
615 8.75 6.481345831355805 0.7999999523162842
616 4.25 6.374131105676264 0.7999999523162842
617 8.75 6.476204238012563 0
618 10.24491016041333 7.925544417587843 0.7999999523162842
619 10.66822778745966 7.771469327470514 0
620 5.777777593993025 11.17942022895735 0
621 9.607012549732998 9.030415062789787 0.7999999523162842
622 3.340485097506906 3.671829763863096 0.7999999523162842
623 5.680728047681657 1.73914590125076 0
624 3.340485097506906 3.671829763863096 -4.336808689942018e-16
625 7.286641134948688 3.778740851569505 0.3980098753237756
626 3.364325664287444 9.192964134805321 -2.339375377807859e-16
627 5.684508858790458 11.25768199028042 0.7999999523162842
628 5.74545855233187 3.76020836923218 0.3999999761581391
629 7.329059627599957 1.73093324627526 0.7999999523162842
630 2.819088502910842 9.40577328006599 0.4028928993777113
631 7.275000095367432 2.428997993469238 0
632 5.975163523063864 7.351686230477704 0.3956764403351943
633 7.002299157837379 5.635302000019381 0.4000777471828854
634 7.025349726532332 7.351389905873046 0.4098346511943348
635 5.984174975048628 5.643111166983751 0.4033450743264943
636 11.01402521133423 4.822301864624023 0.7999999523162842
637 11.01402521133423 8.177698612213135 0.7999999523162842
638 5.695917129516602 10.59540605545044 -2.168404344971009e-16
639 7.304083347320557 10.59540605545044 -2.168404344971009e-16
640 5.695917129516602 2.404594302177429 -2.168404344971009e-16
641 5.783782054648411 5.181458130610436 0.4000377184488352
642 8 6.5 0.3999999761581421
643 5.746924804227978 7.79726257106349 0.4009384667534424
644 7.250000238418579 7.799038171768188 0.3999999761581421
645 7.328906428855145 4.380493177575531 0.7999999523162842
646 5.739807456305976 9.23652930176126 0.4051516141622997
647 7.24134955492055 9.247408594202403 0.3972404661241368
648 8.476556316495842 4.465738839133834 0.4005776430892997
649 11.22090080059186 4.897598421472905 0.3832306259852838
650 11.22574397045797 8.100639284419126 0.3786434806012801
651 2.141408253361948 4.765728799185666 0.3999999761581419
652 4.546030130623432 4.452698755774298 0.3993757926048884
653 4.504246950149536 8.523178100585938 0.3999999761581421
654 6.800000190734863 4.508141756057739 0.3999999761581421
655 7 5.63397479057312 -4.336808689942018e-16
656 5.5 6.432405444546349 -1.914532778750788e-16
657 5.5 6.492544813312388 0.7999999523162842
658 7.5 6.500000238418579 -2.168404344971009e-16
659 7.5 6.495989307043843 0.7999999523162842
660 6 5.63397479057312 -2.168404344971009e-16
661 6 5.63397479057312 0.7999999523162842
662 6 7.366025686264038 -4.336808689942018e-16
663 6 7.366025686264038 0.7999999523162842
664 7 5.63397479057312 0.7999999523162842
665 7 7.366025686264038 -2.168404344971009e-16
666 7 7.366025686264038 0.7999999523162842
$EndNodes
$Elements
1096
1 4 2 0 0 596 316 639 317
2 4 2 0 0 635 267 266 287
3 4 2 0 0 377 359 336 337
4 4 2 0 0 425 409 349 399
5 4 2 0 0 650 619 637 516
6 4 2 0 0 649 605 515 636
7 4 2 0 0 148 165 185 164
8 4 2 0 0 529 532 552 531
9 4 2 0 0 547 556 548 523
10 4 2 0 0 333 633 332 344
11 4 2 0 0 402 403 387 434
12 4 2 0 0 414 429 430 442
13 4 2 0 0 611 492 471 610
14 4 2 0 0 451 591 417 617
15 4 2 0 0 407 406 422 446
16 4 2 0 0 496 526 605 604
17 4 2 0 0 405 388 404 380
18 4 2 0 0 505 506 548 536
19 4 2 0 0 595 162 128 163
20 4 2 0 0 468 580 488 467
21 4 2 0 0 445 421 406 446
22 4 2 0 0 438 421 446 422
23 4 2 0 0 365 379 366 338
24 4 2 0 0 451 470 452 580
25 4 2 0 0 148 169 149 132
26 4 2 0 0 476 463 423 475
27 4 2 0 0 361 360 374 343
28 4 2 0 0 504 503 545 533
29 4 2 0 0 401 376 400 412
30 4 2 0 0 530 532 552 529
31 4 2 0 0 214 585 209 234
32 4 2 0 0 341 340 373 359
33 4 2 0 0 159 142 134 143
34 4 2 0 0 505 514 535 513
35 4 2 0 0 618 478 498 477
36 4 2 0 0 298 631 300 301
37 4 2 0 0 504 503 495 521
38 4 2 0 0 576 568 563 564
39 4 2 0 0 381 389 405 380
40 4 2 0 0 488 490 489 580
41 4 2 0 0 487 581 499 501
42 4 2 0 0 301 299 631 353
43 4 2 0 0 301 299 298 631
44 4 2 0 0 487 501 489 581
45 4 2 0 0 581 501 489 502
46 4 2 0 0 580 489 469 470
47 4 2 0 0 504 533 512 503
48 4 2 0 0 488 502 489 490
49 4 2 0 0 512 533 511 503
50 4 2 0 0 264 628 265 582
51 4 2 0 0 171 187 170 195
52 4 2 0 0 180 181 193 168
53 4 2 0 0 334 346 347 370
54 4 2 0 0 137 136 165 148
55 4 2 0 0 164 173 197 172
56 4 2 0 0 164 197 196 172
57 4 2 0 0 107 86 106 594
58 4 2 0 0 408 431 400 384
59 4 2 0 0 406 407 414 430
60 4 2 0 0 200 201 227 652
61 4 2 0 0 47 48 35 60
62 4 2 0 0 179 155 154 131
63 4 2 0 0 451 452 591 617
64 4 2 0 0 465 466 478 486
65 4 2 0 0 370 418 346 347
66 4 2 0 0 613 51 19 20
67 4 2 0 0 93 73 55 72
68 4 2 0 0 331 320 329 321
69 4 2 0 0 264 232 582 227
70 4 2 0 0 227 208 233 582
71 4 2 0 0 227 582 233 232
72 4 2 0 0 341 348 340 625
73 4 2 0 0 340 348 304 625
74 4 2 0 0 67 66 45 41
75 4 2 0 0 50 62 49 37
76 4 2 0 0 560 528 637 650
77 4 2 0 0 346 347 634 334
78 4 2 0 0 80 93 81 55
79 4 2 0 0 109 108 88 110
80 4 2 0 0 579 110 108 109
81 4 2 0 0 175 174 166 199
82 4 2 0 0 191 190 174 218
83 4 2 0 0 494 589 590 474
84 4 2 0 0 446 421 406 422
85 4 2 0 0 453 477 465 478
86 4 2 0 0 565 578 566 570
87 4 2 0 0 430 429 406 446
88 4 2 0 0 457 458 402 434
89 4 2 0 0 410 402 434 433
90 4 2 0 0 487 467 479 480
91 4 2 0 0 530 529 552 550
92 4 2 0 0 576 563 568 567
93 4 2 0 0 534 546 533 504
94 4 2 0 0 513 514 535 540
95 4 2 0 0 341 348 645 362
96 4 2 0 0 390 414 391 378
97 4 2 0 0 647 311 343 313
98 4 2 0 0 290 323 291 282
99 4 2 0 0 382 395 407 406
100 4 2 0 0 235 234 202 217
101 4 2 0 0 550 552 549 529
102 4 2 0 0 434 458 402 403
103 4 2 0 0 569 565 578 577
104 4 2 0 0 534 504 533 512
105 4 2 0 0 591 454 452 451
106 4 2 0 0 379 378 414 403
107 4 2 0 0 239 198 212 238
108 4 2 0 0 147 191 146 175
109 4 2 0 0 382 391 407 383
110 4 2 0 0 159 142 158 134
111 4 2 0 0 269 309 308 271
112 4 2 0 0 271 311 309 308
113 4 2 0 0 271 270 311 308
114 4 2 0 0 406 429 430 414
115 4 2 0 0 417 398 399 425
116 4 2 0 0 266 654 264 304
117 4 2 0 0 195 182 194 170
118 4 2 0 0 199 187 166 175
119 4 2 0 0 441 442 429 414
120 4 2 0 0 465 486 485 592
121 4 2 0 0 621 486 465 592
122 4 2 0 0 275 277 638 224
123 4 2 0 0 350 298 629 352
124 4 2 0 0 367 343 349 598
125 4 2 0 0 315 639 317 355
126 4 2 0 0 379 414 378 391
127 4 2 0 0 315 316 317 639
128 4 2 0 0 387 403 378 379
129 4 2 0 0 261 259 222 640
130 4 2 0 0 407 446 430 406
131 4 2 0 0 382 407 395 383
132 4 2 0 0 346 398 399 417
133 4 2 0 0 80 614 100 51
134 4 2 0 0 367 349 343 375
135 4 2 0 0 361 374 360 386
136 4 2 0 0 365 378 379 338
137 4 2 0 0 591 418 452 454
138 4 2 0 0 402 378 414 413
139 4 2 0 0 335 347 634 666
140 4 2 0 0 530 499 529 517
141 4 2 0 0 399 418 347 346
142 4 2 0 0 519 544 532 531
143 4 2 0 0 370 346 418 417
144 4 2 0 0 591 617 452 615
145 4 2 0 0 370 371 418 347
146 4 2 0 0 346 417 399 418
147 4 2 0 0 370 347 334 371
148 4 2 0 0 543 544 519 531
149 4 2 0 0 580 470 490 489
150 4 2 0 0 639 354 596 355
151 4 2 0 0 639 354 316 596
152 4 2 0 0 596 639 355 317
153 4 2 0 0 470 489 469 482
154 4 2 0 0 456 455 400 431
155 4 2 0 0 611 471 607 483
156 4 2 0 0 611 471 472 607
157 4 2 0 0 590 474 473 592
158 4 2 0 0 592 590 485 473
159 4 2 0 0 624 622 93 600
160 4 2 0 0 583 93 600 92
161 4 2 0 0 600 93 583 584
162 4 2 0 0 584 105 600 93
163 4 2 0 0 622 93 600 105
164 4 2 0 0 450 415 447 448
165 4 2 0 0 624 93 92 600
166 4 2 0 0 532 502 501 581
167 4 2 0 0 235 234 585 214
168 4 2 0 0 390 391 407 382
169 4 2 0 0 535 536 505 548
170 4 2 0 0 349 425 374 409
171 4 2 0 0 413 414 429 406
172 4 2 0 0 522 521 545 504
173 4 2 0 0 390 407 391 414
174 4 2 0 0 590 588 473 589
175 4 2 0 0 390 414 406 407
176 4 2 0 0 390 406 382 407
177 4 2 0 0 451 470 580 469
178 4 2 0 0 523 524 556 548
179 4 2 0 0 474 473 494 589
180 4 2 0 0 467 489 469 580
181 4 2 0 0 445 429 446 406
182 4 2 0 0 322 323 290 282
183 4 2 0 0 329 321 320 318
184 4 2 0 0 357 596 356 355
185 4 2 0 0 432 456 401 400
186 4 2 0 0 394 406 395 382
187 4 2 0 0 338 366 339 379
188 4 2 0 0 338 361 379 339
189 4 2 0 0 402 434 387 410
190 4 2 0 0 402 386 387 378
191 4 2 0 0 413 414 441 429
192 4 2 0 0 505 548 524 523
193 4 2 0 0 477 497 485 498
194 4 2 0 0 547 556 555 574
195 4 2 0 0 437 421 446 438
196 4 2 0 0 437 446 421 445
197 4 2 0 0 308 309 269 289
198 4 2 0 0 103 114 154 130
199 4 2 0 0 413 406 390 414
200 4 2 0 0 402 403 378 387
201 4 2 0 0 425 399 426 409
202 4 2 0 0 481 489 482 469
203 4 2 0 0 413 414 390 378
204 4 2 0 0 346 665 334 634
205 4 2 0 0 308 289 288 634
206 4 2 0 0 305 341 303 625
207 4 2 0 0 625 303 305 302
208 4 2 0 0 349 399 398 425
209 4 2 0 0 569 570 578 565
210 4 2 0 0 505 506 536 514
211 4 2 0 0 535 536 514 505
212 4 2 0 0 524 497 498 485
213 4 2 0 0 524 505 497 485
214 4 2 0 0 547 574 555 573
215 4 2 0 0 360 378 338 361
216 4 2 0 0 21 53 82 63
217 4 2 0 0 21 22 53 63
218 4 2 0 0 632 242 243 230
219 4 2 0 0 106 94 630 594
220 4 2 0 0 547 523 548 505
221 4 2 0 0 308 634 309 289
222 4 2 0 0 529 551 552 549
223 4 2 0 0 373 362 424 648
224 4 2 0 0 402 387 386 410
225 4 2 0 0 433 402 434 457
226 4 2 0 0 334 347 335 371
227 4 2 0 0 312 342 647 310
228 4 2 0 0 634 666 347 309
229 4 2 0 0 334 347 634 335
230 4 2 0 0 346 347 644 634
231 4 2 0 0 342 349 343 598
232 4 2 0 0 360 378 361 386
233 4 2 0 0 488 489 502 500
234 4 2 0 0 361 378 387 386
235 4 2 0 0 519 532 544 520
236 4 2 0 0 519 501 531 532
237 4 2 0 0 505 497 523 524
238 4 2 0 0 417 399 418 454
239 4 2 0 0 417 453 454 451
240 4 2 0 0 378 361 379 338
241 4 2 0 0 378 361 387 379
242 4 2 0 0 617 450 415 449
243 4 2 0 0 374 343 375 361
244 4 2 0 0 374 360 342 343
245 4 2 0 0 374 343 349 375
246 4 2 0 0 374 349 343 342
247 4 2 0 0 374 375 387 361
248 4 2 0 0 374 386 361 387
249 4 2 0 0 489 481 482 510
250 4 2 0 0 310 598 349 342
251 4 2 0 0 510 490 482 489
252 4 2 0 0 482 470 489 490
253 4 2 0 0 310 311 647 313
254 4 2 0 0 402 403 414 378
255 4 2 0 0 312 647 313 310
256 4 2 0 0 453 478 426 454
257 4 2 0 0 519 532 520 501
258 4 2 0 0 524 506 485 498
259 4 2 0 0 498 486 506 485
260 4 2 0 0 505 524 548 506
261 4 2 0 0 505 506 485 524
262 4 2 0 0 547 548 535 505
263 4 2 0 0 527 559 650 560
264 4 2 0 0 532 501 502 520
265 4 2 0 0 532 581 501 531
266 4 2 0 0 555 523 556 547
267 4 2 0 0 542 529 517 530
268 4 2 0 0 500 581 530 499
269 4 2 0 0 529 531 552 551
270 4 2 0 0 385 359 384 400
271 4 2 0 0 479 487 508 507
272 4 2 0 0 468 480 467 488
273 4 2 0 0 440 411 439 427
274 4 2 0 0 432 400 408 431
275 4 2 0 0 500 581 489 502
276 4 2 0 0 500 499 487 581
277 4 2 0 0 499 501 581 531
278 4 2 0 0 416 344 397 345
279 4 2 0 0 471 483 611 610
280 4 2 0 0 487 488 489 467
281 4 2 0 0 358 340 359 384
282 4 2 0 0 500 518 499 530
283 4 2 0 0 416 397 344 396
284 4 2 0 0 476 424 423 464
285 4 2 0 0 452 580 450 449
286 4 2 0 0 617 451 452 449
287 4 2 0 0 449 580 469 451
288 4 2 0 0 449 469 580 467
289 4 2 0 0 476 464 463 484
290 4 2 0 0 188 189 172 216
291 4 2 0 0 648 348 423 372
292 4 2 0 0 123 175 146 174
293 4 2 0 0 101 124 112 100
294 4 2 0 0 144 172 188 189
295 4 2 0 0 400 359 358 376
296 4 2 0 0 529 532 531 581
297 4 2 0 0 529 531 499 581
298 4 2 0 0 529 530 581 499
299 4 2 0 0 467 580 488 489
300 4 2 0 0 504 495 522 521
301 4 2 0 0 508 480 488 487
302 4 2 0 0 546 504 545 533
303 4 2 0 0 256 298 299 296
304 4 2 0 0 297 295 294 326
305 4 2 0 0 576 567 575 563
306 4 2 0 0 369 333 332 344
307 4 2 0 0 582 208 233 265
308 4 2 0 0 412 411 440 427
309 4 2 0 0 400 384 358 359
310 4 2 0 0 376 336 359 358
311 4 2 0 0 172 189 173 197
312 4 2 0 0 405 419 427 444
313 4 2 0 0 324 327 326 295
314 4 2 0 0 244 246 255 254
315 4 2 0 0 629 299 631 298
316 4 2 0 0 629 353 631 299
317 4 2 0 0 381 393 380 405
318 4 2 0 0 369 332 368 344
319 4 2 0 0 504 495 503 483
320 4 2 0 0 432 400 431 456
321 4 2 0 0 504 503 521 545
322 4 2 0 0 450 416 615 415
323 4 2 0 0 428 444 405 427
324 4 2 0 0 500 581 502 532
325 4 2 0 0 444 435 419 443
326 4 2 0 0 444 435 436 419
327 4 2 0 0 444 419 427 443
328 4 2 0 0 496 483 475 495
329 4 2 0 0 420 419 444 436
330 4 2 0 0 405 412 404 388
331 4 2 0 0 405 388 389 412
332 4 2 0 0 424 396 423 648
333 4 2 0 0 401 376 359 400
334 4 2 0 0 412 376 400 411
335 4 2 0 0 405 404 427 419
336 4 2 0 0 522 504 545 546
337 4 2 0 0 496 495 504 483
338 4 2 0 0 530 532 529 581
339 4 2 0 0 468 580 467 449
340 4 2 0 0 471 472 492 611
341 4 2 0 0 484 504 483 496
342 4 2 0 0 530 517 518 499
343 4 2 0 0 468 470 490 580
344 4 2 0 0 488 489 500 487
345 4 2 0 0 542 541 517 529
346 4 2 0 0 597 552 551 549
347 4 2 0 0 500 581 487 489
348 4 2 0 0 416 396 344 415
349 4 2 0 0 373 372 340 348
350 4 2 0 0 432 401 408 400
351 4 2 0 0 597 549 551 561
352 4 2 0 0 450 449 447 415
353 4 2 0 0 468 449 450 580
354 4 2 0 0 450 470 580 452
355 4 2 0 0 542 518 530 517
356 4 2 0 0 467 480 487 488
357 4 2 0 0 468 580 490 488
358 4 2 0 0 468 580 450 470
359 4 2 0 0 500 532 530 581
360 4 2 0 0 554 553 545 521
361 4 2 0 0 554 521 545 522
362 4 2 0 0 554 546 522 545
363 4 2 0 0 424 396 397 416
364 4 2 0 0 405 380 389 388
365 4 2 0 0 484 472 608 607
366 4 2 0 0 408 385 400 401
367 4 2 0 0 476 423 447 475
368 4 2 0 0 373 372 384 340
369 4 2 0 0 448 423 415 447
370 4 2 0 0 377 587 336 376
371 4 2 0 0 344 368 416 415
372 4 2 0 0 388 376 412 411
373 4 2 0 0 452 418 591 615
374 4 2 0 0 345 333 369 344
375 4 2 0 0 341 340 348 373
376 4 2 0 0 341 348 362 373
377 4 2 0 0 428 427 412 440
378 4 2 0 0 359 384 340 373
379 4 2 0 0 385 359 373 384
380 4 2 0 0 401 359 385 400
381 4 2 0 0 369 416 344 368
382 4 2 0 0 369 416 345 344
383 4 2 0 0 345 333 344 633
384 4 2 0 0 371 642 334 370
385 4 2 0 0 307 286 633 306
386 4 2 0 0 424 648 362 397
387 4 2 0 0 416 448 415 450
388 4 2 0 0 424 648 397 396
389 4 2 0 0 307 344 306 633
390 4 2 0 0 216 236 196 215
391 4 2 0 0 408 400 385 384
392 4 2 0 0 307 633 345 344
393 4 2 0 0 420 444 419 405
394 4 2 0 0 377 336 359 376
395 4 2 0 0 73 81 93 55
396 4 2 0 0 244 247 245 255
397 4 2 0 0 377 376 412 389
398 4 2 0 0 404 427 411 412
399 4 2 0 0 405 412 428 427
400 4 2 0 0 405 404 412 427
401 4 2 0 0 389 412 388 376
402 4 2 0 0 256 299 259 257
403 4 2 0 0 377 412 376 401
404 4 2 0 0 404 388 412 411
405 4 2 0 0 364 587 337 377
406 4 2 0 0 364 587 336 337
407 4 2 0 0 405 404 392 380
408 4 2 0 0 405 380 392 393
409 4 2 0 0 377 336 587 337
410 4 2 0 0 377 376 359 401
411 4 2 0 0 252 284 293 285
412 4 2 0 0 623 612 258 221
413 4 2 0 0 164 196 197 184
414 4 2 0 0 272 234 270 646
415 4 2 0 0 148 165 169 185
416 4 2 0 0 31 32 44 73
417 4 2 0 0 635 229 241 228
418 4 2 0 0 164 197 185 184
419 4 2 0 0 216 197 172 196
420 4 2 0 0 211 197 237 196
421 4 2 0 0 140 132 157 156
422 4 2 0 0 168 185 169 193
423 4 2 0 0 654 265 264 305
424 4 2 0 0 236 237 196 210
425 4 2 0 0 156 169 132 157
426 4 2 0 0 210 237 196 211
427 4 2 0 0 140 157 132 141
428 4 2 0 0 148 136 165 164
429 4 2 0 0 168 164 185 184
430 4 2 0 0 80 72 93 55
431 4 2 0 0 164 197 173 165
432 4 2 0 0 264 265 628 262
433 4 2 0 0 266 287 267 307
434 4 2 0 0 89 69 586 97
435 4 2 0 0 148 169 165 149
436 4 2 0 0 168 193 184 185
437 4 2 0 0 50 29 49 27
438 4 2 0 0 653 209 214 179
439 4 2 0 0 88 109 89 96
440 4 2 0 0 266 286 287 307
441 4 2 0 0 266 306 286 307
442 4 2 0 0 227 208 201 233
443 4 2 0 0 188 172 196 216
444 4 2 0 0 635 286 287 266
445 4 2 0 0 172 189 145 173
446 4 2 0 0 216 236 237 196
447 4 2 0 0 216 197 196 237
448 4 2 0 0 148 165 137 149
449 4 2 0 0 240 241 228 635
450 4 2 0 0 200 227 201 232
451 4 2 0 0 582 265 233 628
452 4 2 0 0 177 652 227 201
453 4 2 0 0 90 88 91 76
454 4 2 0 0 47 48 60 77
455 4 2 0 0 111 89 91 88
456 4 2 0 0 125 124 127 161
457 4 2 0 0 43 73 44 64
458 4 2 0 0 252 285 293 253
459 4 2 0 0 50 48 28 27
460 4 2 0 0 579 110 128 108
461 4 2 0 0 579 126 127 108
462 4 2 0 0 7 34 25 33
463 4 2 0 0 111 110 109 88
464 4 2 0 0 57 82 74 75
465 4 2 0 0 76 91 89 88
466 4 2 0 0 613 52 51 20
467 4 2 0 0 64 65 73 44
468 4 2 0 0 132 149 133 169
469 4 2 0 0 116 149 137 117
470 4 2 0 0 32 73 31 56
471 4 2 0 0 92 93 80 72
472 4 2 0 0 10 1 14 2
473 4 2 0 0 105 104 85 584
474 4 2 0 0 104 84 85 584
475 4 2 0 0 31 73 55 56
476 4 2 0 0 72 73 55 31
477 4 2 0 0 164 165 185 197
478 4 2 0 0 96 88 109 108
479 4 2 0 0 132 133 141 157
480 4 2 0 0 132 133 157 169
481 4 2 0 0 31 44 43 73
482 4 2 0 0 168 132 169 148
483 4 2 0 0 172 197 216 189
484 4 2 0 0 252 292 293 284
485 4 2 0 0 256 297 299 257
486 4 2 0 0 256 259 299 258
487 4 2 0 0 256 298 258 299
488 4 2 0 0 220 612 219 222
489 4 2 0 0 168 169 185 148
490 4 2 0 0 168 164 148 185
491 4 2 0 0 168 169 132 156
492 4 2 0 0 168 169 181 193
493 4 2 0 0 192 193 168 180
494 4 2 0 0 192 193 184 168
495 4 2 0 0 260 258 261 640
496 4 2 0 0 246 247 255 257
497 4 2 0 0 256 299 297 296
498 4 2 0 0 261 258 259 640
499 4 2 0 0 200 232 201 189
500 4 2 0 0 72 43 73 31
501 4 2 0 0 9 14 10 1
502 4 2 0 0 9 1 13 14
503 4 2 0 0 47 59 60 35
504 4 2 0 0 159 135 134 171
505 4 2 0 0 322 323 280 320
506 4 2 0 0 72 64 73 43
507 4 2 0 0 322 282 280 323
508 4 2 0 0 320 321 323 280
509 4 2 0 0 283 280 282 323
510 4 2 0 0 281 323 280 283
511 4 2 0 0 281 321 280 323
512 4 2 0 0 254 294 295 252
513 4 2 0 0 252 293 295 253
514 4 2 0 0 252 255 253 295
515 4 2 0 0 35 36 60 48
516 4 2 0 0 252 292 294 295
517 4 2 0 0 252 292 295 293
518 4 2 0 0 254 255 252 295
519 4 2 0 0 96 97 109 89
520 4 2 0 0 47 60 59 77
521 4 2 0 0 11 45 46 33
522 4 2 0 0 16 46 11 15
523 4 2 0 0 11 46 12 34
524 4 2 0 0 23 24 32 56
525 4 2 0 0 11 46 16 12
526 4 2 0 0 23 31 56 32
527 4 2 0 0 228 205 229 241
528 4 2 0 0 204 240 205 228
529 4 2 0 0 232 216 189 188
530 4 2 0 0 595 128 579 129
531 4 2 0 0 11 15 46 45
532 4 2 0 0 11 46 34 33
533 4 2 0 0 5 24 6 32
534 4 2 0 0 32 14 31 44
535 4 2 0 0 14 43 13 31
536 4 2 0 0 131 163 130 179
537 4 2 0 0 32 31 14 9
538 4 2 0 0 44 14 31 43
539 4 2 0 0 14 31 13 9
540 4 2 0 0 50 27 49 47
541 4 2 0 0 188 196 215 216
542 4 2 0 0 144 145 172 189
543 4 2 0 0 50 27 28 30
544 4 2 0 0 227 208 177 201
545 4 2 0 0 227 232 233 201
546 4 2 0 0 232 216 188 215
547 4 2 0 0 144 172 145 121
548 4 2 0 0 145 121 172 173
549 4 2 0 0 144 172 121 120
550 4 2 0 0 232 188 189 200
551 4 2 0 0 37 61 62 49
552 4 2 0 0 76 77 47 59
553 4 2 0 0 586 68 97 69
554 4 2 0 0 110 90 88 111
555 4 2 0 0 126 616 579 127
556 4 2 0 0 635 266 267 641
557 4 2 0 0 232 216 201 189
558 4 2 0 0 232 233 201 216
559 4 2 0 0 635 286 266 660
560 4 2 0 0 61 79 62 49
561 4 2 0 0 231 230 243 207
562 4 2 0 0 635 661 267 287
563 4 2 0 0 275 276 277 317
564 4 2 0 0 240 228 241 205
565 4 2 0 0 79 47 76 77
566 4 2 0 0 79 77 48 47
567 4 2 0 0 204 161 228 205
568 4 2 0 0 228 229 205 161
569 4 2 0 0 204 160 228 161
570 4 2 0 0 177 161 229 228
571 4 2 0 0 177 160 161 228
572 4 2 0 0 23 56 31 55
573 4 2 0 0 91 76 79 78
574 4 2 0 0 586 96 88 89
575 4 2 0 0 57 82 75 83
576 4 2 0 0 50 27 30 29
577 4 2 0 0 91 78 90 76
578 4 2 0 0 98 91 90 111
579 4 2 0 0 50 79 48 47
580 4 2 0 0 602 63 82 53
581 4 2 0 0 126 595 579 616
582 4 2 0 0 78 76 79 47
583 4 2 0 0 271 235 273 646
584 4 2 0 0 171 170 183 195
585 4 2 0 0 270 209 585 234
586 4 2 0 0 268 288 308 269
587 4 2 0 0 288 289 308 269
588 4 2 0 0 289 632 269 288
589 4 2 0 0 278 249 280 248
590 4 2 0 0 251 280 248 250
591 4 2 0 0 109 88 89 111
592 4 2 0 0 38 62 50 37
593 4 2 0 0 129 128 579 110
594 4 2 0 0 111 110 129 109
595 4 2 0 0 49 78 61 79
596 4 2 0 0 16 11 3 15
597 4 2 0 0 95 75 82 83
598 4 2 0 0 273 646 270 271
599 4 2 0 0 206 207 242 230
600 4 2 0 0 50 47 48 27
601 4 2 0 0 22 54 53 63
602 4 2 0 0 49 79 47 78
603 4 2 0 0 74 82 94 75
604 4 2 0 0 129 110 579 109
605 4 2 0 0 191 146 174 190
606 4 2 0 0 251 249 248 280
607 4 2 0 0 171 170 134 158
608 4 2 0 0 239 238 217 198
609 4 2 0 0 274 316 315 314
610 4 2 0 0 195 170 183 182
611 4 2 0 0 599 656 204 206
612 4 2 0 0 655 306 344 633
613 4 2 0 0 174 218 190 198
614 4 2 0 0 199 198 174 166
615 4 2 0 0 633 286 655 306
616 4 2 0 0 167 138 139 150
617 4 2 0 0 167 138 150 166
618 4 2 0 0 260 302 303 300
619 4 2 0 0 262 263 260 303
620 4 2 0 0 260 261 303 263
621 4 2 0 0 260 303 301 300
622 4 2 0 0 260 301 303 261
623 4 2 0 0 262 302 303 260
624 4 2 0 0 273 313 272 315
625 4 2 0 0 276 318 319 316
626 4 2 0 0 276 319 318 278
627 4 2 0 0 276 317 316 319
628 4 2 0 0 272 314 315 312
629 4 2 0 0 272 313 312 315
630 4 2 0 0 275 272 315 273
631 4 2 0 0 274 314 315 272
632 4 2 0 0 218 203 191 202
633 4 2 0 0 218 202 217 235
634 4 2 0 0 275 315 272 274
635 4 2 0 0 218 198 217 190
636 4 2 0 0 627 638 276 277
637 4 2 0 0 620 627 223 276
638 4 2 0 0 195 170 186 187
639 4 2 0 0 159 134 158 171
640 4 2 0 0 187 170 166 150
641 4 2 0 0 195 194 186 170
642 4 2 0 0 118 150 151 139
643 4 2 0 0 199 198 166 186
644 4 2 0 0 129 127 109 579
645 4 2 0 0 34 33 58 25
646 4 2 0 0 12 11 3 16
647 4 2 0 0 123 122 174 146
648 4 2 0 0 111 98 110 90
649 4 2 0 0 171 150 170 187
650 4 2 0 0 199 186 166 187
651 4 2 0 0 167 166 187 175
652 4 2 0 0 187 186 166 170
653 4 2 0 0 95 82 75 94
654 4 2 0 0 606 28 27 30
655 4 2 0 0 67 41 45 42
656 4 2 0 0 58 57 25 33
657 4 2 0 0 91 79 76 77
658 4 2 0 0 240 241 657 205
659 4 2 0 0 50 47 49 79
660 4 2 0 0 579 108 128 126
661 4 2 0 0 579 127 109 108
662 4 2 0 0 50 79 49 62
663 4 2 0 0 98 91 70 90
664 4 2 0 0 155 154 653 179
665 4 2 0 0 111 91 90 88
666 4 2 0 0 91 77 76 89
667 4 2 0 0 203 214 653 202
668 4 2 0 0 103 102 114 130
669 4 2 0 0 496 475 483 463
670 4 2 0 0 476 475 496 463
671 4 2 0 0 315 274 276 316
672 4 2 0 0 477 465 498 485
673 4 2 0 0 99 98 111 91
674 4 2 0 0 175 174 191 146
675 4 2 0 0 477 478 498 465
676 4 2 0 0 46 33 75 34
677 4 2 0 0 33 74 75 57
678 4 2 0 0 154 178 209 179
679 4 2 0 0 45 74 75 33
680 4 2 0 0 34 75 58 33
681 4 2 0 0 83 602 82 103
682 4 2 0 0 82 53 601 602
683 4 2 0 0 46 33 45 75
684 4 2 0 0 58 57 33 75
685 4 2 0 0 599 204 240 205
686 4 2 0 0 80 113 92 112
687 4 2 0 0 80 101 112 100
688 4 2 0 0 80 113 112 101
689 4 2 0 0 80 93 113 81
690 4 2 0 0 80 113 93 92
691 4 2 0 0 80 113 101 81
692 4 2 0 0 115 83 82 103
693 4 2 0 0 115 103 82 114
694 4 2 0 0 203 235 214 202
695 4 2 0 0 115 95 94 82
696 4 2 0 0 95 83 82 115
697 4 2 0 0 114 82 102 103
698 4 2 0 0 218 174 199 198
699 4 2 0 0 254 294 296 297
700 4 2 0 0 254 257 255 297
701 4 2 0 0 254 297 296 256
702 4 2 0 0 207 230 243 242
703 4 2 0 0 254 295 294 297
704 4 2 0 0 254 297 256 257
705 4 2 0 0 163 162 130 179
706 4 2 0 0 254 297 255 295
707 4 2 0 0 258 301 299 298
708 4 2 0 0 258 298 300 301
709 4 2 0 0 268 632 662 288
710 4 2 0 0 258 301 300 260
711 4 2 0 0 258 261 301 260
712 4 2 0 0 258 301 259 299
713 4 2 0 0 646 271 585 270
714 4 2 0 0 258 301 261 259
715 4 2 0 0 317 315 276 316
716 4 2 0 0 275 315 276 317
717 4 2 0 0 278 321 319 318
718 4 2 0 0 278 280 321 320
719 4 2 0 0 278 318 320 321
720 4 2 0 0 281 280 321 278
721 4 2 0 0 281 278 321 279
722 4 2 0 0 279 319 278 321
723 4 2 0 0 277 317 276 319
724 4 2 0 0 218 217 202 190
725 4 2 0 0 632 230 243 231
726 4 2 0 0 268 632 288 269
727 4 2 0 0 643 632 268 269
728 4 2 0 0 283 323 282 291
729 4 2 0 0 199 218 191 174
730 4 2 0 0 214 234 209 202
731 4 2 0 0 235 202 234 214
732 4 2 0 0 191 218 202 190
733 4 2 0 0 213 212 239 198
734 4 2 0 0 602 63 53 54
735 4 2 0 0 218 203 202 235
736 4 2 0 0 279 278 319 276
737 4 2 0 0 218 199 239 198
738 4 2 0 0 218 217 198 239
739 4 2 0 0 277 319 276 279
740 4 2 0 0 235 271 585 646
741 4 2 0 0 251 249 280 281
742 4 2 0 0 171 134 170 150
743 4 2 0 0 171 150 135 134
744 4 2 0 0 171 135 150 151
745 4 2 0 0 159 134 135 143
746 4 2 0 0 653 214 209 202
747 4 2 0 0 175 191 174 199
748 4 2 0 0 646 270 272 273
749 4 2 0 0 75 66 74 45
750 4 2 0 0 147 175 146 123
751 4 2 0 0 155 103 115 114
752 4 2 0 0 167 187 150 171
753 4 2 0 0 167 151 171 150
754 4 2 0 0 167 166 150 187
755 4 2 0 0 167 150 139 151
756 4 2 0 0 271 235 585 214
757 4 2 0 0 627 224 638 277
758 4 2 0 0 67 66 75 45
759 4 2 0 0 606 27 17 29
760 4 2 0 0 4 16 12 3
761 4 2 0 0 26 58 25 34
762 4 2 0 0 67 46 45 75
763 4 2 0 0 593 107 594 86
764 4 2 0 0 570 566 535 536
765 4 2 0 0 535 566 570 565
766 4 2 0 0 570 535 569 547
767 4 2 0 0 570 535 565 569
768 4 2 0 0 570 535 547 548
769 4 2 0 0 570 536 535 548
770 4 2 0 0 629 352 353 350
771 4 2 0 0 129 595 128 163
772 4 2 0 0 128 595 579 126
773 4 2 0 0 161 595 126 616
774 4 2 0 0 616 595 129 163
775 4 2 0 0 616 129 579 127
776 4 2 0 0 118 138 150 139
777 4 2 0 0 118 139 151 119
778 4 2 0 0 584 583 104 84
779 4 2 0 0 453 465 426 478
780 4 2 0 0 478 466 465 426
781 4 2 0 0 462 430 429 442
782 4 2 0 0 5 23 24 32
783 4 2 0 0 5 31 23 32
784 4 2 0 0 586 89 97 96
785 4 2 0 0 586 96 97 68
786 4 2 0 0 65 44 64 39
787 4 2 0 0 65 40 44 39
788 4 2 0 0 44 39 43 64
789 4 2 0 0 376 587 336 363
790 4 2 0 0 587 336 363 364
791 4 2 0 0 612 222 221 219
792 4 2 0 0 612 640 222 259
793 4 2 0 0 612 640 259 258
794 4 2 0 0 571 554 553 545
795 4 2 0 0 571 546 554 545
796 4 2 0 0 571 572 554 546
797 4 2 0 0 473 493 494 589
798 4 2 0 0 474 590 473 589
799 4 2 0 0 590 486 474 592
800 4 2 0 0 473 485 588 590
801 4 2 0 0 588 493 473 589
802 4 2 0 0 460 459 427 440
803 4 2 0 0 459 427 440 439
804 4 2 0 0 427 440 428 460
805 4 2 0 0 514 536 535 540
806 4 2 0 0 513 540 535 539
807 4 2 0 0 596 354 316 356
808 4 2 0 0 596 355 354 356
809 4 2 0 0 450 449 617 452
810 4 2 0 0 452 580 449 451
811 4 2 0 0 462 442 429 441
812 4 2 0 0 462 441 429 461
813 4 2 0 0 106 630 107 594
814 4 2 0 0 593 87 107 86
815 4 2 0 0 593 594 107 630
816 4 2 0 0 593 630 107 95
817 4 2 0 0 75 83 58 57
818 4 2 0 0 597 550 552 549
819 4 2 0 0 558 526 525 649
820 4 2 0 0 525 558 649 557
821 4 2 0 0 558 526 649 636
822 4 2 0 0 32 9 14 10
823 4 2 0 0 597 552 550 562
824 4 2 0 0 626 115 94 114
825 4 2 0 0 626 630 107 106
826 4 2 0 0 91 99 98 70
827 4 2 0 0 91 71 99 70
828 4 2 0 0 331 330 328 320
829 4 2 0 0 331 329 320 328
830 4 2 0 0 278 249 281 280
831 4 2 0 0 278 279 281 249
832 4 2 0 0 657 243 242 207
833 4 2 0 0 656 207 242 206
834 4 2 0 0 602 63 83 82
835 4 2 0 0 82 102 103 601
836 4 2 0 0 103 602 82 601
837 4 2 0 0 324 326 294 295
838 4 2 0 0 324 325 327 295
839 4 2 0 0 487 480 479 508
840 4 2 0 0 481 510 489 509
841 4 2 0 0 496 605 603 604
842 4 2 0 0 604 603 496 475
843 4 2 0 0 603 495 496 475
844 4 2 0 0 604 496 476 475
845 4 2 0 0 496 495 603 515
846 4 2 0 0 605 496 603 515
847 4 2 0 0 636 526 605 496
848 4 2 0 0 525 515 605 603
849 4 2 0 0 116 137 149 148
850 4 2 0 0 137 136 148 116
851 4 2 0 0 297 295 326 327
852 4 2 0 0 297 294 296 326
853 4 2 0 0 606 28 30 18
854 4 2 0 0 606 30 27 29
855 4 2 0 0 607 484 483 463
856 4 2 0 0 607 484 463 464
857 4 2 0 0 484 464 607 608
858 4 2 0 0 112 113 153 101
859 4 2 0 0 101 153 112 152
860 4 2 0 0 101 152 112 124
861 4 2 0 0 101 125 152 124
862 4 2 0 0 101 125 153 152
863 4 2 0 0 275 276 274 638
864 4 2 0 0 275 277 276 638
865 4 2 0 0 223 627 620 225
866 4 2 0 0 609 96 88 586
867 4 2 0 0 609 96 586 68
868 4 2 0 0 491 610 471 492
869 4 2 0 0 314 316 315 639
870 4 2 0 0 568 564 533 563
871 4 2 0 0 568 534 533 564
872 4 2 0 0 568 533 534 546
873 4 2 0 0 568 563 533 567
874 4 2 0 0 568 533 545 567
875 4 2 0 0 568 545 533 546
876 4 2 0 0 52 651 20 613
877 4 2 0 0 636 605 515 496
878 4 2 0 0 465 426 425 453
879 4 2 0 0 7 26 25 34
880 4 2 0 0 7 8 26 34
881 4 2 0 0 67 45 46 42
882 4 2 0 0 329 319 321 318
883 4 2 0 0 329 318 320 328
884 4 2 0 0 246 255 254 257
885 4 2 0 0 246 254 256 257
886 4 2 0 0 614 80 100 101
887 4 2 0 0 614 81 80 101
888 4 2 0 0 651 80 614 81
889 4 2 0 0 615 415 617 450
890 4 2 0 0 615 450 617 452
891 4 2 0 0 659 335 371 334
892 4 2 0 0 659 334 371 642
893 4 2 0 0 269 308 268 271
894 4 2 0 0 271 308 268 270
895 4 2 0 0 371 369 659 642
896 4 2 0 0 522 504 496 495
897 4 2 0 0 207 206 162 230
898 4 2 0 0 231 163 162 207
899 4 2 0 0 231 162 230 207
900 4 2 0 0 177 176 160 228
901 4 2 0 0 266 265 264 654
902 4 2 0 0 266 265 654 307
903 4 2 0 0 266 265 307 267
904 4 2 0 0 266 306 654 304
905 4 2 0 0 616 579 129 595
906 4 2 0 0 179 162 178 231
907 4 2 0 0 341 645 625 305
908 4 2 0 0 625 645 304 305
909 4 2 0 0 305 625 302 304
910 4 2 0 0 264 232 628 582
911 4 2 0 0 463 464 476 423
912 4 2 0 0 264 628 232 262
913 4 2 0 0 582 628 233 232
914 4 2 0 0 476 423 448 447
915 4 2 0 0 163 130 128 131
916 4 2 0 0 476 423 424 448
917 4 2 0 0 163 128 129 131
918 4 2 0 0 163 128 130 162
919 4 2 0 0 126 127 124 161
920 4 2 0 0 126 161 616 127
921 4 2 0 0 619 497 498 516
922 4 2 0 0 498 619 528 618
923 4 2 0 0 477 619 498 618
924 4 2 0 0 637 528 498 619
925 4 2 0 0 637 619 498 516
926 4 2 0 0 619 498 497 477
927 4 2 0 0 560 527 528 650
928 4 2 0 0 621 486 466 465
929 4 2 0 0 592 486 485 590
930 4 2 0 0 624 92 113 112
931 4 2 0 0 624 92 93 113
932 4 2 0 0 351 350 629 353
933 4 2 0 0 349 367 409 375
934 4 2 0 0 349 375 409 374
935 4 2 0 0 349 409 367 399
936 4 2 0 0 103 154 131 130
937 4 2 0 0 642 658 334 370
938 4 2 0 0 659 334 642 658
939 4 2 0 0 114 155 103 154
940 4 2 0 0 642 368 658 370
941 4 2 0 0 642 369 332 368
942 4 2 0 0 55 56 73 81
943 4 2 0 0 547 548 556 574
944 4 2 0 0 226 225 627 223
945 4 2 0 0 226 627 224 223
946 4 2 0 0 343 598 647 342
947 4 2 0 0 341 348 625 645
948 4 2 0 0 343 598 311 647
949 4 2 0 0 623 612 221 219
950 4 2 0 0 213 239 199 198
951 4 2 0 0 624 93 622 113
952 4 2 0 0 624 622 600 104
953 4 2 0 0 52 81 651 614
954 4 2 0 0 626 115 95 94
955 4 2 0 0 103 155 131 154
956 4 2 0 0 244 246 247 255
957 4 2 0 0 599 656 207 657
958 4 2 0 0 240 657 599 205
959 4 2 0 0 512 533 534 538
960 4 2 0 0 512 533 537 511
961 4 2 0 0 512 537 533 538
962 4 2 0 0 289 663 269 632
963 4 2 0 0 643 231 230 632
964 4 2 0 0 308 309 634 644
965 4 2 0 0 346 634 308 665
966 4 2 0 0 228 635 229 641
967 4 2 0 0 628 265 263 262
968 4 2 0 0 628 265 233 263
969 4 2 0 0 448 396 415 423
970 4 2 0 0 448 415 396 416
971 4 2 0 0 271 311 270 313
972 4 2 0 0 273 313 270 272
973 4 2 0 0 270 313 310 312
974 4 2 0 0 270 311 310 313
975 4 2 0 0 272 312 313 270
976 4 2 0 0 273 270 313 271
977 4 2 0 0 131 130 154 179
978 4 2 0 0 130 162 154 179
979 4 2 0 0 453 426 417 454
980 4 2 0 0 453 417 426 425
981 4 2 0 0 417 426 399 454
982 4 2 0 0 417 399 426 425
983 4 2 0 0 176 177 160 124
984 4 2 0 0 124 177 161 125
985 4 2 0 0 152 125 177 124
986 4 2 0 0 176 124 152 177
987 4 2 0 0 124 161 177 160
988 4 2 0 0 262 302 305 303
989 4 2 0 0 264 304 305 262
990 4 2 0 0 262 265 263 305
991 4 2 0 0 264 265 262 305
992 4 2 0 0 262 305 263 303
993 4 2 0 0 262 302 304 305
994 4 2 0 0 231 179 162 163
995 4 2 0 0 654 265 305 307
996 4 2 0 0 155 653 214 179
997 4 2 0 0 162 154 179 178
998 4 2 0 0 154 209 653 179
999 4 2 0 0 155 214 653 203
1000 4 2 0 0 373 362 648 348
1001 4 2 0 0 648 396 423 348
1002 4 2 0 0 648 348 362 397
1003 4 2 0 0 648 348 397 396
1004 4 2 0 0 107 630 626 95
1005 4 2 0 0 621 486 592 474
1006 4 2 0 0 525 649 526 605
1007 4 2 0 0 619 527 650 528
1008 4 2 0 0 659 369 333 332
1009 4 2 0 0 627 223 276 638
1010 4 2 0 0 627 224 223 638
1011 4 2 0 0 612 221 222 640
1012 4 2 0 0 612 221 640 258
1013 4 2 0 0 629 631 352 298
1014 4 2 0 0 629 353 352 631
1015 4 2 0 0 611 607 484 483
1016 4 2 0 0 611 607 472 484
1017 4 2 0 0 613 80 51 651
1018 4 2 0 0 613 51 52 651
1019 4 2 0 0 51 80 614 651
1020 4 2 0 0 52 651 51 614
1021 4 2 0 0 583 600 104 92
1022 4 2 0 0 104 600 583 584
1023 4 2 0 0 584 105 104 600
1024 4 2 0 0 622 600 104 105
1025 4 2 0 0 624 600 92 104
1026 4 2 0 0 626 94 630 106
1027 4 2 0 0 630 95 94 626
1028 4 2 0 0 107 95 626 115
1029 4 2 0 0 153 652 177 201
1030 4 2 0 0 160 595 126 161
1031 4 2 0 0 333 664 633 345
1032 4 2 0 0 307 286 287 633
1033 4 2 0 0 307 664 345 633
1034 4 2 0 0 200 176 652 227
1035 4 2 0 0 152 652 177 153
1036 4 2 0 0 227 652 177 176
1037 4 2 0 0 585 235 646 234
1038 4 2 0 0 234 585 270 646
1039 4 2 0 0 647 598 310 342
1040 4 2 0 0 647 598 311 310
1041 4 2 0 0 373 348 648 372
1042 4 2 0 0 367 343 598 311
1043 4 2 0 0 525 515 649 605
1044 4 2 0 0 525 649 515 557
1045 4 2 0 0 649 526 605 636
1046 4 2 0 0 619 527 516 650
1047 4 2 0 0 527 559 516 650
1048 4 2 0 0 650 528 637 619
1049 4 2 0 0 52 81 20 651
1050 4 2 0 0 653 154 202 209
1051 4 2 0 0 332 655 344 633
1052 4 2 0 0 307 287 664 633
1053 4 2 0 0 665 288 634 308
1054 4 2 0 0 289 634 309 666
1055 4 2 0 0 599 207 656 206
1056 4 2 0 0 599 657 207 205
1057 4 2 0 0 656 657 242 207
1058 4 2 0 0 642 368 332 658
1059 4 2 0 0 659 369 332 642
1060 4 2 0 0 240 660 635 228
1061 4 2 0 0 635 660 266 228
1062 4 2 0 0 635 241 229 661
1063 4 2 0 0 641 229 267 635
1064 4 2 0 0 632 230 662 242
1065 4 2 0 0 643 230 268 632
1066 4 2 0 0 632 231 269 643
1067 4 2 0 0 663 231 632 243
1068 4 2 0 0 496 463 483 484
1069 4 2 0 0 476 463 496 484
1070 4 2 0 0 465 486 498 485
1071 4 2 0 0 465 478 498 486
1072 4 2 0 0 115 94 114 82
1073 4 2 0 0 275 274 276 315
1074 4 2 0 0 270 311 308 310
1075 4 2 0 0 266 306 307 654
1076 4 2 0 0 654 305 264 304
1077 4 2 0 0 231 162 178 230
1078 4 2 0 0 625 340 302 304
1079 4 2 0 0 625 348 304 645
1080 4 2 0 0 417 454 591 451
1081 4 2 0 0 417 418 591 454
1082 4 2 0 0 126 161 124 160
1083 4 2 0 0 599 656 240 204
1084 4 2 0 0 599 240 656 657
1085 4 2 0 0 659 658 642 332
1086 4 2 0 0 448 424 396 423
1087 4 2 0 0 448 396 424 416
1088 4 2 0 0 152 177 125 153
1089 4 2 0 0 228 266 635 641
1090 4 2 0 0 635 661 229 267
1091 4 2 0 0 268 632 230 662
1092 4 2 0 0 663 231 269 632
1093 4 2 0 0 346 634 644 308
1094 4 2 0 0 634 309 347 644
1095 4 2 0 0 200 152 652 176
1096 4 2 0 0 176 652 177 152
$EndElements
